Aikya-Medium_b005.ufo
<glyph name="exclam" format="1">
  <advance width="291"/>
  <unicode hex="0021"/>
  <outline>
    <contour>
      <point x="118" y="171" type="line"/>
      <point x="171" y="171" type="line"/>
      <point x="189" y="550" type="line"/>
      <point x="96" y="550" type="line"/>
    </contour>
    <contour>
      <point x="91" y="45" type="curve" smooth="yes"/>
      <point x="91" y="15"/>
      <point x="114" y="-7"/>
      <point x="146" y="-7" type="curve" smooth="yes"/>
      <point x="176" y="-7"/>
      <point x="201" y="14"/>
      <point x="201" y="44" type="curve" smooth="yes"/>
      <point x="201" y="74"/>
      <point x="179" y="97"/>
      <point x="146" y="97" type="curve" smooth="yes"/>
      <point x="114" y="97"/>
      <point x="91" y="75"/>
    </contour>
  </outline>
</glyph>
<glyph name="quotedbl" format="1">
  <advance width="426"/>
  <unicode hex="0022"/>
  <outline>
    <contour>
      <point x="268" y="359" type="line"/>
      <point x="321" y="359" type="line"/>
      <point x="336" y="594" type="line"/>
      <point x="254" y="594" type="line"/>
    </contour>
    <contour>
      <point x="105" y="359" type="line"/>
      <point x="157" y="359" type="line"/>
      <point x="173" y="594" type="line"/>
      <point x="90" y="594" type="line"/>
    </contour>
  </outline>
</glyph>
<glyph name="numbersign" format="1">
  <advance width="551"/>
  <unicode hex="0023"/>
  <outline>
    <contour>
      <point x="124" y="0" type="line"/>
      <point x="191" y="0" type="line"/>
      <point x="204" y="130" type="line"/>
      <point x="324" y="130" type="line"/>
      <point x="313" y="0" type="line"/>
      <point x="379" y="0" type="line"/>
      <point x="391" y="130" type="line"/>
      <point x="485" y="130" type="line"/>
      <point x="485" y="179" type="line"/>
      <point x="396" y="179" type="line"/>
      <point x="410" y="324" type="line"/>
      <point x="501" y="324" type="line"/>
      <point x="501" y="373" type="line"/>
      <point x="415" y="373" type="line"/>
      <point x="427" y="496" type="line"/>
      <point x="360" y="496" type="line"/>
      <point x="349" y="373" type="line"/>
      <point x="230" y="373" type="line"/>
      <point x="241" y="496" type="line"/>
      <point x="174" y="496" type="line"/>
      <point x="163" y="373" type="line"/>
      <point x="71" y="373" type="line"/>
      <point x="71" y="324" type="line"/>
      <point x="158" y="324" type="line"/>
      <point x="144" y="179" type="line"/>
      <point x="59" y="179" type="line"/>
      <point x="59" y="130" type="line"/>
      <point x="137" y="130" type="line"/>
    </contour>
    <contour>
      <point x="210" y="179" type="line"/>
      <point x="224" y="324" type="line"/>
      <point x="343" y="324" type="line"/>
      <point x="327" y="179" type="line"/>
    </contour>
  </outline>
</glyph>
<glyph name="dollar" format="1">
  <advance width="496"/>
  <unicode hex="0024"/>
  <outline>
    <contour>
      <point x="431" y="144" type="curve" smooth="yes"/>
      <point x="431" y="230"/>
      <point x="367" y="265"/>
      <point x="278" y="315" type="curve"/>
      <point x="220" y="347"/>
      <point x="159" y="376"/>
      <point x="159" y="437" type="curve" smooth="yes"/>
      <point x="159" y="490"/>
      <point x="202" y="515"/>
      <point x="256" y="516" type="curve" smooth="yes"/>
      <point x="292" y="516"/>
      <point x="315" y="507"/>
      <point x="330" y="495" type="curve"/>
      <point x="347" y="410" type="line"/>
      <point x="396" y="410" type="line"/>
      <point x="401" y="529" type="line"/>
      <point x="382" y="536"/>
      <point x="337" y="553"/>
      <point x="280" y="556" type="curve"/>
      <point x="280" y="637" type="line"/>
      <point x="223" y="637" type="line"/>
      <point x="223" y="556" type="line"/>
      <point x="138" y="545"/>
      <point x="76" y="492"/>
      <point x="76" y="420" type="curve" smooth="yes"/>
      <point x="76" y="331"/>
      <point x="130" y="292"/>
      <point x="211" y="250" type="curve" smooth="yes"/>
      <point x="284" y="212"/>
      <point x="344" y="181"/>
      <point x="344" y="124" type="curve" smooth="yes"/>
      <point x="344" y="66"/>
      <point x="310" y="34"/>
      <point x="241" y="34" type="curve" smooth="yes"/>
      <point x="196" y="34"/>
      <point x="164" y="45"/>
      <point x="144" y="62" type="curve"/>
      <point x="128" y="153" type="line"/>
      <point x="76" y="153" type="line"/>
      <point x="71" y="25" type="line"/>
      <point x="91" y="17"/>
      <point x="149" y="-3"/>
      <point x="216" y="-7" type="curve"/>
      <point x="215" y="-93" type="line"/>
      <point x="270" y="-93" type="line"/>
      <point x="271" y="-7" type="line"/>
      <point x="379" y="3"/>
      <point x="431" y="66"/>
    </contour>
  </outline>
</glyph>
<glyph name="percent" format="1">
  <advance width="771"/>
  <unicode hex="0025"/>
  <outline>
    <contour>
      <point x="172" y="236" type="curve" smooth="yes"/>
      <point x="250" y="236"/>
      <point x="319" y="292"/>
      <point x="319" y="393" type="curve" smooth="yes"/>
      <point x="319" y="478"/>
      <point x="280" y="547"/>
      <point x="185" y="547" type="curve" smooth="yes"/>
      <point x="106" y="547"/>
      <point x="38" y="490"/>
      <point x="38" y="388" type="curve" smooth="yes"/>
      <point x="38" y="306"/>
      <point x="88" y="236"/>
    </contour>
    <contour>
      <point x="178" y="278" type="curve" smooth="yes"/>
      <point x="133" y="278"/>
      <point x="113" y="333"/>
      <point x="113" y="392" type="curve" smooth="yes"/>
      <point x="113" y="459"/>
      <point x="135" y="505"/>
      <point x="181" y="505" type="curve" smooth="yes"/>
      <point x="225" y="505"/>
      <point x="245" y="454"/>
      <point x="245" y="390" type="curve" smooth="yes"/>
      <point x="245" y="323"/>
      <point x="223" y="278"/>
    </contour>
    <contour>
      <point x="235" y="0" type="line"/>
      <point x="297" y="0" type="line"/>
      <point x="534" y="556" type="line"/>
      <point x="473" y="556" type="line"/>
    </contour>
    <contour>
      <point x="451" y="166" type="curve" smooth="yes"/>
      <point x="451" y="84"/>
      <point x="500" y="14"/>
      <point x="585" y="14" type="curve" smooth="yes"/>
      <point x="662" y="14"/>
      <point x="732" y="70"/>
      <point x="732" y="170" type="curve" smooth="yes"/>
      <point x="732" y="256"/>
      <point x="692" y="324"/>
      <point x="598" y="324" type="curve" smooth="yes"/>
      <point x="519" y="324"/>
      <point x="451" y="267"/>
    </contour>
    <contour>
      <point x="525" y="170" type="curve" smooth="yes"/>
      <point x="525" y="237"/>
      <point x="548" y="282"/>
      <point x="593" y="282" type="curve" smooth="yes"/>
      <point x="638" y="282"/>
      <point x="657" y="231"/>
      <point x="657" y="167" type="curve" smooth="yes"/>
      <point x="657" y="100"/>
      <point x="635" y="55"/>
      <point x="589" y="55" type="curve" smooth="yes"/>
      <point x="546" y="55"/>
      <point x="525" y="111"/>
    </contour>
  </outline>
</glyph>
<glyph name="ampersand" format="1">
  <advance width="562"/>
  <unicode hex="0026"/>
  <outline>
    <contour>
      <point x="373" y="260" type="line"/>
      <point x="432" y="251" type="line"/>
      <point x="435" y="209"/>
      <point x="428" y="156"/>
      <point x="401" y="117" type="curve"/>
      <point x="384" y="134" type="line" smooth="yes"/>
      <point x="348" y="169"/>
      <point x="283" y="242"/>
      <point x="248" y="284" type="curve"/>
      <point x="318" y="330"/>
      <point x="374" y="367"/>
      <point x="374" y="453" type="curve" smooth="yes"/>
      <point x="374" y="503"/>
      <point x="332" y="557"/>
      <point x="240" y="557" type="curve" smooth="yes"/>
      <point x="153" y="557"/>
      <point x="88" y="498"/>
      <point x="88" y="426" type="curve" smooth="yes"/>
      <point x="88" y="370"/>
      <point x="119" y="314"/>
      <point x="152" y="272" type="curve"/>
      <point x="101" y="245"/>
      <point x="41" y="202"/>
      <point x="41" y="134" type="curve" smooth="yes"/>
      <point x="41" y="42"/>
      <point x="120" y="-7"/>
      <point x="241" y="-7" type="curve" smooth="yes"/>
      <point x="283" y="-7"/>
      <point x="337" y="3"/>
      <point x="376" y="34" type="curve"/>
      <point x="410" y="7"/>
      <point x="435" y="-5"/>
      <point x="472" y="-5" type="curve" smooth="yes"/>
      <point x="483" y="-5"/>
      <point x="517" y="-2"/>
      <point x="528" y="4" type="curve"/>
      <point x="528" y="40" type="line"/>
      <point x="489" y="43"/>
      <point x="463" y="59"/>
      <point x="434" y="86" type="curve"/>
      <point x="467" y="122"/>
      <point x="492" y="182"/>
      <point x="491" y="251" type="curve"/>
      <point x="549" y="260" type="line"/>
      <point x="549" y="303" type="line"/>
      <point x="373" y="303" type="line"/>
    </contour>
    <contour>
      <point x="248" y="37" type="curve" smooth="yes"/>
      <point x="164" y="37"/>
      <point x="122" y="86"/>
      <point x="122" y="145" type="curve" smooth="yes"/>
      <point x="122" y="187"/>
      <point x="147" y="217"/>
      <point x="177" y="241" type="curve"/>
      <point x="222" y="189"/>
      <point x="289" y="109"/>
      <point x="340" y="64" type="curve"/>
      <point x="314" y="46"/>
      <point x="279" y="37"/>
    </contour>
    <contour>
      <point x="170" y="437" type="curve" smooth="yes"/>
      <point x="170" y="487"/>
      <point x="199" y="522"/>
      <point x="238" y="522" type="curve" smooth="yes"/>
      <point x="291" y="522"/>
      <point x="301" y="477"/>
      <point x="301" y="451" type="curve" smooth="yes"/>
      <point x="301" y="393"/>
      <point x="280" y="358"/>
      <point x="225" y="313" type="curve"/>
      <point x="202" y="341"/>
      <point x="170" y="382"/>
    </contour>
  </outline>
</glyph>
<glyph name="quotesingle" format="1">
  <advance width="263"/>
  <unicode hex="0027"/>
  <outline>
    <contour>
      <point x="105" y="359" type="line"/>
      <point x="157" y="359" type="line"/>
      <point x="173" y="594" type="line"/>
      <point x="90" y="594" type="line"/>
    </contour>
  </outline>
</glyph>
<glyph name="parenleft" format="1">
  <advance width="320"/>
  <unicode hex="0028"/>
  <outline>
    <contour>
      <point x="48" y="247" type="curve" smooth="yes"/>
      <point x="48" y="-6"/>
      <point x="201" y="-118"/>
      <point x="234" y="-137" type="curve"/>
      <point x="270" y="-112" type="line"/>
      <point x="234" y="-87"/>
      <point x="123" y="37"/>
      <point x="128" y="261" type="curve" smooth="yes"/>
      <point x="133" y="462"/>
      <point x="237" y="571"/>
      <point x="268" y="591" type="curve"/>
      <point x="234" y="615" type="line"/>
      <point x="194" y="593"/>
      <point x="48" y="467"/>
    </contour>
  </outline>
</glyph>
<glyph name="parenright" format="1">
  <advance width="320"/>
  <unicode hex="0029"/>
  <outline>
    <contour>
      <point x="273" y="231" type="curve" smooth="yes"/>
      <point x="273" y="484"/>
      <point x="119" y="596"/>
      <point x="86" y="615" type="curve"/>
      <point x="51" y="590" type="line"/>
      <point x="86" y="565"/>
      <point x="197" y="441"/>
      <point x="192" y="217" type="curve" smooth="yes"/>
      <point x="187" y="16"/>
      <point x="84" y="-93"/>
      <point x="53" y="-113" type="curve"/>
      <point x="86" y="-137" type="line"/>
      <point x="126" y="-115"/>
      <point x="273" y="11"/>
    </contour>
  </outline>
</glyph>
<glyph name="asterisk" format="1">
  <advance width="479"/>
  <unicode hex="002A"/>
  <outline>
    <contour>
      <point x="92" y="291" type="line"/>
      <point x="174" y="352" type="line"/>
      <point x="228" y="401" type="line"/>
      <point x="213" y="331" type="line"/>
      <point x="204" y="228" type="line"/>
      <point x="280" y="229" type="line"/>
      <point x="267" y="331" type="line"/>
      <point x="250" y="401" type="line"/>
      <point x="306" y="353" type="line"/>
      <point x="387" y="294" type="line"/>
      <point x="426" y="359" type="line"/>
      <point x="333" y="400" type="line"/>
      <point x="262" y="421" type="line"/>
      <point x="333" y="443" type="line"/>
      <point x="423" y="487" type="line"/>
      <point x="387" y="550" type="line"/>
      <point x="303" y="490" type="line"/>
      <point x="250" y="440" type="line"/>
      <point x="266" y="511" type="line"/>
      <point x="275" y="612" type="line"/>
      <point x="199" y="612" type="line"/>
      <point x="211" y="510" type="line"/>
      <point x="228" y="439" type="line"/>
      <point x="172" y="488" type="line"/>
      <point x="90" y="548" type="line"/>
      <point x="54" y="484" type="line"/>
      <point x="146" y="442" type="line"/>
      <point x="216" y="421" type="line"/>
      <point x="146" y="399" type="line"/>
      <point x="55" y="354" type="line"/>
    </contour>
  </outline>
</glyph>
<glyph name="plus" format="1">
  <advance width="490"/>
  <unicode hex="002B"/>
  <outline>
    <contour>
      <point x="77" y="191" type="line"/>
      <point x="151" y="191" type="line"/>
      <point x="217" y="194" type="line"/>
      <point x="214" y="134" type="line"/>
      <point x="214" y="46" type="line"/>
      <point x="275" y="46" type="line"/>
      <point x="275" y="134" type="line"/>
      <point x="272" y="194" type="line"/>
      <point x="328" y="191" type="line"/>
      <point x="412" y="191" type="line"/>
      <point x="412" y="251" type="line"/>
      <point x="328" y="251" type="line"/>
      <point x="272" y="247" type="line"/>
      <point x="275" y="308" type="line"/>
      <point x="275" y="391" type="line"/>
      <point x="214" y="391" type="line"/>
      <point x="214" y="308" type="line"/>
      <point x="217" y="247" type="line"/>
      <point x="151" y="251" type="line"/>
      <point x="77" y="251" type="line"/>
    </contour>
  </outline>
</glyph>
<glyph name="comma" format="1">
  <advance width="248"/>
  <unicode hex="002C"/>
  <outline>
    <contour>
      <point x="127" y="107" type="curve" smooth="yes"/>
      <point x="97" y="107"/>
      <point x="77" y="90"/>
      <point x="77" y="59" type="curve" smooth="yes"/>
      <point x="77" y="16"/>
      <point x="119" y="16"/>
      <point x="119" y="-36" type="curve" smooth="yes"/>
      <point x="119" y="-82"/>
      <point x="96" y="-111"/>
      <point x="77" y="-125" type="curve"/>
      <point x="77" y="-134" type="line"/>
      <point x="103" y="-154" type="line"/>
      <point x="104" y="-154" type="line"/>
      <point x="140" y="-134"/>
      <point x="186" y="-66"/>
      <point x="186" y="17" type="curve" smooth="yes"/>
      <point x="186" y="73"/>
      <point x="164" y="107"/>
    </contour>
  </outline>
</glyph>
<glyph name="hyphen" format="1">
  <advance width="468"/>
  <unicode hex="002D"/>
  <outline>
    <contour>
      <point x="83" y="193" type="line"/>
      <point x="385" y="193" type="line"/>
      <point x="385" y="252" type="line"/>
      <point x="83" y="252" type="line"/>
    </contour>
  </outline>
</glyph>
<glyph name="period" format="1">
  <advance width="208"/>
  <unicode hex="002E"/>
  <outline>
    <contour>
      <point x="49" y="45" type="curve" smooth="yes"/>
      <point x="49" y="15"/>
      <point x="72" y="-7"/>
      <point x="104" y="-7" type="curve" smooth="yes"/>
      <point x="134" y="-7"/>
      <point x="159" y="14"/>
      <point x="159" y="44" type="curve" smooth="yes"/>
      <point x="159" y="74"/>
      <point x="137" y="97"/>
      <point x="104" y="97" type="curve" smooth="yes"/>
      <point x="72" y="97"/>
      <point x="49" y="75"/>
    </contour>
  </outline>
</glyph>
<glyph name="slash" format="1">
  <advance width="319"/>
  <unicode hex="002F"/>
  <outline>
    <contour>
      <point x="26" y="-131" type="line"/>
      <point x="95" y="-131" type="line"/>
      <point x="293" y="579" type="line"/>
      <point x="225" y="579" type="line"/>
    </contour>
  </outline>
</glyph>
<glyph name="zero" format="1">
  <advance width="478"/>
  <unicode hex="0030"/>
  <outline>
    <contour>
      <point x="232" y="-7" type="curve" smooth="yes"/>
      <point x="345" y="-7"/>
      <point x="433" y="86"/>
      <point x="433" y="234" type="curve" smooth="yes"/>
      <point x="434" y="371"/>
      <point x="382" y="467"/>
      <point x="247" y="467" type="curve" smooth="yes"/>
      <point x="139" y="467"/>
      <point x="46" y="382"/>
      <point x="44" y="233" type="curve" smooth="yes"/>
      <point x="43" y="99"/>
      <point x="100" y="-7"/>
    </contour>
    <contour>
      <point x="239" y="33" type="curve" smooth="yes"/>
      <point x="163" y="33"/>
      <point x="136" y="120"/>
      <point x="136" y="238" type="curve" smooth="yes"/>
      <point x="136" y="357"/>
      <point x="167" y="426"/>
      <point x="240" y="426" type="curve" smooth="yes"/>
      <point x="316" y="426"/>
      <point x="342" y="351"/>
      <point x="342" y="229" type="curve" smooth="yes"/>
      <point x="342" y="105"/>
      <point x="313" y="33"/>
    </contour>
  </outline>
</glyph>
<glyph name="one" format="1">
  <advance width="327"/>
  <unicode hex="0031"/>
  <outline>
    <contour>
      <point x="42" y="0" type="line"/>
      <point x="312" y="0" type="line"/>
      <point x="312" y="39" type="line"/>
      <point x="225" y="47" type="line"/>
      <point x="225" y="460" type="line"/>
      <point x="174" y="468" type="line"/>
      <point x="174" y="468" type="line"/>
      <point x="139" y="438"/>
      <point x="80" y="408"/>
      <point x="27" y="397" type="curve"/>
      <point x="35" y="352" type="line"/>
      <point x="62" y="355"/>
      <point x="118" y="368"/>
      <point x="136" y="375" type="curve"/>
      <point x="136" y="47" type="line"/>
      <point x="42" y="39" type="line"/>
    </contour>
  </outline>
</glyph>
<glyph name="two" format="1">
  <advance width="443"/>
  <unicode hex="0032"/>
  <outline>
    <contour>
      <point x="43" y="0" type="line"/>
      <point x="399" y="0" type="line"/>
      <point x="418" y="117" type="line"/>
      <point x="377" y="126" type="line"/>
      <point x="351" y="65" type="line"/>
      <point x="128" y="49" type="line"/>
      <point x="256" y="123"/>
      <point x="372" y="230"/>
      <point x="372" y="334" type="curve" smooth="yes"/>
      <point x="372" y="403"/>
      <point x="323" y="468"/>
      <point x="213" y="468" type="curve" smooth="yes"/>
      <point x="132" y="468"/>
      <point x="63" y="420"/>
      <point x="35" y="386" type="curve"/>
      <point x="60" y="351" type="line"/>
      <point x="83" y="373"/>
      <point x="122" y="407"/>
      <point x="185" y="407" type="curve" smooth="yes"/>
      <point x="243" y="407"/>
      <point x="277" y="372"/>
      <point x="277" y="320" type="curve" smooth="yes"/>
      <point x="277" y="224"/>
      <point x="163" y="110"/>
      <point x="31" y="34" type="curve"/>
    </contour>
  </outline>
</glyph>
<glyph name="three" format="1">
  <advance width="414"/>
  <unicode hex="0033"/>
  <outline>
    <contour>
      <point x="41" y="-63" type="curve"/>
      <point x="41" y="-109" type="line"/>
      <point x="61" y="-114"/>
      <point x="94" y="-119"/>
      <point x="118" y="-119" type="curve" smooth="yes"/>
      <point x="280" y="-119"/>
      <point x="381" y="-39"/>
      <point x="381" y="70" type="curve" smooth="yes"/>
      <point x="380" y="145"/>
      <point x="314" y="200"/>
      <point x="213" y="191" type="curve"/>
      <point x="285" y="216"/>
      <point x="353" y="275"/>
      <point x="353" y="349" type="curve" smooth="yes"/>
      <point x="353" y="434"/>
      <point x="286" y="468"/>
      <point x="201" y="468" type="curve" smooth="yes"/>
      <point x="130" y="468"/>
      <point x="62" y="431"/>
      <point x="38" y="408" type="curve"/>
      <point x="60" y="371" type="line"/>
      <point x="87" y="391"/>
      <point x="128" y="410"/>
      <point x="176" y="410" type="curve" smooth="yes"/>
      <point x="221" y="410"/>
      <point x="261" y="391"/>
      <point x="261" y="334" type="curve" smooth="yes"/>
      <point x="261" y="285"/>
      <point x="221" y="241"/>
      <point x="162" y="215" type="curve" smooth="yes"/>
      <point x="144" y="208"/>
      <point x="124" y="202"/>
      <point x="103" y="198" type="curve"/>
      <point x="117" y="156" type="line"/>
      <point x="163" y="168" type="line"/>
      <point x="246" y="165"/>
      <point x="284" y="126"/>
      <point x="284" y="62" type="curve" smooth="yes"/>
      <point x="284" y="-11"/>
      <point x="217" y="-71"/>
      <point x="101" y="-71" type="curve" smooth="yes"/>
      <point x="82" y="-71"/>
      <point x="58" y="-68"/>
    </contour>
  </outline>
</glyph>
<glyph name="four" format="1">
  <advance width="480"/>
  <unicode hex="0034"/>
  <outline>
    <contour>
      <point x="46" y="0" type="line"/>
      <point x="291" y="0" type="line"/>
      <point x="291" y="-119" type="line"/>
      <point x="366" y="-119" type="line"/>
      <point x="366" y="0" type="line"/>
      <point x="464" y="0" type="line"/>
      <point x="464" y="66" type="line"/>
      <point x="366" y="61" type="line"/>
      <point x="366" y="202" type="line"/>
      <point x="294" y="196" type="line"/>
      <point x="291" y="56" type="line"/>
      <point x="103" y="46" type="line"/>
      <point x="133" y="92" type="line"/>
      <point x="332" y="468" type="line"/>
      <point x="266" y="504" type="line"/>
      <point x="244" y="504" type="line"/>
      <point x="189" y="377"/>
      <point x="88" y="154"/>
      <point x="24" y="36" type="curve"/>
    </contour>
  </outline>
</glyph>
<glyph name="five" format="1">
  <advance width="443"/>
  <unicode hex="0035"/>
  <outline>
    <contour>
      <point x="68" y="-75" type="curve"/>
      <point x="68" y="-114" type="line"/>
      <point x="85" y="-119"/>
      <point x="103" y="-119"/>
      <point x="120" y="-119" type="curve" smooth="yes"/>
      <point x="284" y="-119"/>
      <point x="395" y="-18"/>
      <point x="395" y="102" type="curve" smooth="yes"/>
      <point x="395" y="205"/>
      <point x="336" y="256"/>
      <point x="243" y="256" type="curve" smooth="yes"/>
      <point x="197" y="256"/>
      <point x="153" y="241"/>
      <point x="129" y="228" type="curve"/>
      <point x="161" y="393" type="line"/>
      <point x="358" y="393" type="line"/>
      <point x="372" y="475" type="line"/>
      <point x="325" y="475" type="line"/>
      <point x="317" y="461" type="line"/>
      <point x="102" y="461" type="line"/>
      <point x="66" y="194" type="line"/>
      <point x="88" y="178" type="line"/>
      <point x="115" y="191"/>
      <point x="158" y="201"/>
      <point x="191" y="201" type="curve" smooth="yes"/>
      <point x="256" y="201"/>
      <point x="299" y="173"/>
      <point x="299" y="88" type="curve" smooth="yes"/>
      <point x="299" y="-8"/>
      <point x="216" y="-77"/>
      <point x="112" y="-77" type="curve" smooth="yes"/>
      <point x="99" y="-77"/>
      <point x="82" y="-75"/>
    </contour>
  </outline>
</glyph>
<glyph name="six" format="1">
  <advance width="492"/>
  <unicode hex="0036"/>
  <outline>
    <contour>
      <point x="248" y="-8" type="curve" smooth="yes"/>
      <point x="372" y="-8"/>
      <point x="440" y="90"/>
      <point x="440" y="196" type="curve" smooth="yes"/>
      <point x="440" y="300"/>
      <point x="384" y="366"/>
      <point x="282" y="366" type="curve" smooth="yes"/>
      <point x="223" y="366"/>
      <point x="182" y="341"/>
      <point x="160" y="318" type="curve"/>
      <point x="188" y="420"/>
      <point x="264" y="511"/>
      <point x="381" y="548" type="curve"/>
      <point x="362" y="582" type="line"/>
      <point x="218" y="560"/>
      <point x="55" y="415"/>
      <point x="55" y="219" type="curve" smooth="yes"/>
      <point x="55" y="94"/>
      <point x="122" y="-8"/>
    </contour>
    <contour>
      <point x="256" y="316" type="curve" smooth="yes"/>
      <point x="311" y="316"/>
      <point x="351" y="278"/>
      <point x="351" y="177" type="curve" smooth="yes"/>
      <point x="351" y="107"/>
      <point x="320" y="32"/>
      <point x="253" y="32" type="curve" smooth="yes"/>
      <point x="169" y="32"/>
      <point x="145" y="127"/>
      <point x="148" y="233" type="curve"/>
      <point x="148" y="244"/>
      <point x="149" y="256"/>
      <point x="150" y="267" type="curve"/>
      <point x="163" y="287"/>
      <point x="203" y="316"/>
    </contour>
  </outline>
</glyph>
<glyph name="seven" format="1">
  <advance width="432"/>
  <unicode hex="0037"/>
  <outline>
    <contour>
      <point x="112" y="-104" type="curve"/>
      <point x="204" y="-129" type="line"/>
      <point x="405" y="440" type="line"/>
      <point x="389" y="461" type="line"/>
      <point x="48" y="461" type="line"/>
      <point x="31" y="311" type="line"/>
      <point x="84" y="302" type="line"/>
      <point x="117" y="400" type="line"/>
      <point x="326" y="403" type="line"/>
      <point x="264" y="248"/>
      <point x="188" y="57"/>
    </contour>
  </outline>
</glyph>
<glyph name="eight" format="1">
  <advance width="471"/>
  <unicode hex="0038"/>
  <outline>
    <contour>
      <point x="47" y="133" type="curve" smooth="yes"/>
      <point x="47" y="32"/>
      <point x="146" y="-7"/>
      <point x="235" y="-7" type="curve" smooth="yes"/>
      <point x="337" y="-7"/>
      <point x="428" y="50"/>
      <point x="428" y="142" type="curve" smooth="yes"/>
      <point x="428" y="218"/>
      <point x="369" y="261"/>
      <point x="304" y="297" type="curve"/>
      <point x="365" y="332"/>
      <point x="401" y="384"/>
      <point x="401" y="439" type="curve" smooth="yes"/>
      <point x="401" y="513"/>
      <point x="336" y="562"/>
      <point x="239" y="562" type="curve" smooth="yes"/>
      <point x="153" y="562"/>
      <point x="70" y="513"/>
      <point x="70" y="422" type="curve" smooth="yes"/>
      <point x="70" y="352"/>
      <point x="111" y="310"/>
      <point x="161" y="278" type="curve"/>
      <point x="84" y="244"/>
      <point x="47" y="190"/>
    </contour>
    <contour>
      <point x="341" y="125" type="curve" smooth="yes"/>
      <point x="341" y="69"/>
      <point x="291" y="33"/>
      <point x="239" y="33" type="curve" smooth="yes"/>
      <point x="166" y="33"/>
      <point x="124" y="80"/>
      <point x="124" y="150" type="curve" smooth="yes"/>
      <point x="124" y="197"/>
      <point x="154" y="236"/>
      <point x="194" y="259" type="curve"/>
      <point x="265" y="220"/>
      <point x="341" y="191"/>
    </contour>
    <contour>
      <point x="145" y="442" type="curve" smooth="yes"/>
      <point x="145" y="493"/>
      <point x="186" y="523"/>
      <point x="238" y="523" type="curve" smooth="yes"/>
      <point x="295" y="523"/>
      <point x="332" y="487"/>
      <point x="332" y="420" type="curve" smooth="yes"/>
      <point x="332" y="381"/>
      <point x="307" y="342"/>
      <point x="267" y="318" type="curve"/>
      <point x="203" y="352"/>
      <point x="145" y="385"/>
    </contour>
  </outline>
</glyph>
<glyph name="nine" format="1">
  <advance width="489"/>
  <unicode hex="0039"/>
  <outline>
    <contour>
      <point x="248" y="468" type="curve" smooth="yes"/>
      <point x="123" y="468"/>
      <point x="52" y="375"/>
      <point x="52" y="272" type="curve" smooth="yes"/>
      <point x="52" y="164"/>
      <point x="118" y="94"/>
      <point x="221" y="94" type="curve" smooth="yes"/>
      <point x="271" y="94"/>
      <point x="312" y="118"/>
      <point x="334" y="141" type="curve"/>
      <point x="310" y="38"/>
      <point x="243" y="-52"/>
      <point x="128" y="-89" type="curve"/>
      <point x="146" y="-124" type="line"/>
      <point x="291" y="-100"/>
      <point x="439" y="43"/>
      <point x="439" y="246" type="curve" smooth="yes"/>
      <point x="439" y="370"/>
      <point x="378" y="468"/>
    </contour>
    <contour>
      <point x="240" y="144" type="curve" smooth="yes"/>
      <point x="184" y="144"/>
      <point x="142" y="185"/>
      <point x="142" y="289" type="curve" smooth="yes"/>
      <point x="142" y="354"/>
      <point x="174" y="427"/>
      <point x="242" y="427" type="curve" smooth="yes"/>
      <point x="327" y="427"/>
      <point x="349" y="336"/>
      <point x="346" y="233" type="curve" smooth="yes"/>
      <point x="346" y="220"/>
      <point x="345" y="207"/>
      <point x="343" y="193" type="curve"/>
      <point x="331" y="173"/>
      <point x="292" y="144"/>
    </contour>
  </outline>
</glyph>
<glyph name="colon" format="1">
  <advance width="255"/>
  <unicode hex="003A"/>
  <outline>
    <contour>
      <point x="72" y="350" type="curve" smooth="yes"/>
      <point x="72" y="319"/>
      <point x="95" y="298"/>
      <point x="126" y="298" type="curve" smooth="yes"/>
      <point x="157" y="298"/>
      <point x="181" y="318"/>
      <point x="181" y="349" type="curve" smooth="yes"/>
      <point x="181" y="379"/>
      <point x="159" y="402"/>
      <point x="126" y="402" type="curve" smooth="yes"/>
      <point x="95" y="402"/>
      <point x="72" y="380"/>
    </contour>
    <contour>
      <point x="72" y="45" type="curve" smooth="yes"/>
      <point x="72" y="15"/>
      <point x="95" y="-7"/>
      <point x="126" y="-7" type="curve" smooth="yes"/>
      <point x="157" y="-7"/>
      <point x="181" y="14"/>
      <point x="181" y="44" type="curve" smooth="yes"/>
      <point x="181" y="74"/>
      <point x="159" y="97"/>
      <point x="126" y="97" type="curve" smooth="yes"/>
      <point x="95" y="97"/>
      <point x="72" y="75"/>
    </contour>
  </outline>
</glyph>
<glyph name="semicolon" format="1">
  <advance width="255"/>
  <unicode hex="003B"/>
  <outline>
    <contour>
      <point x="127" y="107" type="curve" smooth="yes"/>
      <point x="98" y="107"/>
      <point x="77" y="90"/>
      <point x="77" y="59" type="curve" smooth="yes"/>
      <point x="77" y="16"/>
      <point x="119" y="16"/>
      <point x="119" y="-36" type="curve" smooth="yes"/>
      <point x="119" y="-82"/>
      <point x="96" y="-111"/>
      <point x="78" y="-125" type="curve"/>
      <point x="78" y="-134" type="line"/>
      <point x="103" y="-154" type="line"/>
      <point x="105" y="-154" type="line"/>
      <point x="141" y="-134"/>
      <point x="186" y="-66"/>
      <point x="186" y="17" type="curve" smooth="yes"/>
      <point x="186" y="73"/>
      <point x="164" y="107"/>
    </contour>
    <contour>
      <point x="73" y="350" type="curve" smooth="yes"/>
      <point x="73" y="319"/>
      <point x="96" y="298"/>
      <point x="127" y="298" type="curve" smooth="yes"/>
      <point x="158" y="298"/>
      <point x="182" y="318"/>
      <point x="182" y="349" type="curve" smooth="yes"/>
      <point x="182" y="379"/>
      <point x="160" y="402"/>
      <point x="127" y="402" type="curve" smooth="yes"/>
      <point x="96" y="402"/>
      <point x="73" y="380"/>
    </contour>
  </outline>
</glyph>
<glyph name="less" format="1">
  <advance width="496"/>
  <unicode hex="003C"/>
  <outline>
    <contour>
      <point x="61" y="201" type="line"/>
      <point x="411" y="20" type="line"/>
      <point x="411" y="90" type="line"/>
      <point x="139" y="223" type="line"/>
      <point x="411" y="356" type="line"/>
      <point x="411" y="426" type="line"/>
      <point x="61" y="244" type="line"/>
    </contour>
  </outline>
</glyph>
<glyph name="equal" format="1">
  <advance width="484"/>
  <unicode hex="003D"/>
  <outline>
    <contour>
      <point x="75" y="93" type="line"/>
      <point x="409" y="93" type="line"/>
      <point x="409" y="151" type="line"/>
      <point x="75" y="151" type="line"/>
    </contour>
    <contour>
      <point x="75" y="294" type="line"/>
      <point x="409" y="294" type="line"/>
      <point x="409" y="353" type="line"/>
      <point x="75" y="353" type="line"/>
    </contour>
  </outline>
</glyph>
<glyph name="greater" format="1">
  <advance width="496"/>
  <unicode hex="003E"/>
  <outline>
    <contour>
      <point x="435" y="201" type="line"/>
      <point x="85" y="20" type="line"/>
      <point x="85" y="90" type="line"/>
      <point x="357" y="223" type="line"/>
      <point x="85" y="356" type="line"/>
      <point x="85" y="426" type="line"/>
      <point x="435" y="244" type="line"/>
    </contour>
  </outline>
</glyph>
<glyph name="question" format="1">
  <advance width="392"/>
  <unicode hex="003F"/>
  <outline>
    <contour>
      <point x="143" y="152" type="curve"/>
      <point x="194" y="163" type="line"/>
      <point x="186" y="190"/>
      <point x="181" y="216"/>
      <point x="181" y="226" type="curve" smooth="yes"/>
      <point x="181" y="286"/>
      <point x="350" y="282"/>
      <point x="350" y="391" type="curve" smooth="yes"/>
      <point x="350" y="454"/>
      <point x="299" y="551"/>
      <point x="184" y="551" type="curve" smooth="yes"/>
      <point x="142" y="551"/>
      <point x="97" y="539"/>
      <point x="67" y="524" type="curve"/>
      <point x="98" y="445" type="line"/>
      <point x="133" y="463"/>
      <point x="176" y="476"/>
      <point x="207" y="476" type="curve" smooth="yes"/>
      <point x="256" y="476"/>
      <point x="288" y="446"/>
      <point x="288" y="414" type="curve" smooth="yes"/>
      <point x="288" y="342"/>
      <point x="110" y="352"/>
      <point x="110" y="258" type="curve" smooth="yes"/>
      <point x="110" y="228"/>
      <point x="126" y="183"/>
    </contour>
    <contour>
      <point x="127" y="45" type="curve" smooth="yes"/>
      <point x="127" y="15"/>
      <point x="150" y="-7"/>
      <point x="181" y="-7" type="curve" smooth="yes"/>
      <point x="212" y="-7"/>
      <point x="237" y="14"/>
      <point x="237" y="44" type="curve" smooth="yes"/>
      <point x="237" y="74"/>
      <point x="215" y="97"/>
      <point x="181" y="97" type="curve" smooth="yes"/>
      <point x="150" y="97"/>
      <point x="127" y="75"/>
    </contour>
  </outline>
</glyph>
<glyph name="at" format="1">
  <advance width="799"/>
  <unicode hex="0040"/>
  <outline>
    <contour>
      <point x="66" y="130" type="curve" smooth="yes"/>
      <point x="66" y="-65"/>
      <point x="166" y="-186"/>
      <point x="344" y="-186" type="curve" smooth="yes"/>
      <point x="416" y="-186"/>
      <point x="483" y="-165"/>
      <point x="521" y="-134" type="curve"/>
      <point x="507" y="-101" type="line"/>
      <point x="478" y="-120"/>
      <point x="412" y="-135"/>
      <point x="358" y="-135" type="curve" smooth="yes"/>
      <point x="228" y="-135"/>
      <point x="125" y="-43"/>
      <point x="125" y="145" type="curve" smooth="yes"/>
      <point x="125" y="369"/>
      <point x="268" y="509"/>
      <point x="431" y="509" type="curve" smooth="yes"/>
      <point x="552" y="509"/>
      <point x="669" y="445"/>
      <point x="669" y="270" type="curve" smooth="yes"/>
      <point x="669" y="134"/>
      <point x="591" y="47"/>
      <point x="540" y="47" type="curve" smooth="yes"/>
      <point x="530" y="47"/>
      <point x="523" y="71"/>
      <point x="526" y="122" type="curve"/>
      <point x="531" y="195"/>
      <point x="554" y="311"/>
      <point x="565" y="363" type="curve"/>
      <point x="548" y="368"/>
      <point x="535" y="375"/>
      <point x="521" y="379" type="curve"/>
      <point x="511" y="380"/>
      <point x="504" y="370"/>
      <point x="501" y="361" type="curve"/>
      <point x="475" y="375"/>
      <point x="440" y="381"/>
      <point x="414" y="381" type="curve" smooth="yes"/>
      <point x="294" y="381"/>
      <point x="222" y="244"/>
      <point x="222" y="135" type="curve" smooth="yes"/>
      <point x="222" y="41"/>
      <point x="275" y="-15"/>
      <point x="325" y="-15" type="curve" smooth="yes"/>
      <point x="385" y="-15"/>
      <point x="439" y="72"/>
      <point x="471" y="159" type="curve"/>
      <point x="462" y="108"/>
      <point x="459" y="74"/>
      <point x="461" y="53" type="curve" smooth="yes"/>
      <point x="463" y="11"/>
      <point x="488" y="-12"/>
      <point x="513" y="-12" type="curve" smooth="yes"/>
      <point x="575" y="-12"/>
      <point x="723" y="90"/>
      <point x="723" y="289" type="curve" smooth="yes"/>
      <point x="723" y="468"/>
      <point x="613" y="560"/>
      <point x="458" y="560" type="curve" smooth="yes"/>
      <point x="253" y="560"/>
      <point x="66" y="385"/>
    </contour>
    <contour>
      <point x="294" y="156" type="curve" smooth="yes"/>
      <point x="294" y="242"/>
      <point x="330" y="330"/>
      <point x="397" y="330" type="curve" smooth="yes"/>
      <point x="419" y="330"/>
      <point x="466" y="316"/>
      <point x="480" y="301" type="curve"/>
      <point x="476" y="278"/>
      <point x="468" y="247"/>
      <point x="459" y="221" type="curve"/>
      <point x="429" y="135"/>
      <point x="377" y="55"/>
      <point x="343" y="55" type="curve" smooth="yes"/>
      <point x="307" y="55"/>
      <point x="294" y="115"/>
    </contour>
  </outline>
</glyph>
<glyph name="B" format="1">
  <advance width="511"/>
  <unicode hex="0042"/>
  <outline>
    <contour>
      <point x="33" y="0" type="line"/>
      <point x="135" y="0" type="line" smooth="yes"/>
      <point x="190" y="0"/>
      <point x="213" y="-4"/>
      <point x="255" y="-4" type="curve" smooth="yes"/>
      <point x="432" y="-4"/>
      <point x="485" y="76"/>
      <point x="485" y="165" type="curve" smooth="yes"/>
      <point x="485" y="245"/>
      <point x="426" y="296"/>
      <point x="333" y="294" type="curve"/>
      <point x="403" y="307"/>
      <point x="446" y="361"/>
      <point x="446" y="431" type="curve" smooth="yes"/>
      <point x="446" y="509"/>
      <point x="397" y="556"/>
      <point x="252" y="556" type="curve" smooth="yes"/>
      <point x="215" y="556"/>
      <point x="181" y="550"/>
      <point x="136" y="550" type="curve" smooth="yes"/>
      <point x="35" y="550" type="line"/>
      <point x="35" y="510" type="line"/>
      <point x="93" y="501" type="line"/>
      <point x="93" y="48" type="line"/>
      <point x="33" y="39" type="line"/>
    </contour>
    <contour>
      <point x="181" y="262" type="line"/>
      <point x="200" y="263"/>
      <point x="244" y="263"/>
      <point x="268" y="263" type="curve" smooth="yes"/>
      <point x="352" y="263"/>
      <point x="388" y="231"/>
      <point x="388" y="154" type="curve" smooth="yes"/>
      <point x="388" y="83"/>
      <point x="351" y="38"/>
      <point x="254" y="38" type="curve" smooth="yes"/>
      <point x="230" y="38"/>
      <point x="196" y="38"/>
      <point x="181" y="44" type="curve"/>
    </contour>
    <contour>
      <point x="181" y="511" type="line"/>
      <point x="193" y="512"/>
      <point x="219" y="515"/>
      <point x="247" y="515" type="curve" smooth="yes"/>
      <point x="330" y="515"/>
      <point x="358" y="483"/>
      <point x="358" y="417" type="curve" smooth="yes"/>
      <point x="358" y="347"/>
      <point x="325" y="309"/>
      <point x="258" y="309" type="curve" smooth="yes"/>
      <point x="239" y="309"/>
      <point x="200" y="308"/>
      <point x="181" y="310" type="curve"/>
    </contour>
  </outline>
</glyph>
<glyph name="E" format="1">
  <advance width="484"/>
  <unicode hex="0045"/>
  <outline>
    <contour>
      <point x="33" y="0" type="line"/>
      <point x="448" y="0" type="line"/>
      <point x="468" y="131" type="line"/>
      <point x="421" y="145" type="line"/>
      <point x="380" y="52" type="line"/>
      <point x="182" y="45" type="line"/>
      <point x="182" y="260" type="line"/>
      <point x="298" y="258" type="line"/>
      <point x="309" y="195" type="line"/>
      <point x="353" y="195" type="line"/>
      <point x="353" y="367" type="line"/>
      <point x="309" y="367" type="line"/>
      <point x="298" y="307" type="line"/>
      <point x="182" y="305" type="line"/>
      <point x="182" y="509" type="line"/>
      <point x="357" y="504" type="line"/>
      <point x="380" y="433" type="line"/>
      <point x="425" y="433" type="line"/>
      <point x="415" y="550" type="line"/>
      <point x="34" y="550" type="line"/>
      <point x="34" y="510" type="line"/>
      <point x="93" y="501" type="line"/>
      <point x="93" y="48" type="line"/>
      <point x="33" y="39" type="line"/>
    </contour>
  </outline>
</glyph>
<glyph name="F" format="1">
  <advance width="459"/>
  <unicode hex="0046"/>
  <outline>
    <contour>
      <point x="35" y="0" type="line"/>
      <point x="295" y="0" type="line"/>
      <point x="295" y="39" type="line"/>
      <point x="182" y="48" type="line"/>
      <point x="182" y="252" type="line"/>
      <point x="307" y="249" type="line"/>
      <point x="322" y="185" type="line"/>
      <point x="364" y="185" type="line"/>
      <point x="364" y="361" type="line"/>
      <point x="321" y="361" type="line"/>
      <point x="307" y="299" type="line"/>
      <point x="182" y="297" type="line"/>
      <point x="182" y="509" type="line"/>
      <point x="362" y="504" type="line"/>
      <point x="386" y="422" type="line"/>
      <point x="438" y="422" type="line"/>
      <point x="431" y="550" type="line"/>
      <point x="32" y="550" type="line"/>
      <point x="32" y="510" type="line"/>
      <point x="93" y="501" type="line"/>
      <point x="93" y="48" type="line"/>
      <point x="35" y="39" type="line"/>
    </contour>
  </outline>
</glyph>
<glyph name="G" format="1">
  <advance width="550"/>
  <unicode hex="0047"/>
  <outline>
    <contour>
      <point x="290" y="-8" type="curve" smooth="yes"/>
      <point x="389" y="-8"/>
      <point x="454" y="28"/>
      <point x="493" y="30" type="curve"/>
      <point x="493" y="226" type="line"/>
      <point x="535" y="234" type="line"/>
      <point x="535" y="280" type="line"/>
      <point x="317" y="280" type="line"/>
      <point x="317" y="234" type="line"/>
      <point x="405" y="226" type="line"/>
      <point x="405" y="64" type="line"/>
      <point x="384" y="46"/>
      <point x="341" y="35"/>
      <point x="298" y="35" type="curve" smooth="yes"/>
      <point x="183" y="35"/>
      <point x="132" y="152"/>
      <point x="132" y="284" type="curve" smooth="yes"/>
      <point x="132" y="437"/>
      <point x="204" y="515"/>
      <point x="307" y="515" type="curve" smooth="yes"/>
      <point x="367" y="515"/>
      <point x="393" y="500"/>
      <point x="402" y="492" type="curve"/>
      <point x="421" y="402" type="line"/>
      <point x="480" y="402" type="line"/>
      <point x="488" y="533" type="line"/>
      <point x="462" y="539"/>
      <point x="390" y="556"/>
      <point x="312" y="556" type="curve" smooth="yes"/>
      <point x="150" y="556"/>
      <point x="31" y="452"/>
      <point x="31" y="268" type="curve" smooth="yes"/>
      <point x="31" y="111"/>
      <point x="125" y="-8"/>
    </contour>
  </outline>
</glyph>
<glyph name="H" format="1">
  <advance width="615"/>
  <unicode hex="0048"/>
  <outline>
    <contour>
      <point x="36" y="0" type="line"/>
      <point x="246" y="0" type="line"/>
      <point x="246" y="39" type="line"/>
      <point x="183" y="48" type="line"/>
      <point x="183" y="257" type="line"/>
      <point x="432" y="257" type="line"/>
      <point x="432" y="48" type="line"/>
      <point x="373" y="39" type="line"/>
      <point x="373" y="0" type="line"/>
      <point x="579" y="0" type="line"/>
      <point x="579" y="39" type="line"/>
      <point x="521" y="48" type="line"/>
      <point x="521" y="501" type="line"/>
      <point x="579" y="510" type="line"/>
      <point x="579" y="550" type="line"/>
      <point x="373" y="550" type="line"/>
      <point x="373" y="510" type="line"/>
      <point x="432" y="501" type="line"/>
      <point x="432" y="306" type="line"/>
      <point x="183" y="306" type="line"/>
      <point x="183" y="501" type="line"/>
      <point x="246" y="510" type="line"/>
      <point x="246" y="550" type="line"/>
      <point x="37" y="550" type="line"/>
      <point x="37" y="510" type="line"/>
      <point x="94" y="501" type="line"/>
      <point x="94" y="48" type="line"/>
      <point x="36" y="39" type="line"/>
    </contour>
  </outline>
</glyph>
<glyph name="I" format="1">
  <advance width="300"/>
  <unicode hex="0049"/>
  <outline>
    <contour>
      <point x="39" y="0" type="line"/>
      <point x="262" y="0" type="line"/>
      <point x="262" y="38" type="line"/>
      <point x="195" y="48" type="line"/>
      <point x="195" y="501" type="line"/>
      <point x="262" y="510" type="line"/>
      <point x="262" y="550" type="line"/>
      <point x="39" y="550" type="line"/>
      <point x="39" y="510" type="line"/>
      <point x="106" y="501" type="line"/>
      <point x="106" y="48" type="line"/>
      <point x="39" y="39" type="line"/>
    </contour>
  </outline>
</glyph>
<glyph name="J" format="1">
  <advance width="284"/>
  <unicode hex="004A"/>
  <outline>
    <contour>
      <point x="15" y="-134" type="line"/>
      <point x="94" y="-120"/>
      <point x="165" y="-69"/>
      <point x="184" y="16" type="curve"/>
      <point x="193" y="57"/>
      <point x="192" y="120"/>
      <point x="192" y="205" type="curve" smooth="yes"/>
      <point x="192" y="501" type="line"/>
      <point x="258" y="510" type="line"/>
      <point x="258" y="550" type="line"/>
      <point x="35" y="550" type="line"/>
      <point x="35" y="510" type="line"/>
      <point x="104" y="501" type="line"/>
      <point x="104" y="170" type="line" smooth="yes"/>
      <point x="104" y="73"/>
      <point x="100" y="34"/>
      <point x="89" y="-4" type="curve"/>
      <point x="72" y="-55"/>
      <point x="32" y="-90"/>
      <point x="-6" y="-100" type="curve"/>
    </contour>
  </outline>
</glyph>
<glyph name="K" format="1">
  <advance width="542"/>
  <unicode hex="004B"/>
  <outline>
    <contour>
      <point x="542" y="0" type="line"/>
      <point x="542" y="39" type="line"/>
      <point x="508" y="48" type="line"/>
      <point x="479" y="56"/>
      <point x="378" y="265"/>
      <point x="306" y="327" type="curve"/>
      <point x="460" y="501" type="line"/>
      <point x="518" y="510" type="line"/>
      <point x="518" y="550" type="line"/>
      <point x="331" y="550" type="line"/>
      <point x="331" y="510" type="line"/>
      <point x="392" y="501" type="line"/>
      <point x="183" y="249" type="line"/>
      <point x="183" y="501" type="line"/>
      <point x="242" y="510" type="line"/>
      <point x="242" y="550" type="line"/>
      <point x="35" y="550" type="line"/>
      <point x="35" y="510" type="line"/>
      <point x="94" y="501" type="line"/>
      <point x="94" y="48" type="line"/>
      <point x="34" y="39" type="line"/>
      <point x="34" y="0" type="line"/>
      <point x="250" y="0" type="line"/>
      <point x="250" y="39" type="line"/>
      <point x="183" y="48" type="line"/>
      <point x="183" y="185" type="line"/>
      <point x="254" y="267" type="line"/>
      <point x="316" y="197"/>
      <point x="394" y="0"/>
      <point x="428" y="0" type="curve" smooth="yes"/>
    </contour>
  </outline>
</glyph>
<glyph name="L" format="1">
  <advance width="470"/>
  <unicode hex="004C"/>
  <outline>
    <contour>
      <point x="34" y="0" type="line"/>
      <point x="433" y="0" type="line"/>
      <point x="458" y="173" type="line"/>
      <point x="408" y="181" type="line"/>
      <point x="364" y="54" type="line"/>
      <point x="183" y="48" type="line"/>
      <point x="183" y="501" type="line"/>
      <point x="255" y="510" type="line"/>
      <point x="255" y="550" type="line"/>
      <point x="36" y="550" type="line"/>
      <point x="36" y="510" type="line"/>
      <point x="94" y="501" type="line"/>
      <point x="94" y="48" type="line"/>
      <point x="34" y="39" type="line"/>
    </contour>
  </outline>
</glyph>
<glyph name="M" format="1">
  <advance width="745"/>
  <unicode hex="004D"/>
  <outline>
    <contour>
      <point x="0" y="0" type="line"/>
      <point x="198" y="0" type="line"/>
      <point x="198" y="39" type="line"/>
      <point x="126" y="48" type="line"/>
      <point x="154" y="376" type="line"/>
      <point x="167" y="518" type="line"/>
      <point x="207" y="380" type="line"/>
      <point x="336" y="24" type="line"/>
      <point x="390" y="24" type="line"/>
      <point x="502" y="415" type="line"/>
      <point x="528" y="517" type="line"/>
      <point x="545" y="376" type="line"/>
      <point x="591" y="48" type="line"/>
      <point x="526" y="39" type="line"/>
      <point x="526" y="0" type="line"/>
      <point x="746" y="0" type="line"/>
      <point x="746" y="39" type="line"/>
      <point x="682" y="48" type="line"/>
      <point x="609" y="501" type="line"/>
      <point x="692" y="510" type="line"/>
      <point x="692" y="550" type="line"/>
      <point x="488" y="550" type="line"/>
      <point x="394" y="218" type="line"/>
      <point x="376" y="132" type="line"/>
      <point x="354" y="218" type="line"/>
      <point x="243" y="550" type="line"/>
      <point x="40" y="550" type="line"/>
      <point x="40" y="510" type="line"/>
      <point x="118" y="501" type="line"/>
      <point x="64" y="48" type="line"/>
      <point x="0" y="39" type="line"/>
    </contour>
  </outline>
</glyph>
<glyph name="N" format="1">
  <advance width="593"/>
  <unicode hex="004E"/>
  <outline>
    <contour>
      <point x="35" y="0" type="line"/>
      <point x="220" y="0" type="line"/>
      <point x="220" y="39" type="line"/>
      <point x="149" y="48" type="line"/>
      <point x="149" y="461" type="line"/>
      <point x="204" y="362" type="line"/>
      <point x="450" y="0" type="line"/>
      <point x="516" y="0" type="line"/>
      <point x="516" y="501" type="line"/>
      <point x="576" y="510" type="line"/>
      <point x="576" y="550" type="line"/>
      <point x="397" y="550" type="line"/>
      <point x="397" y="510" type="line"/>
      <point x="461" y="501" type="line"/>
      <point x="461" y="119" type="line"/>
      <point x="420" y="197" type="line"/>
      <point x="182" y="550" type="line"/>
      <point x="35" y="550" type="line"/>
      <point x="35" y="510" type="line"/>
      <point x="94" y="501" type="line"/>
      <point x="94" y="48" type="line"/>
      <point x="35" y="39" type="line"/>
    </contour>
  </outline>
</glyph>
<glyph name="O" format="1">
  <advance width="536"/>
  <unicode hex="004F"/>
  <outline>
    <contour>
      <point x="264" y="-8" type="curve" smooth="yes"/>
      <point x="407" y="-6"/>
      <point x="513" y="108"/>
      <point x="513" y="282" type="curve" smooth="yes"/>
      <point x="513" y="448"/>
      <point x="434" y="556"/>
      <point x="274" y="556" type="curve" smooth="yes"/>
      <point x="130" y="557"/>
      <point x="24" y="446"/>
      <point x="24" y="272" type="curve" smooth="yes"/>
      <point x="24" y="104"/>
      <point x="104" y="-11"/>
    </contour>
    <contour>
      <point x="268" y="515" type="curve" smooth="yes"/>
      <point x="361" y="515"/>
      <point x="414" y="431"/>
      <point x="414" y="281" type="curve" smooth="yes"/>
      <point x="414" y="117"/>
      <point x="356" y="34"/>
      <point x="267" y="34" type="curve" smooth="yes"/>
      <point x="175" y="34"/>
      <point x="122" y="124"/>
      <point x="122" y="272" type="curve" smooth="yes"/>
      <point x="122" y="436"/>
      <point x="180" y="515"/>
    </contour>
  </outline>
</glyph>
<glyph name="P" format="1">
  <advance width="483"/>
  <unicode hex="0050"/>
  <outline>
    <contour>
      <point x="34" y="0" type="line"/>
      <point x="283" y="0" type="line"/>
      <point x="283" y="39" type="line"/>
      <point x="183" y="48" type="line"/>
      <point x="183" y="205" type="line"/>
      <point x="189" y="203"/>
      <point x="223" y="202"/>
      <point x="249" y="202" type="curve" smooth="yes"/>
      <point x="377" y="202"/>
      <point x="465" y="274"/>
      <point x="465" y="396" type="curve" smooth="yes"/>
      <point x="465" y="497"/>
      <point x="418" y="556"/>
      <point x="264" y="556" type="curve" smooth="yes"/>
      <point x="203" y="556"/>
      <point x="180" y="550"/>
      <point x="137" y="550" type="curve" smooth="yes"/>
      <point x="38" y="550" type="line"/>
      <point x="38" y="510" type="line"/>
      <point x="94" y="501" type="line"/>
      <point x="94" y="48" type="line"/>
      <point x="34" y="39" type="line"/>
    </contour>
    <contour>
      <point x="183" y="248" type="curve"/>
      <point x="183" y="509" type="line"/>
      <point x="199" y="510"/>
      <point x="216" y="514"/>
      <point x="248" y="514" type="curve" smooth="yes"/>
      <point x="332" y="514"/>
      <point x="373" y="480"/>
      <point x="373" y="395" type="curve" smooth="yes"/>
      <point x="373" y="279"/>
      <point x="314" y="245"/>
      <point x="249" y="245" type="curve" smooth="yes"/>
      <point x="217" y="245"/>
      <point x="195" y="246"/>
    </contour>
  </outline>
</glyph>
<glyph name="Q" format="1">
  <advance width="540"/>
  <unicode hex="0051"/>
  <outline>
    <contour>
      <point x="265" y="-8" type="curve" smooth="yes"/>
      <point x="283" y="-8"/>
      <point x="300" y="-6"/>
      <point x="316" y="-2" type="curve"/>
      <point x="406" y="-26"/>
      <point x="476" y="-146"/>
      <point x="596" y="-146" type="curve" smooth="yes"/>
      <point x="600" y="-146" type="line" smooth="yes"/>
      <point x="644" y="-146"/>
      <point x="667" y="-123"/>
      <point x="674" y="-116" type="curve"/>
      <point x="665" y="-82" type="line"/>
      <point x="659" y="-83"/>
      <point x="652" y="-84"/>
      <point x="640" y="-84" type="curve" smooth="yes"/>
      <point x="639" y="-84" type="line" smooth="yes"/>
      <point x="556" y="-84"/>
      <point x="468" y="5"/>
      <point x="372" y="17" type="curve"/>
      <point x="458" y="60"/>
      <point x="514" y="154"/>
      <point x="514" y="282" type="curve" smooth="yes"/>
      <point x="514" y="448"/>
      <point x="436" y="556"/>
      <point x="276" y="556" type="curve" smooth="yes"/>
      <point x="132" y="557"/>
      <point x="26" y="446"/>
      <point x="26" y="272" type="curve" smooth="yes"/>
      <point x="26" y="104"/>
      <point x="105" y="-11"/>
    </contour>
    <contour>
      <point x="271" y="515" type="curve" smooth="yes"/>
      <point x="363" y="515"/>
      <point x="416" y="431"/>
      <point x="416" y="281" type="curve" smooth="yes"/>
      <point x="416" y="117"/>
      <point x="358" y="34"/>
      <point x="269" y="34" type="curve" smooth="yes"/>
      <point x="177" y="34"/>
      <point x="124" y="124"/>
      <point x="124" y="272" type="curve" smooth="yes"/>
      <point x="124" y="436"/>
      <point x="182" y="515"/>
    </contour>
  </outline>
</glyph>
<glyph name="T" format="1">
  <advance width="515"/>
  <unicode hex="0054"/>
  <outline>
    <contour>
      <point x="117" y="0" type="line"/>
      <point x="407" y="0" type="line"/>
      <point x="407" y="39" type="line"/>
      <point x="303" y="48" type="line"/>
      <point x="303" y="508" type="line"/>
      <point x="421" y="504" type="line"/>
      <point x="446" y="349" type="line"/>
      <point x="498" y="349" type="line"/>
      <point x="489" y="550" type="line"/>
      <point x="25" y="550" type="line"/>
      <point x="13" y="349" type="line"/>
      <point x="66" y="349" type="line"/>
      <point x="93" y="504" type="line"/>
      <point x="212" y="508" type="line"/>
      <point x="212" y="48" type="line"/>
      <point x="117" y="39" type="line"/>
    </contour>
  </outline>
</glyph>
<glyph name="V" format="1">
  <advance width="501"/>
  <unicode hex="0056"/>
  <outline>
    <contour>
      <point x="222" y="-6" type="line"/>
      <point x="293" y="-6" type="line"/>
      <point x="466" y="501" type="line"/>
      <point x="514" y="510" type="line"/>
      <point x="514" y="550" type="line"/>
      <point x="344" y="550" type="line"/>
      <point x="344" y="510" type="line"/>
      <point x="402" y="501" type="line"/>
      <point x="294" y="159" type="line"/>
      <point x="272" y="74" type="line"/>
      <point x="247" y="158" type="line"/>
      <point x="129" y="501" type="line"/>
      <point x="195" y="510" type="line"/>
      <point x="195" y="550" type="line"/>
      <point x="-12" y="550" type="line"/>
      <point x="-12" y="510" type="line"/>
      <point x="33" y="501" type="line"/>
    </contour>
  </outline>
</glyph>
<glyph name="W" format="1">
  <advance width="744"/>
  <unicode hex="0057"/>
  <outline>
    <contour>
      <point x="189" y="-4" type="line"/>
      <point x="267" y="-4" type="line"/>
      <point x="373" y="357" type="line"/>
      <point x="483" y="-4" type="line"/>
      <point x="563" y="-4" type="line"/>
      <point x="710" y="501" type="line"/>
      <point x="758" y="510" type="line"/>
      <point x="758" y="550" type="line"/>
      <point x="580" y="550" type="line"/>
      <point x="580" y="510" type="line"/>
      <point x="651" y="501" type="line"/>
      <point x="559" y="160" type="line"/>
      <point x="541" y="56" type="line"/>
      <point x="518" y="160" type="line"/>
      <point x="420" y="501" type="line"/>
      <point x="491" y="510" type="line"/>
      <point x="491" y="550" type="line"/>
      <point x="277" y="550" type="line"/>
      <point x="277" y="510" type="line"/>
      <point x="328" y="501" type="line"/>
      <point x="348" y="438" type="line"/>
      <point x="265" y="160" type="line"/>
      <point x="244" y="63" type="line"/>
      <point x="224" y="160" type="line"/>
      <point x="125" y="501" type="line"/>
      <point x="192" y="510" type="line"/>
      <point x="192" y="550" type="line"/>
      <point x="-15" y="550" type="line"/>
      <point x="-15" y="510" type="line"/>
      <point x="33" y="501" type="line"/>
    </contour>
  </outline>
</glyph>
<glyph name="X" format="1">
  <advance width="529"/>
  <unicode hex="0058"/>
  <outline>
    <contour>
      <point x="5" y="0" type="line"/>
      <point x="204" y="0" type="line"/>
      <point x="204" y="39" type="line"/>
      <point x="132" y="48" type="line"/>
      <point x="247" y="241" type="line"/>
      <point x="368" y="48" type="line"/>
      <point x="303" y="39" type="line"/>
      <point x="303" y="0" type="line"/>
      <point x="529" y="0" type="line"/>
      <point x="529" y="39" type="line"/>
      <point x="473" y="48" type="line"/>
      <point x="309" y="290" type="line"/>
      <point x="459" y="501" type="line"/>
      <point x="517" y="510" type="line"/>
      <point x="517" y="550" type="line"/>
      <point x="332" y="550" type="line"/>
      <point x="332" y="510" type="line"/>
      <point x="396" y="501" type="line"/>
      <point x="284" y="320" type="line"/>
      <point x="174" y="501" type="line"/>
      <point x="241" y="510" type="line"/>
      <point x="241" y="550" type="line"/>
      <point x="15" y="550" type="line"/>
      <point x="15" y="510" type="line"/>
      <point x="68" y="501" type="line"/>
      <point x="221" y="274" type="line"/>
      <point x="68" y="48" type="line"/>
      <point x="5" y="39" type="line"/>
    </contour>
  </outline>
</glyph>
<glyph name="Y" format="1">
  <advance width="481"/>
  <unicode hex="0059"/>
  <outline>
    <contour>
      <point x="119" y="0" type="line"/>
      <point x="373" y="0" type="line"/>
      <point x="373" y="39" type="line"/>
      <point x="291" y="48" type="line"/>
      <point x="291" y="216" type="line"/>
      <point x="443" y="501" type="line"/>
      <point x="490" y="510" type="line"/>
      <point x="490" y="550" type="line"/>
      <point x="318" y="550" type="line"/>
      <point x="318" y="510" type="line"/>
      <point x="377" y="501" type="line"/>
      <point x="283" y="307" type="line"/>
      <point x="259" y="253" type="line"/>
      <point x="236" y="307" type="line"/>
      <point x="136" y="501" type="line"/>
      <point x="192" y="510" type="line"/>
      <point x="192" y="550" type="line"/>
      <point x="-10" y="550" type="line"/>
      <point x="-10" y="510" type="line"/>
      <point x="35" y="501" type="line"/>
      <point x="198" y="216" type="line"/>
      <point x="198" y="48" type="line"/>
      <point x="119" y="39" type="line"/>
    </contour>
  </outline>
</glyph>
<glyph name="Z" format="1">
  <advance width="485"/>
  <unicode hex="005A"/>
  <outline>
    <contour>
      <point x="44" y="0" type="line"/>
      <point x="440" y="0" type="line"/>
      <point x="457" y="160" type="line"/>
      <point x="409" y="170" type="line"/>
      <point x="370" y="55" type="line"/>
      <point x="124" y="42" type="line"/>
      <point x="173" y="94" type="line"/>
      <point x="452" y="518" type="line"/>
      <point x="434" y="553" type="line"/>
      <point x="71" y="553" type="line"/>
      <point x="54" y="412" type="line"/>
      <point x="101" y="406" type="line"/>
      <point x="140" y="503" type="line"/>
      <point x="349" y="512" type="line"/>
      <point x="306" y="461" type="line"/>
      <point x="22" y="36" type="line"/>
    </contour>
  </outline>
</glyph>
<glyph name="bracketleft" format="1">
  <advance width="316"/>
  <unicode hex="005B"/>
  <outline>
    <contour>
      <point x="69" y="-26" type="line"/>
      <point x="69" y="-91"/>
      <point x="92" y="-101"/>
      <point x="144" y="-101" type="curve" smooth="yes"/>
      <point x="183" y="-101"/>
      <point x="221" y="-95"/>
      <point x="252" y="-87" type="curve"/>
      <point x="252" y="-53" type="line"/>
      <point x="145" y="-53" type="line"/>
      <point x="145" y="548" type="line"/>
      <point x="252" y="548" type="line"/>
      <point x="252" y="582" type="line"/>
      <point x="222" y="588"/>
      <point x="185" y="596"/>
      <point x="144" y="596" type="curve" smooth="yes"/>
      <point x="92" y="596"/>
      <point x="69" y="585"/>
      <point x="69" y="520" type="curve" smooth="yes"/>
    </contour>
  </outline>
</glyph>
<glyph name="backslash" format="1">
  <advance width="319"/>
  <unicode hex="005C"/>
  <outline>
    <contour>
      <point x="287" y="-131" type="line"/>
      <point x="219" y="-131" type="line"/>
      <point x="21" y="579" type="line"/>
      <point x="89" y="579" type="line"/>
    </contour>
  </outline>
</glyph>
<glyph name="bracketright" format="1">
  <advance width="316"/>
  <unicode hex="005D"/>
  <outline>
    <contour>
      <point x="248" y="-26" type="line"/>
      <point x="248" y="-91"/>
      <point x="224" y="-101"/>
      <point x="172" y="-101" type="curve" smooth="yes"/>
      <point x="133" y="-101"/>
      <point x="95" y="-95"/>
      <point x="64" y="-87" type="curve"/>
      <point x="64" y="-53" type="line"/>
      <point x="171" y="-53" type="line"/>
      <point x="171" y="548" type="line"/>
      <point x="64" y="548" type="line"/>
      <point x="64" y="582" type="line"/>
      <point x="94" y="588"/>
      <point x="131" y="596"/>
      <point x="172" y="596" type="curve" smooth="yes"/>
      <point x="224" y="596"/>
      <point x="248" y="585"/>
      <point x="248" y="520" type="curve" smooth="yes"/>
    </contour>
  </outline>
</glyph>
<glyph name="asciicircum" format="1">
  <advance width="493"/>
  <unicode hex="005E"/>
  <outline>
    <contour>
      <point x="63" y="99" type="line"/>
      <point x="134" y="99" type="line"/>
      <point x="246" y="466" type="line"/>
      <point x="359" y="99" type="line"/>
      <point x="429" y="99" type="line"/>
      <point x="281" y="554" type="line"/>
      <point x="211" y="554" type="line"/>
    </contour>
  </outline>
</glyph>
<glyph name="underscore" format="1">
  <advance width="619"/>
  <unicode hex="005F"/>
  <outline>
    <contour>
      <point x="-7" y="-90" type="line"/>
      <point x="-7" y="-138" type="line"/>
      <point x="626" y="-138" type="line"/>
      <point x="626" y="-90" type="line"/>
    </contour>
  </outline>
</glyph>
<glyph name="grave" format="1">
  <advance width="247"/>
  <unicode hex="0060"/>
  <outline>
    <contour>
      <point x="140" y="481" type="curve"/>
      <point x="141" y="481" type="line"/>
      <point x="172" y="508" type="line"/>
      <point x="51" y="656" type="line"/>
      <point x="50" y="656" type="line"/>
      <point x="-7" y="606" type="line"/>
      <point x="15" y="571"/>
      <point x="107" y="494"/>
    </contour>
  </outline>
</glyph>
<glyph name="a" format="1">
  <advance width="416"/>
  <unicode hex="0061"/>
  <outline>
    <contour>
      <point x="30" y="112" type="curve" smooth="yes"/>
      <point x="30" y="30"/>
      <point x="88" y="-8"/>
      <point x="155" y="-8" type="curve" smooth="yes"/>
      <point x="216" y="-8"/>
      <point x="261" y="30"/>
      <point x="279" y="48" type="curve"/>
      <point x="279" y="28" type="line" smooth="yes"/>
      <point x="279" y="-3"/>
      <point x="290" y="-8"/>
      <point x="318" y="-8" type="curve" smooth="yes"/>
      <point x="344" y="-8"/>
      <point x="382" y="0"/>
      <point x="399" y="4" type="curve"/>
      <point x="399" y="40" type="line"/>
      <point x="356" y="40" type="line"/>
      <point x="356" y="273" type="line" smooth="yes"/>
      <point x="356" y="380"/>
      <point x="320" y="420"/>
      <point x="213" y="420" type="curve" smooth="yes"/>
      <point x="138" y="420"/>
      <point x="60" y="378"/>
      <point x="44" y="364" type="curve"/>
      <point x="64" y="324" type="line"/>
      <point x="90" y="337"/>
      <point x="136" y="359"/>
      <point x="193" y="359" type="curve" smooth="yes"/>
      <point x="258" y="359"/>
      <point x="275" y="332"/>
      <point x="275" y="270" type="curve" smooth="yes"/>
      <point x="275" y="250" type="line"/>
      <point x="142" y="248"/>
      <point x="30" y="211"/>
    </contour>
    <contour>
      <point x="193" y="47" type="curve" smooth="yes"/>
      <point x="153" y="47"/>
      <point x="123" y="69"/>
      <point x="123" y="122" type="curve" smooth="yes"/>
      <point x="123" y="170"/>
      <point x="168" y="208"/>
      <point x="275" y="208" type="curve"/>
      <point x="275" y="82" type="line"/>
      <point x="251" y="63"/>
      <point x="216" y="47"/>
    </contour>
  </outline>
</glyph>
<glyph name="b" format="1">
  <advance width="452"/>
  <unicode hex="0062"/>
  <outline>
    <contour>
      <point x="57" y="20" type="line"/>
      <point x="67" y="11"/>
      <point x="127" y="-8"/>
      <point x="206" y="-8" type="curve" smooth="yes"/>
      <point x="339" y="-8"/>
      <point x="422" y="93"/>
      <point x="422" y="220" type="curve" smooth="yes"/>
      <point x="422" y="363"/>
      <point x="345" y="422"/>
      <point x="261" y="422" type="curve" smooth="yes"/>
      <point x="208" y="422"/>
      <point x="167" y="398"/>
      <point x="143" y="374" type="curve"/>
      <point x="143" y="595" type="line"/>
      <point x="124" y="607" type="line"/>
      <point x="123" y="607" type="line"/>
      <point x="-1" y="592" type="line"/>
      <point x="-1" y="558" type="line"/>
      <point x="57" y="550" type="line"/>
    </contour>
    <contour>
      <point x="227" y="366" type="curve" smooth="yes"/>
      <point x="285" y="366"/>
      <point x="331" y="319"/>
      <point x="329" y="208" type="curve" smooth="yes"/>
      <point x="328" y="90"/>
      <point x="279" y="34"/>
      <point x="211" y="34" type="curve" smooth="yes"/>
      <point x="179" y="34"/>
      <point x="149" y="42"/>
      <point x="143" y="56" type="curve"/>
      <point x="143" y="327" type="line"/>
      <point x="157" y="343"/>
      <point x="188" y="366"/>
    </contour>
  </outline>
</glyph>
<glyph name="c" format="1">
  <advance width="380"/>
  <unicode hex="0063"/>
  <outline>
    <contour>
      <point x="26" y="201" type="curve" smooth="yes"/>
      <point x="26" y="83"/>
      <point x="87" y="-8"/>
      <point x="214" y="-8" type="curve" smooth="yes"/>
      <point x="273" y="-8"/>
      <point x="330" y="22"/>
      <point x="353" y="46" type="curve"/>
      <point x="338" y="80" type="line"/>
      <point x="316" y="65"/>
      <point x="279" y="48"/>
      <point x="233" y="48" type="curve" smooth="yes"/>
      <point x="167" y="48"/>
      <point x="117" y="104"/>
      <point x="118" y="225" type="curve" smooth="yes"/>
      <point x="118" y="329"/>
      <point x="159" y="379"/>
      <point x="221" y="379" type="curve" smooth="yes"/>
      <point x="246" y="379"/>
      <point x="269" y="374"/>
      <point x="274" y="358" type="curve" smooth="yes"/>
      <point x="291" y="284" type="line"/>
      <point x="344" y="284" type="line"/>
      <point x="348" y="400" type="line"/>
      <point x="326" y="406"/>
      <point x="287" y="422"/>
      <point x="235" y="422" type="curve" smooth="yes"/>
      <point x="100" y="422"/>
      <point x="25" y="325"/>
    </contour>
  </outline>
</glyph>
<glyph name="d" format="1">
  <advance width="461"/>
  <unicode hex="0064"/>
  <outline>
    <contour>
      <point x="191" y="-8" type="curve" smooth="yes"/>
      <point x="247" y="-8"/>
      <point x="291" y="19"/>
      <point x="317" y="50" type="curve"/>
      <point x="317" y="29" type="line" smooth="yes"/>
      <point x="317" y="-3"/>
      <point x="330" y="-8"/>
      <point x="356" y="-8" type="curve" smooth="yes"/>
      <point x="385" y="-8"/>
      <point x="416" y="0"/>
      <point x="437" y="4" type="curve"/>
      <point x="437" y="41" type="line"/>
      <point x="394" y="41" type="line"/>
      <point x="394" y="593" type="line"/>
      <point x="376" y="607" type="line"/>
      <point x="374" y="607" type="line"/>
      <point x="235" y="593" type="line"/>
      <point x="235" y="558" type="line"/>
      <point x="310" y="549" type="line"/>
      <point x="310" y="415" type="line"/>
      <point x="291" y="419"/>
      <point x="268" y="422"/>
      <point x="245" y="422" type="curve" smooth="yes"/>
      <point x="109" y="422"/>
      <point x="30" y="320"/>
      <point x="30" y="196" type="curve" smooth="yes"/>
      <point x="30" y="55"/>
      <point x="105" y="-8"/>
    </contour>
    <contour>
      <point x="225" y="48" type="curve" smooth="yes"/>
      <point x="168" y="48"/>
      <point x="121" y="94"/>
      <point x="122" y="208" type="curve"/>
      <point x="124" y="332"/>
      <point x="175" y="379"/>
      <point x="240" y="379" type="curve" smooth="yes"/>
      <point x="272" y="379"/>
      <point x="302" y="369"/>
      <point x="310" y="358" type="curve"/>
      <point x="310" y="87" type="line"/>
      <point x="295" y="69"/>
      <point x="263" y="48"/>
    </contour>
  </outline>
</glyph>
<glyph name="e" format="1">
  <advance width="404"/>
  <unicode hex="0065"/>
  <outline>
    <contour>
      <point x="217" y="-8" type="curve" smooth="yes"/>
      <point x="279" y="-8"/>
      <point x="342" y="21"/>
      <point x="368" y="47" type="curve"/>
      <point x="352" y="83" type="line"/>
      <point x="330" y="66"/>
      <point x="283" y="48"/>
      <point x="242" y="48" type="curve" smooth="yes"/>
      <point x="167" y="48"/>
      <point x="123" y="107"/>
      <point x="120" y="204" type="curve"/>
      <point x="370" y="204" type="line"/>
      <point x="374" y="222"/>
      <point x="375" y="243"/>
      <point x="375" y="275" type="curve"/>
      <point x="372" y="370"/>
      <point x="319" y="422"/>
      <point x="225" y="422" type="curve" smooth="yes"/>
      <point x="111" y="422"/>
      <point x="30" y="338"/>
      <point x="30" y="206" type="curve" smooth="yes"/>
      <point x="30" y="81"/>
      <point x="90" y="-8"/>
    </contour>
    <contour>
      <point x="211" y="378" type="curve" smooth="yes"/>
      <point x="267" y="378"/>
      <point x="287" y="336"/>
      <point x="288" y="277" type="curve" smooth="yes"/>
      <point x="288" y="267"/>
      <point x="287" y="255"/>
      <point x="287" y="245" type="curve"/>
      <point x="120" y="245" type="line"/>
      <point x="124" y="348"/>
      <point x="162" y="378"/>
    </contour>
  </outline>
</glyph>
<glyph name="f" format="1">
  <advance width="300"/>
  <unicode hex="0066"/>
  <outline>
    <contour>
      <point x="30" y="0" type="line"/>
      <point x="256" y="0" type="line"/>
      <point x="256" y="39" type="line"/>
      <point x="177" y="46" type="line"/>
      <point x="177" y="359" type="line"/>
      <point x="277" y="359" type="line"/>
      <point x="277" y="410" type="line"/>
      <point x="177" y="410" type="line"/>
      <point x="177" y="472" type="line" smooth="yes"/>
      <point x="177" y="528"/>
      <point x="194" y="545"/>
      <point x="239" y="545" type="curve" smooth="yes"/>
      <point x="272" y="545"/>
      <point x="302" y="534"/>
      <point x="310" y="526" type="curve"/>
      <point x="310" y="608" type="line"/>
      <point x="302" y="610"/>
      <point x="290" y="614"/>
      <point x="266" y="614" type="curve" smooth="yes"/>
      <point x="176" y="614"/>
      <point x="91" y="540"/>
      <point x="91" y="445" type="curve" smooth="yes"/>
      <point x="91" y="410" type="line"/>
      <point x="23" y="395" type="line"/>
      <point x="23" y="359" type="line"/>
      <point x="91" y="359" type="line"/>
      <point x="91" y="46" type="line"/>
      <point x="30" y="39" type="line"/>
    </contour>
  </outline>
</glyph>
<glyph name="g" format="1">
  <advance width="453"/>
  <unicode hex="0067"/>
  <outline>
    <contour>
      <point x="382" y="294" type="curve" smooth="yes"/>
      <point x="382" y="316"/>
      <point x="377" y="336"/>
      <point x="368" y="352" type="curve"/>
      <point x="446" y="352" type="line"/>
      <point x="446" y="423" type="line"/>
      <point x="423" y="423" type="line" smooth="yes"/>
      <point x="384" y="423"/>
      <point x="351" y="401"/>
      <point x="340" y="389" type="curve"/>
      <point x="312" y="412"/>
      <point x="271" y="422"/>
      <point x="219" y="422" type="curve"/>
      <point x="129" y="422"/>
      <point x="45" y="371"/>
      <point x="45" y="282" type="curve" smooth="yes"/>
      <point x="45" y="226"/>
      <point x="71" y="184"/>
      <point x="121" y="162" type="curve"/>
      <point x="88" y="145"/>
      <point x="64" y="111"/>
      <point x="64" y="76" type="curve" smooth="yes"/>
      <point x="64" y="47"/>
      <point x="76" y="27"/>
      <point x="99" y="15" type="curve"/>
      <point x="64" y="-3"/>
      <point x="30" y="-41"/>
      <point x="30" y="-87" type="curve" smooth="yes"/>
      <point x="30" y="-152"/>
      <point x="79" y="-200"/>
      <point x="214" y="-200" type="curve"/>
      <point x="215" y="-200" type="line"/>
      <point x="333" y="-200"/>
      <point x="437" y="-133"/>
      <point x="437" y="-45" type="curve" smooth="yes"/>
      <point x="437" y="25"/>
      <point x="392" y="63"/>
      <point x="294" y="63" type="curve" smooth="yes"/>
      <point x="213" y="63" type="line" smooth="yes"/>
      <point x="154" y="63"/>
      <point x="132" y="72"/>
      <point x="132" y="107" type="curve" smooth="yes"/>
      <point x="132" y="122"/>
      <point x="139" y="139"/>
      <point x="152" y="152" type="curve"/>
      <point x="169" y="148"/>
      <point x="188" y="146"/>
      <point x="210" y="146" type="curve"/>
      <point x="311" y="146"/>
      <point x="383" y="205"/>
    </contour>
    <contour>
      <point x="187" y="-2" type="curve"/>
      <point x="267" y="-2" type="line" smooth="yes"/>
      <point x="336" y="-2"/>
      <point x="352" y="-23"/>
      <point x="352" y="-66" type="curve" smooth="yes"/>
      <point x="352" y="-123"/>
      <point x="286" y="-154"/>
      <point x="222" y="-154" type="curve" smooth="yes"/>
      <point x="222" y="-154" type="line" smooth="yes"/>
      <point x="142" y="-154"/>
      <point x="114" y="-121"/>
      <point x="114" y="-68" type="curve" smooth="yes"/>
      <point x="114" y="-38"/>
      <point x="125" y="-15"/>
      <point x="139" y="1" type="curve"/>
      <point x="153" y="-1"/>
      <point x="169" y="-2"/>
    </contour>
    <contour>
      <point x="295" y="286" type="curve" smooth="yes"/>
      <point x="295" y="225"/>
      <point x="273" y="189"/>
      <point x="217" y="189" type="curve"/>
      <point x="156" y="189"/>
      <point x="132" y="230"/>
      <point x="132" y="289" type="curve" smooth="yes"/>
      <point x="132" y="356"/>
      <point x="165" y="381"/>
      <point x="214" y="381" type="curve"/>
      <point x="268" y="381"/>
      <point x="295" y="352"/>
    </contour>
  </outline>
</glyph>
<glyph name="h" format="1">
  <advance width="492"/>
  <unicode hex="0068"/>
  <outline>
    <contour>
      <point x="30" y="0" type="line"/>
      <point x="209" y="0" type="line"/>
      <point x="209" y="39" type="line"/>
      <point x="160" y="46" type="line"/>
      <point x="160" y="324" type="line"/>
      <point x="185" y="345"/>
      <point x="226" y="364"/>
      <point x="263" y="364" type="curve" smooth="yes"/>
      <point x="325" y="364"/>
      <point x="335" y="329"/>
      <point x="335" y="251" type="curve" smooth="yes"/>
      <point x="335" y="46" type="line"/>
      <point x="289" y="39" type="line"/>
      <point x="289" y="0" type="line"/>
      <point x="473" y="0" type="line"/>
      <point x="473" y="39" type="line"/>
      <point x="421" y="46" type="line"/>
      <point x="421" y="252" type="line" smooth="yes"/>
      <point x="421" y="369"/>
      <point x="396" y="421"/>
      <point x="302" y="421" type="curve" smooth="yes"/>
      <point x="239" y="421"/>
      <point x="181" y="384"/>
      <point x="155" y="362" type="curve"/>
      <point x="159" y="426" type="line"/>
      <point x="159" y="595" type="line"/>
      <point x="140" y="607" type="line"/>
      <point x="139" y="607" type="line"/>
      <point x="13" y="592" type="line"/>
      <point x="13" y="557" type="line"/>
      <point x="73" y="549" type="line"/>
      <point x="73" y="46" type="line"/>
      <point x="30" y="39" type="line"/>
    </contour>
  </outline>
</glyph>
<glyph name="i" format="1">
  <advance width="249"/>
  <unicode hex="0069"/>
  <outline>
    <contour>
      <point x="30" y="0" type="line"/>
      <point x="230" y="0" type="line"/>
      <point x="230" y="39" type="line"/>
      <point x="173" y="46" type="line"/>
      <point x="173" y="407" type="line"/>
      <point x="155" y="420" type="line"/>
      <point x="154" y="420" type="line"/>
      <point x="34" y="406" type="line"/>
      <point x="34" y="363" type="line"/>
      <point x="87" y="349" type="line"/>
      <point x="87" y="46" type="line"/>
      <point x="30" y="39" type="line"/>
    </contour>
    <contour>
      <point x="120" y="488" type="curve"/>
      <point x="160" y="488"/>
      <point x="178" y="515"/>
      <point x="178" y="547" type="curve" smooth="yes"/>
      <point x="178" y="573"/>
      <point x="160" y="597"/>
      <point x="127" y="597" type="curve"/>
      <point x="92" y="597"/>
      <point x="72" y="569"/>
      <point x="72" y="539" type="curve" smooth="yes"/>
      <point x="72" y="511"/>
      <point x="92" y="488"/>
    </contour>
  </outline>
</glyph>
<glyph name="j" format="1">
  <advance width="232"/>
  <unicode hex="006A"/>
  <outline>
    <contour>
      <point x="86" y="24" type="line"/>
      <point x="86" y="-57"/>
      <point x="74" y="-116"/>
      <point x="33" y="-131" type="curve" smooth="yes"/>
      <point x="17" y="-137"/>
      <point x="0" y="-139"/>
      <point x="-7" y="-139" type="curve"/>
      <point x="-3" y="-177" type="line"/>
      <point x="2" y="-180"/>
      <point x="31" y="-181"/>
      <point x="41" y="-180" type="curve" smooth="yes"/>
      <point x="105" y="-175"/>
      <point x="170" y="-117"/>
      <point x="170" y="6" type="curve" smooth="yes"/>
      <point x="170" y="407" type="line"/>
      <point x="153" y="420" type="line"/>
      <point x="151" y="420" type="line"/>
      <point x="32" y="406" type="line"/>
      <point x="32" y="361" type="line"/>
      <point x="85" y="346" type="line"/>
    </contour>
    <contour>
      <point x="121" y="488" type="curve"/>
      <point x="160" y="488"/>
      <point x="178" y="515"/>
      <point x="178" y="547" type="curve" smooth="yes"/>
      <point x="178" y="573"/>
      <point x="160" y="597"/>
      <point x="128" y="597" type="curve"/>
      <point x="92" y="597"/>
      <point x="72" y="569"/>
      <point x="72" y="539" type="curve" smooth="yes"/>
      <point x="72" y="511"/>
      <point x="92" y="488"/>
    </contour>
  </outline>
</glyph>
<glyph name="k" format="1">
  <advance width="453"/>
  <unicode hex="006B"/>
  <outline>
    <contour>
      <point x="27" y="0" type="line"/>
      <point x="210" y="0" type="line"/>
      <point x="210" y="39" type="line"/>
      <point x="158" y="46" type="line"/>
      <point x="158" y="102" type="line"/>
      <point x="157" y="141" type="line"/>
      <point x="229" y="213" type="line"/>
      <point x="327" y="46" type="line"/>
      <point x="284" y="39" type="line"/>
      <point x="284" y="0" type="line"/>
      <point x="469" y="0" type="line"/>
      <point x="469" y="39" type="line"/>
      <point x="424" y="46" type="line"/>
      <point x="287" y="264" type="line"/>
      <point x="389" y="363" type="line"/>
      <point x="448" y="374" type="line"/>
      <point x="448" y="411" type="line"/>
      <point x="263" y="411" type="line"/>
      <point x="263" y="374" type="line"/>
      <point x="319" y="364" type="line"/>
      <point x="157" y="196" type="line"/>
      <point x="159" y="237" type="line"/>
      <point x="159" y="595" type="line"/>
      <point x="141" y="607" type="line"/>
      <point x="140" y="607" type="line"/>
      <point x="16" y="592" type="line"/>
      <point x="16" y="557" type="line"/>
      <point x="73" y="549" type="line"/>
      <point x="73" y="46" type="line"/>
      <point x="27" y="39" type="line"/>
    </contour>
  </outline>
</glyph>
<glyph name="l" format="1">
  <advance width="249"/>
  <unicode hex="006C"/>
  <outline>
    <contour>
      <point x="26" y="0" type="line"/>
      <point x="229" y="0" type="line"/>
      <point x="229" y="39" type="line"/>
      <point x="169" y="46" type="line"/>
      <point x="169" y="595" type="line"/>
      <point x="152" y="607" type="line"/>
      <point x="150" y="607" type="line"/>
      <point x="25" y="592" type="line"/>
      <point x="25" y="557" type="line"/>
      <point x="84" y="549" type="line"/>
      <point x="84" y="46" type="line"/>
      <point x="26" y="39" type="line"/>
    </contour>
  </outline>
</glyph>
<glyph name="m" format="1">
  <advance width="743"/>
  <unicode hex="006D"/>
  <outline>
    <contour>
      <point x="36" y="0" type="line"/>
      <point x="214" y="0" type="line"/>
      <point x="214" y="39" type="line"/>
      <point x="167" y="46" type="line"/>
      <point x="167" y="324" type="line"/>
      <point x="191" y="344"/>
      <point x="232" y="364"/>
      <point x="268" y="364" type="curve" smooth="yes"/>
      <point x="328" y="364"/>
      <point x="339" y="329"/>
      <point x="339" y="251" type="curve" smooth="yes"/>
      <point x="339" y="46" type="line"/>
      <point x="292" y="39" type="line"/>
      <point x="292" y="0" type="line"/>
      <point x="476" y="0" type="line"/>
      <point x="476" y="39" type="line"/>
      <point x="425" y="46" type="line"/>
      <point x="425" y="251" type="line" smooth="yes"/>
      <point x="425" y="282"/>
      <point x="423" y="308"/>
      <point x="419" y="331" type="curve"/>
      <point x="441" y="346"/>
      <point x="478" y="365"/>
      <point x="511" y="365" type="curve" smooth="yes"/>
      <point x="574" y="365"/>
      <point x="587" y="328"/>
      <point x="587" y="250" type="curve" smooth="yes"/>
      <point x="587" y="46" type="line"/>
      <point x="544" y="39" type="line"/>
      <point x="544" y="0" type="line"/>
      <point x="724" y="0" type="line"/>
      <point x="724" y="39" type="line"/>
      <point x="673" y="46" type="line"/>
      <point x="673" y="252" type="line" smooth="yes"/>
      <point x="673" y="369"/>
      <point x="646" y="421"/>
      <point x="553" y="421" type="curve" smooth="yes"/>
      <point x="500" y="421"/>
      <point x="437" y="391"/>
      <point x="409" y="365" type="curve"/>
      <point x="392" y="403"/>
      <point x="361" y="421"/>
      <point x="307" y="421" type="curve" smooth="yes"/>
      <point x="259" y="421"/>
      <point x="189" y="390"/>
      <point x="157" y="359" type="curve"/>
      <point x="157" y="377" type="line"/>
      <point x="157" y="407" type="line"/>
      <point x="141" y="420" type="line"/>
      <point x="139" y="420" type="line"/>
      <point x="28" y="407" type="line"/>
      <point x="28" y="363" type="line"/>
      <point x="80" y="349" type="line"/>
      <point x="80" y="46" type="line"/>
      <point x="36" y="39" type="line"/>
    </contour>
  </outline>
</glyph>
<glyph name="n" format="1">
  <advance width="497"/>
  <unicode hex="006E"/>
  <outline>
    <contour>
      <point x="34" y="0" type="line"/>
      <point x="215" y="0" type="line"/>
      <point x="215" y="39" type="line"/>
      <point x="167" y="46" type="line"/>
      <point x="167" y="323" type="line"/>
      <point x="191" y="343"/>
      <point x="232" y="364"/>
      <point x="269" y="364" type="curve" smooth="yes"/>
      <point x="330" y="364"/>
      <point x="341" y="329"/>
      <point x="341" y="251" type="curve" smooth="yes"/>
      <point x="341" y="46" type="line"/>
      <point x="296" y="39" type="line"/>
      <point x="296" y="0" type="line"/>
      <point x="478" y="0" type="line"/>
      <point x="478" y="40" type="line"/>
      <point x="428" y="46" type="line"/>
      <point x="428" y="251" type="line" smooth="yes"/>
      <point x="428" y="371"/>
      <point x="402" y="421"/>
      <point x="309" y="421" type="curve" smooth="yes"/>
      <point x="252" y="421"/>
      <point x="189" y="388"/>
      <point x="157" y="360" type="curve"/>
      <point x="157" y="377" type="line"/>
      <point x="157" y="407" type="line"/>
      <point x="141" y="420" type="line"/>
      <point x="139" y="420" type="line"/>
      <point x="28" y="407" type="line"/>
      <point x="28" y="363" type="line"/>
      <point x="80" y="349" type="line"/>
      <point x="80" y="46" type="line"/>
      <point x="34" y="39" type="line"/>
    </contour>
  </outline>
</glyph>
<glyph name="o" format="1">
  <advance width="445"/>
  <unicode hex="006F"/>
  <outline>
    <contour>
      <point x="223" y="36" type="curve" smooth="yes"/>
      <point x="151" y="36"/>
      <point x="123" y="109"/>
      <point x="123" y="213" type="curve" smooth="yes"/>
      <point x="123" y="324"/>
      <point x="158" y="378"/>
      <point x="222" y="378" type="curve" smooth="yes"/>
      <point x="294" y="378"/>
      <point x="321" y="304"/>
      <point x="321" y="201" type="curve" smooth="yes"/>
      <point x="321" y="91"/>
      <point x="286" y="36"/>
    </contour>
    <contour>
      <point x="29" y="206" type="curve" smooth="yes"/>
      <point x="29" y="83"/>
      <point x="89" y="-8"/>
      <point x="217" y="-8" type="curve" smooth="yes"/>
      <point x="319" y="-8"/>
      <point x="416" y="66"/>
      <point x="416" y="208" type="curve" smooth="yes"/>
      <point x="416" y="331"/>
      <point x="355" y="422"/>
      <point x="227" y="422" type="curve" smooth="yes"/>
      <point x="125" y="422"/>
      <point x="29" y="346"/>
    </contour>
  </outline>
</glyph>
<glyph name="p" format="1">
  <advance width="467"/>
  <unicode hex="0070"/>
  <outline>
    <contour>
      <point x="437" y="220" type="curve" smooth="yes"/>
      <point x="437" y="363"/>
      <point x="361" y="422"/>
      <point x="276" y="422" type="curve" smooth="yes"/>
      <point x="218" y="422"/>
      <point x="174" y="391"/>
      <point x="150" y="365" type="curve"/>
      <point x="150" y="407" type="line"/>
      <point x="134" y="420" type="line"/>
      <point x="133" y="420" type="line"/>
      <point x="22" y="407" type="line"/>
      <point x="22" y="363" type="line"/>
      <point x="74" y="349" type="line"/>
      <point x="74" y="-132" type="line"/>
      <point x="22" y="-141" type="line"/>
      <point x="22" y="-179" type="line"/>
      <point x="233" y="-179" type="line"/>
      <point x="233" y="-141" type="line"/>
      <point x="159" y="-132" type="line"/>
      <point x="159" y="-60" type="line"/>
      <point x="157" y="2" type="line"/>
      <point x="173" y="-4"/>
      <point x="202" y="-8"/>
      <point x="224" y="-8" type="curve" smooth="yes"/>
      <point x="358" y="-8"/>
      <point x="437" y="96"/>
    </contour>
    <contour>
      <point x="242" y="367" type="curve" smooth="yes"/>
      <point x="300" y="367"/>
      <point x="346" y="320"/>
      <point x="346" y="208" type="curve"/>
      <point x="344" y="84"/>
      <point x="292" y="33"/>
      <point x="227" y="33" type="curve" smooth="yes"/>
      <point x="194" y="33"/>
      <point x="166" y="44"/>
      <point x="159" y="55" type="curve"/>
      <point x="159" y="331" type="line"/>
      <point x="174" y="348"/>
      <point x="205" y="367"/>
    </contour>
  </outline>
</glyph>
<glyph name="q" format="1">
  <advance width="452"/>
  <unicode hex="0071"/>
  <outline>
    <contour>
      <point x="192" y="-8" type="curve" smooth="yes"/>
      <point x="244" y="-8"/>
      <point x="286" y="17"/>
      <point x="312" y="43" type="curve"/>
      <point x="310" y="-17" type="line"/>
      <point x="310" y="-133" type="line"/>
      <point x="229" y="-142" type="line"/>
      <point x="229" y="-179" type="line"/>
      <point x="445" y="-179" type="line"/>
      <point x="445" y="-142" type="line"/>
      <point x="394" y="-133" type="line"/>
      <point x="394" y="407" type="line"/>
      <point x="380" y="420" type="line"/>
      <point x="379" y="420" type="line"/>
      <point x="335" y="409" type="line"/>
      <point x="312" y="415"/>
      <point x="278" y="422"/>
      <point x="245" y="422" type="curve" smooth="yes"/>
      <point x="109" y="422"/>
      <point x="30" y="322"/>
      <point x="30" y="198" type="curve" smooth="yes"/>
      <point x="30" y="55"/>
      <point x="107" y="-8"/>
    </contour>
    <contour>
      <point x="226" y="46" type="curve" smooth="yes"/>
      <point x="168" y="46"/>
      <point x="121" y="96"/>
      <point x="122" y="209" type="curve" smooth="yes"/>
      <point x="124" y="334"/>
      <point x="175" y="382"/>
      <point x="240" y="382" type="curve" smooth="yes"/>
      <point x="273" y="382"/>
      <point x="304" y="371"/>
      <point x="310" y="360" type="curve"/>
      <point x="310" y="82" type="line"/>
      <point x="295" y="67"/>
      <point x="265" y="46"/>
    </contour>
  </outline>
</glyph>
<glyph name="r" format="1">
  <advance width="342"/>
  <unicode hex="0072"/>
  <outline>
    <contour>
      <point x="34" y="0" type="line"/>
      <point x="266" y="0" type="line"/>
      <point x="266" y="38" type="line"/>
      <point x="174" y="45" type="line"/>
      <point x="174" y="305" type="line"/>
      <point x="193" y="319"/>
      <point x="229" y="338"/>
      <point x="281" y="338" type="curve" smooth="yes"/>
      <point x="302" y="338"/>
      <point x="317" y="333"/>
      <point x="326" y="327" type="curve"/>
      <point x="326" y="418" type="line"/>
      <point x="320" y="421"/>
      <point x="312" y="422"/>
      <point x="301" y="422" type="curve" smooth="yes"/>
      <point x="224" y="422"/>
      <point x="172" y="352"/>
      <point x="163" y="334" type="curve"/>
      <point x="162" y="334" type="line"/>
      <point x="162" y="383" type="line"/>
      <point x="162" y="407" type="line"/>
      <point x="145" y="420" type="line"/>
      <point x="143" y="420" type="line"/>
      <point x="38" y="407" type="line"/>
      <point x="38" y="363" type="line"/>
      <point x="88" y="349" type="line"/>
      <point x="88" y="45" type="line"/>
      <point x="34" y="39" type="line"/>
    </contour>
  </outline>
</glyph>
<glyph name="s" format="1">
  <advance width="377"/>
  <unicode hex="0073"/>
  <outline>
    <contour>
      <point x="41" y="22" type="line"/>
      <point x="66" y="12"/>
      <point x="126" y="-8"/>
      <point x="185" y="-8" type="curve" smooth="yes"/>
      <point x="288" y="-8"/>
      <point x="346" y="41"/>
      <point x="346" y="113" type="curve" smooth="yes"/>
      <point x="346" y="188"/>
      <point x="284" y="217"/>
      <point x="219" y="244" type="curve" smooth="yes"/>
      <point x="171" y="265"/>
      <point x="123" y="279"/>
      <point x="123" y="328" type="curve" smooth="yes"/>
      <point x="123" y="360"/>
      <point x="151" y="381"/>
      <point x="195" y="380" type="curve" smooth="yes"/>
      <point x="225" y="380"/>
      <point x="251" y="370"/>
      <point x="256" y="359" type="curve"/>
      <point x="273" y="305" type="line"/>
      <point x="322" y="305" type="line"/>
      <point x="322" y="398" type="line"/>
      <point x="302" y="403"/>
      <point x="262" y="420"/>
      <point x="197" y="420" type="curve" smooth="yes"/>
      <point x="108" y="420"/>
      <point x="44" y="376"/>
      <point x="44" y="310" type="curve" smooth="yes"/>
      <point x="44" y="243"/>
      <point x="80" y="207"/>
      <point x="152" y="179" type="curve" smooth="yes"/>
      <point x="222" y="150"/>
      <point x="264" y="131"/>
      <point x="264" y="90" type="curve" smooth="yes"/>
      <point x="264" y="57"/>
      <point x="244" y="33"/>
      <point x="187" y="33" type="curve" smooth="yes"/>
      <point x="152" y="33"/>
      <point x="117" y="47"/>
      <point x="108" y="61" type="curve"/>
      <point x="94" y="118" type="line"/>
      <point x="41" y="118" type="line"/>
    </contour>
  </outline>
</glyph>
<glyph name="u" format="1">
  <advance width="471"/>
  <unicode hex="0075"/>
  <outline>
    <contour>
      <point x="371" y="-7" type="curve" smooth="yes"/>
      <point x="404" y="-7"/>
      <point x="429" y="0"/>
      <point x="446" y="4" type="curve"/>
      <point x="446" y="41" type="line"/>
      <point x="403" y="41" type="line"/>
      <point x="403" y="411" type="line"/>
      <point x="385" y="420" type="line"/>
      <point x="266" y="410" type="line"/>
      <point x="266" y="375" type="line"/>
      <point x="318" y="362" type="line"/>
      <point x="318" y="84" type="line"/>
      <point x="300" y="69"/>
      <point x="266" y="47"/>
      <point x="224" y="47" type="curve" smooth="yes"/>
      <point x="167" y="47"/>
      <point x="153" y="76"/>
      <point x="153" y="154" type="curve" smooth="yes"/>
      <point x="153" y="411" type="line"/>
      <point x="137" y="420" type="line"/>
      <point x="27" y="410" type="line"/>
      <point x="27" y="374" type="line"/>
      <point x="67" y="362" type="line"/>
      <point x="67" y="151" type="line"/>
      <point x="67" y="38"/>
      <point x="103" y="-8"/>
      <point x="195" y="-8" type="curve" smooth="yes"/>
      <point x="248" y="-8"/>
      <point x="301" y="25"/>
      <point x="327" y="52" type="curve"/>
      <point x="327" y="30" type="line"/>
      <point x="327" y="3"/>
      <point x="342" y="-7"/>
    </contour>
  </outline>
</glyph>
<glyph name="v" format="1">
  <advance width="422"/>
  <unicode hex="0076"/>
  <outline>
    <contour>
      <point x="179" y="-6" type="line"/>
      <point x="250" y="-6" type="line"/>
      <point x="390" y="364" type="line"/>
      <point x="428" y="373" type="line"/>
      <point x="428" y="411" type="line"/>
      <point x="274" y="411" type="line"/>
      <point x="274" y="373" type="line"/>
      <point x="324" y="364" type="line"/>
      <point x="253" y="153" type="line"/>
      <point x="228" y="64" type="line"/>
      <point x="199" y="156" type="line"/>
      <point x="127" y="364" type="line"/>
      <point x="179" y="373" type="line"/>
      <point x="179" y="411" type="line"/>
      <point x="-2" y="411" type="line"/>
      <point x="-2" y="373" type="line"/>
      <point x="31" y="364" type="line"/>
    </contour>
  </outline>
</glyph>
<glyph name="w" format="1">
  <advance width="627"/>
  <unicode hex="0077"/>
  <outline>
    <contour>
      <point x="150" y="-6" type="line"/>
      <point x="224" y="-6" type="line"/>
      <point x="299" y="252" type="line"/>
      <point x="314" y="341" type="line"/>
      <point x="331" y="252" type="line"/>
      <point x="409" y="-6" type="line"/>
      <point x="485" y="-6" type="line"/>
      <point x="599" y="364" type="line"/>
      <point x="636" y="373" type="line"/>
      <point x="636" y="411" type="line"/>
      <point x="483" y="411" type="line"/>
      <point x="483" y="373" type="line"/>
      <point x="539" y="364" type="line"/>
      <point x="482" y="153" type="line"/>
      <point x="460" y="63" type="line"/>
      <point x="441" y="154" type="line"/>
      <point x="366" y="411" type="line"/>
      <point x="288" y="411" type="line"/>
      <point x="217" y="154" type="line"/>
      <point x="198" y="63" type="line"/>
      <point x="177" y="153" type="line"/>
      <point x="118" y="364" type="line"/>
      <point x="174" y="373" type="line"/>
      <point x="174" y="411" type="line"/>
      <point x="-5" y="411" type="line"/>
      <point x="-5" y="373" type="line"/>
      <point x="32" y="365" type="line"/>
    </contour>
  </outline>
</glyph>
<glyph name="x" format="1">
  <advance width="442"/>
  <unicode hex="0078"/>
  <outline>
    <contour>
      <point x="4" y="0" type="line"/>
      <point x="179" y="0" type="line"/>
      <point x="179" y="38" type="line"/>
      <point x="119" y="46" type="line"/>
      <point x="186" y="142" type="line"/>
      <point x="205" y="174" type="line"/>
      <point x="228" y="142" type="line"/>
      <point x="292" y="46" type="line"/>
      <point x="245" y="38" type="line"/>
      <point x="245" y="0" type="line"/>
      <point x="442" y="0" type="line"/>
      <point x="442" y="38" type="line"/>
      <point x="399" y="45" type="line"/>
      <point x="270" y="214" type="line"/>
      <point x="390" y="364" type="line"/>
      <point x="434" y="373" type="line"/>
      <point x="434" y="411" type="line"/>
      <point x="276" y="411" type="line"/>
      <point x="276" y="373" type="line"/>
      <point x="328" y="364" type="line"/>
      <point x="262" y="273" type="line"/>
      <point x="242" y="242" type="line"/>
      <point x="222" y="274" type="line"/>
      <point x="158" y="364" type="line"/>
      <point x="208" y="373" type="line"/>
      <point x="208" y="411" type="line"/>
      <point x="13" y="411" type="line"/>
      <point x="13" y="373" type="line"/>
      <point x="53" y="364" type="line"/>
      <point x="177" y="204" type="line"/>
      <point x="53" y="46" type="line"/>
      <point x="4" y="38" type="line"/>
    </contour>
  </outline>
</glyph>
<glyph name="y" format="1">
  <advance width="425"/>
  <unicode hex="0079"/>
  <outline>
    <contour>
      <point x="95" y="-184" type="curve" smooth="yes"/>
      <point x="180" y="-184"/>
      <point x="218" y="-124"/>
      <point x="262" y="-11" type="curve"/>
      <point x="272" y="12"/>
      <point x="320" y="150"/>
      <point x="389" y="365" type="curve"/>
      <point x="427" y="373" type="line"/>
      <point x="427" y="411" type="line"/>
      <point x="273" y="411" type="line"/>
      <point x="273" y="373" type="line"/>
      <point x="322" y="365" type="line"/>
      <point x="258" y="150" type="line"/>
      <point x="229" y="48" type="line"/>
      <point x="198" y="149" type="line"/>
      <point x="128" y="364" type="line"/>
      <point x="183" y="373" type="line"/>
      <point x="183" y="411" type="line"/>
      <point x="-4" y="411" type="line"/>
      <point x="-4" y="373" type="line"/>
      <point x="31" y="364" type="line"/>
      <point x="169" y="0" type="line"/>
      <point x="207" y="0" type="line"/>
      <point x="174" y="-95"/>
      <point x="139" y="-116"/>
      <point x="95" y="-116" type="curve" smooth="yes"/>
      <point x="80" y="-116"/>
      <point x="58" y="-113"/>
      <point x="51" y="-109" type="curve"/>
      <point x="51" y="-178" type="line"/>
      <point x="59" y="-182"/>
      <point x="80" y="-184"/>
    </contour>
  </outline>
</glyph>
<glyph name="z" format="1">
  <advance width="412"/>
  <unicode hex="007A"/>
  <outline>
    <contour>
      <point x="20" y="34" type="line"/>
      <point x="36" y="0" type="line"/>
      <point x="373" y="0" type="line"/>
      <point x="384" y="128" type="line"/>
      <point x="338" y="132" type="line"/>
      <point x="310" y="51" type="line"/>
      <point x="121" y="43" type="line"/>
      <point x="170" y="91" type="line"/>
      <point x="381" y="379" type="line"/>
      <point x="365" y="411" type="line"/>
      <point x="49" y="411" type="line"/>
      <point x="49" y="291" type="line"/>
      <point x="98" y="291" type="line"/>
      <point x="112" y="362" type="line"/>
      <point x="284" y="368" type="line"/>
      <point x="235" y="318" type="line"/>
    </contour>
  </outline>
</glyph>
<glyph name="braceleft" format="1">
  <advance width="376"/>
  <unicode hex="007B"/>
  <outline>
    <contour>
      <point x="106" y="-8" type="curve" smooth="yes"/>
      <point x="106" y="-67"/>
      <point x="134" y="-102"/>
      <point x="223" y="-102" type="curve" smooth="yes"/>
      <point x="260" y="-102"/>
      <point x="292" y="-96"/>
      <point x="321" y="-88" type="curve"/>
      <point x="321" y="-51" type="line"/>
      <point x="260" y="-52" type="line" smooth="yes"/>
      <point x="217" y="-52"/>
      <point x="189" y="-43"/>
      <point x="189" y="7" type="curve" smooth="yes"/>
      <point x="189" y="51"/>
      <point x="226" y="115"/>
      <point x="226" y="167" type="curve" smooth="yes"/>
      <point x="226" y="217"/>
      <point x="186" y="242"/>
      <point x="133" y="249" type="curve"/>
      <point x="186" y="257"/>
      <point x="226" y="279"/>
      <point x="226" y="329" type="curve" smooth="yes"/>
      <point x="226" y="381"/>
      <point x="189" y="445"/>
      <point x="189" y="489" type="curve" smooth="yes"/>
      <point x="189" y="538"/>
      <point x="218" y="548"/>
      <point x="260" y="548" type="curve" smooth="yes"/>
      <point x="321" y="547" type="line"/>
      <point x="321" y="584" type="line"/>
      <point x="292" y="591"/>
      <point x="260" y="597"/>
      <point x="223" y="597" type="curve" smooth="yes"/>
      <point x="134" y="597"/>
      <point x="106" y="563"/>
      <point x="106" y="503" type="curve" smooth="yes"/>
      <point x="106" y="434"/>
      <point x="155" y="389"/>
      <point x="155" y="330" type="curve" smooth="yes"/>
      <point x="155" y="296"/>
      <point x="148" y="279"/>
      <point x="60" y="280" type="curve"/>
      <point x="60" y="222" type="line"/>
      <point x="148" y="223"/>
      <point x="155" y="199"/>
      <point x="155" y="165" type="curve" smooth="yes"/>
      <point x="155" y="106"/>
      <point x="106" y="61"/>
    </contour>
  </outline>
</glyph>
<glyph name="bar" format="1">
  <advance width="313"/>
  <unicode hex="007C"/>
  <outline>
    <contour>
      <point x="124" y="-67" type="line"/>
      <point x="190" y="-67" type="line"/>
      <point x="190" y="644" type="line"/>
      <point x="124" y="644" type="line"/>
    </contour>
  </outline>
</glyph>
<glyph name="braceright" format="1">
  <advance width="376"/>
  <unicode hex="007D"/>
  <outline>
    <contour>
      <point x="270" y="-8" type="curve" smooth="yes"/>
      <point x="270" y="-67"/>
      <point x="243" y="-102"/>
      <point x="154" y="-102" type="curve" smooth="yes"/>
      <point x="116" y="-102"/>
      <point x="85" y="-96"/>
      <point x="56" y="-88" type="curve"/>
      <point x="56" y="-51" type="line"/>
      <point x="117" y="-52" type="line" smooth="yes"/>
      <point x="159" y="-52"/>
      <point x="187" y="-43"/>
      <point x="187" y="7" type="curve" smooth="yes"/>
      <point x="187" y="51"/>
      <point x="150" y="115"/>
      <point x="150" y="167" type="curve" smooth="yes"/>
      <point x="150" y="217"/>
      <point x="191" y="242"/>
      <point x="243" y="249" type="curve"/>
      <point x="191" y="257"/>
      <point x="150" y="279"/>
      <point x="150" y="329" type="curve" smooth="yes"/>
      <point x="150" y="381"/>
      <point x="187" y="445"/>
      <point x="187" y="489" type="curve" smooth="yes"/>
      <point x="187" y="538"/>
      <point x="159" y="548"/>
      <point x="117" y="548" type="curve" smooth="yes"/>
      <point x="56" y="547" type="line"/>
      <point x="56" y="584" type="line"/>
      <point x="85" y="591"/>
      <point x="116" y="597"/>
      <point x="154" y="597" type="curve" smooth="yes"/>
      <point x="242" y="597"/>
      <point x="270" y="563"/>
      <point x="270" y="503" type="curve" smooth="yes"/>
      <point x="270" y="434"/>
      <point x="221" y="389"/>
      <point x="221" y="330" type="curve" smooth="yes"/>
      <point x="221" y="296"/>
      <point x="228" y="279"/>
      <point x="316" y="280" type="curve"/>
      <point x="316" y="222" type="line"/>
      <point x="228" y="223"/>
      <point x="221" y="199"/>
      <point x="221" y="165" type="curve" smooth="yes"/>
      <point x="221" y="106"/>
      <point x="270" y="61"/>
    </contour>
  </outline>
</glyph>
<glyph name="asciitilde" format="1">
  <advance width="513"/>
  <unicode hex="007E"/>
  <outline>
    <contour>
      <point x="108" y="179" type="line"/>
      <point x="124" y="199"/>
      <point x="150" y="220"/>
      <point x="184" y="220" type="curve" smooth="yes"/>
      <point x="232" y="220"/>
      <point x="255" y="159"/>
      <point x="320" y="159" type="curve" smooth="yes"/>
      <point x="372" y="159"/>
      <point x="415" y="194"/>
      <point x="434" y="228" type="curve"/>
      <point x="404" y="263" type="line"/>
      <point x="388" y="243"/>
      <point x="364" y="221"/>
      <point x="329" y="221" type="curve" smooth="yes"/>
      <point x="284" y="221"/>
      <point x="258" y="283"/>
      <point x="193" y="283" type="curve" smooth="yes"/>
      <point x="139" y="283"/>
      <point x="95" y="245"/>
      <point x="77" y="213" type="curve"/>
    </contour>
  </outline>
</glyph>
<glyph name="exclamdown" format="1">
  <advance width="262"/>
  <unicode hex="00A1"/>
  <outline>
    <contour>
      <point x="129" y="341" type="line"/>
      <point x="75" y="341" type="line"/>
      <point x="58" y="-38" type="line"/>
      <point x="150" y="-38" type="line"/>
    </contour>
    <contour>
      <point x="155" y="467" type="curve" smooth="yes"/>
      <point x="155" y="498"/>
      <point x="132" y="519"/>
      <point x="101" y="519" type="curve" smooth="yes"/>
      <point x="70" y="519"/>
      <point x="46" y="498"/>
      <point x="46" y="468" type="curve" smooth="yes"/>
      <point x="46" y="438"/>
      <point x="68" y="415"/>
      <point x="101" y="415" type="curve" smooth="yes"/>
      <point x="132" y="415"/>
      <point x="155" y="437"/>
    </contour>
  </outline>
</glyph>
<glyph name="cent" format="1">
  <advance width="431"/>
  <unicode hex="00A2"/>
  <outline>
    <contour>
      <point x="42" y="201" type="curve"/>
      <point x="43" y="95"/>
      <point x="91" y="12"/>
      <point x="191" y="-5" type="curve"/>
      <point x="187" y="-88" type="line"/>
      <point x="238" y="-88" type="line"/>
      <point x="243" y="-8" type="line"/>
      <point x="297" y="-4"/>
      <point x="347" y="24"/>
      <point x="369" y="46" type="curve"/>
      <point x="354" y="80" type="line"/>
      <point x="332" y="65"/>
      <point x="294" y="48"/>
      <point x="249" y="48" type="curve" smooth="yes"/>
      <point x="183" y="48"/>
      <point x="133" y="104"/>
      <point x="134" y="225" type="curve" smooth="yes"/>
      <point x="134" y="329"/>
      <point x="176" y="379"/>
      <point x="237" y="379" type="curve" smooth="yes"/>
      <point x="262" y="379"/>
      <point x="285" y="374"/>
      <point x="289" y="358" type="curve"/>
      <point x="307" y="284" type="line"/>
      <point x="360" y="284" type="line"/>
      <point x="364" y="400" type="line"/>
      <point x="346" y="405"/>
      <point x="315" y="418"/>
      <point x="274" y="421" type="curve"/>
      <point x="278" y="497" type="line"/>
      <point x="226" y="497" type="line"/>
      <point x="222" y="420" type="line"/>
      <point x="105" y="408"/>
      <point x="42" y="315"/>
    </contour>
  </outline>
</glyph>
<glyph name="sterling" format="1">
  <advance width="553"/>
  <unicode hex="00A3"/>
  <outline>
    <contour>
      <point x="71" y="274" type="line"/>
      <point x="144" y="274" type="line"/>
      <point x="144" y="188" type="line" smooth="yes"/>
      <point x="144" y="149"/>
      <point x="136" y="102"/>
      <point x="127" y="88" type="curve"/>
      <point x="81" y="90"/>
      <point x="38" y="63"/>
      <point x="38" y="32" type="curve" smooth="yes"/>
      <point x="38" y="9"/>
      <point x="58" y="0"/>
      <point x="77" y="0" type="curve" smooth="yes"/>
      <point x="105" y="0"/>
      <point x="129" y="19"/>
      <point x="149" y="42" type="curve"/>
      <point x="214" y="41"/>
      <point x="274" y="-5"/>
      <point x="365" y="-5" type="curve" smooth="yes"/>
      <point x="455" y="-5"/>
      <point x="515" y="59"/>
      <point x="515" y="129" type="curve" smooth="yes"/>
      <point x="515" y="160"/>
      <point x="507" y="180"/>
      <point x="500" y="189" type="curve"/>
      <point x="411" y="189" type="line"/>
      <point x="421" y="179"/>
      <point x="430" y="149"/>
      <point x="430" y="121" type="curve" smooth="yes"/>
      <point x="430" y="73"/>
      <point x="413" y="50"/>
      <point x="353" y="50" type="curve" smooth="yes"/>
      <point x="296" y="50"/>
      <point x="239" y="72"/>
      <point x="187" y="77" type="curve"/>
      <point x="214" y="105"/>
      <point x="234" y="139"/>
      <point x="234" y="201" type="curve" smooth="yes"/>
      <point x="234" y="274" type="line"/>
      <point x="342" y="274" type="line"/>
      <point x="342" y="318" type="line"/>
      <point x="234" y="318" type="line"/>
      <point x="234" y="387" type="line" smooth="yes"/>
      <point x="234" y="491"/>
      <point x="276" y="508"/>
      <point x="312" y="508" type="curve" smooth="yes"/>
      <point x="363" y="508"/>
      <point x="402" y="474"/>
      <point x="409" y="461" type="curve"/>
      <point x="450" y="520" type="line"/>
      <point x="423" y="543"/>
      <point x="381" y="556"/>
      <point x="330" y="556" type="curve" smooth="yes"/>
      <point x="229" y="556"/>
      <point x="144" y="482"/>
      <point x="144" y="370" type="curve" smooth="yes"/>
      <point x="144" y="318" type="line"/>
      <point x="71" y="318" type="line"/>
    </contour>
  </outline>
</glyph>
<glyph name="currency" format="1">
  <advance width="559"/>
  <unicode hex="00A4"/>
  <outline>
    <contour>
      <point x="71" y="106" type="line"/>
      <point x="113" y="63" type="line"/>
      <point x="192" y="141" type="line"/>
      <point x="217" y="126"/>
      <point x="246" y="117"/>
      <point x="279" y="117" type="curve" smooth="yes"/>
      <point x="311" y="117"/>
      <point x="340" y="127"/>
      <point x="366" y="143" type="curve"/>
      <point x="445" y="64" type="line"/>
      <point x="487" y="107" type="line"/>
      <point x="408" y="185" type="line"/>
      <point x="428" y="212"/>
      <point x="440" y="246"/>
      <point x="440" y="283" type="curve" smooth="yes"/>
      <point x="440" y="319"/>
      <point x="429" y="351"/>
      <point x="411" y="377" type="curve"/>
      <point x="488" y="454" type="line"/>
      <point x="445" y="496" type="line"/>
      <point x="366" y="417" type="line"/>
      <point x="341" y="433"/>
      <point x="311" y="442"/>
      <point x="279" y="442" type="curve" smooth="yes"/>
      <point x="246" y="442"/>
      <point x="217" y="433"/>
      <point x="193" y="416" type="curve"/>
      <point x="113" y="496" type="line"/>
      <point x="71" y="453" type="line"/>
      <point x="150" y="374" type="line"/>
      <point x="131" y="346"/>
      <point x="121" y="312"/>
      <point x="121" y="276" type="curve" smooth="yes"/>
      <point x="121" y="240"/>
      <point x="131" y="208"/>
      <point x="149" y="182" type="curve"/>
    </contour>
    <contour>
      <point x="279" y="179" type="curve" smooth="yes"/>
      <point x="228" y="179"/>
      <point x="185" y="223"/>
      <point x="185" y="277" type="curve" smooth="yes"/>
      <point x="185" y="331"/>
      <point x="216" y="380"/>
      <point x="277" y="380" type="curve" smooth="yes"/>
      <point x="328" y="380"/>
      <point x="373" y="334"/>
      <point x="373" y="279" type="curve" smooth="yes"/>
      <point x="373" y="224"/>
      <point x="343" y="179"/>
    </contour>
  </outline>
</glyph>
<glyph name="yen" format="1">
  <advance width="582"/>
  <unicode hex="00A5"/>
  <outline>
    <contour>
      <point x="92" y="259" type="line"/>
      <point x="256" y="259" type="line"/>
      <point x="256" y="169" type="line"/>
      <point x="92" y="169" type="line"/>
      <point x="92" y="128" type="line"/>
      <point x="256" y="128" type="line"/>
      <point x="256" y="45" type="line"/>
      <point x="175" y="36" type="line"/>
      <point x="175" y="0" type="line"/>
      <point x="422" y="0" type="line"/>
      <point x="422" y="36" type="line"/>
      <point x="339" y="45" type="line"/>
      <point x="339" y="128" type="line"/>
      <point x="503" y="128" type="line"/>
      <point x="503" y="169" type="line"/>
      <point x="339" y="169" type="line"/>
      <point x="339" y="259" type="line"/>
      <point x="503" y="259" type="line"/>
      <point x="503" y="301" type="line"/>
      <point x="360" y="301" type="line"/>
      <point x="484" y="504" type="line"/>
      <point x="537" y="514" type="line"/>
      <point x="537" y="550" type="line"/>
      <point x="363" y="550" type="line"/>
      <point x="363" y="514" type="line"/>
      <point x="420" y="506" type="line"/>
      <point x="336" y="347" type="line"/>
      <point x="310" y="304" type="line"/>
      <point x="289" y="347" type="line"/>
      <point x="199" y="506" type="line"/>
      <point x="253" y="514" type="line"/>
      <point x="253" y="550" type="line"/>
      <point x="47" y="550" type="line"/>
      <point x="47" y="514" type="line"/>
      <point x="96" y="504" type="line"/>
      <point x="229" y="301" type="line"/>
      <point x="92" y="301" type="line"/>
    </contour>
  </outline>
</glyph>
<glyph name="section" format="1">
  <advance width="499"/>
  <unicode hex="00A7"/>
  <outline>
    <contour>
      <point x="69" y="-39" type="line"/>
      <point x="92" y="-41"/>
      <point x="156" y="-73"/>
      <point x="241" y="-73" type="curve" smooth="yes"/>
      <point x="371" y="-73"/>
      <point x="426" y="-9"/>
      <point x="426" y="53" type="curve" smooth="yes"/>
      <point x="426" y="88"/>
      <point x="408" y="115"/>
      <point x="384" y="137" type="curve"/>
      <point x="415" y="164"/>
      <point x="436" y="198"/>
      <point x="436" y="244" type="curve" smooth="yes"/>
      <point x="436" y="337"/>
      <point x="329" y="381"/>
      <point x="274" y="404" type="curve"/>
      <point x="209" y="432"/>
      <point x="158" y="449"/>
      <point x="158" y="504" type="curve" smooth="yes"/>
      <point x="158" y="543"/>
      <point x="192" y="564"/>
      <point x="254" y="564" type="curve" smooth="yes"/>
      <point x="295" y="564"/>
      <point x="325" y="551"/>
      <point x="331" y="545" type="curve"/>
      <point x="350" y="466" type="line"/>
      <point x="398" y="466" type="line"/>
      <point x="402" y="582" type="line"/>
      <point x="380" y="586"/>
      <point x="326" y="609"/>
      <point x="258" y="609" type="curve" smooth="yes"/>
      <point x="149" y="609"/>
      <point x="81" y="560"/>
      <point x="81" y="489" type="curve" smooth="yes"/>
      <point x="81" y="451"/>
      <point x="98" y="423"/>
      <point x="121" y="400" type="curve"/>
      <point x="87" y="375"/>
      <point x="67" y="346"/>
      <point x="67" y="304" type="curve" smooth="yes"/>
      <point x="67" y="214"/>
      <point x="137" y="165"/>
      <point x="221" y="132" type="curve"/>
      <point x="292" y="105"/>
      <point x="349" y="84"/>
      <point x="349" y="33" type="curve" smooth="yes"/>
      <point x="349" y="-3"/>
      <point x="316" y="-30"/>
      <point x="244" y="-30" type="curve" smooth="yes"/>
      <point x="199" y="-30"/>
      <point x="157" y="-15"/>
      <point x="143" y="1" type="curve"/>
      <point x="130" y="86" type="line"/>
      <point x="77" y="86" type="line"/>
    </contour>
    <contour>
      <point x="263" y="202" type="curve" smooth="yes"/>
      <point x="186" y="235"/>
      <point x="131" y="265"/>
      <point x="131" y="322" type="curve" smooth="yes"/>
      <point x="131" y="344"/>
      <point x="138" y="360"/>
      <point x="154" y="375" type="curve"/>
      <point x="181" y="356"/>
      <point x="212" y="344"/>
      <point x="237" y="333" type="curve" smooth="yes"/>
      <point x="313" y="301"/>
      <point x="366" y="273"/>
      <point x="366" y="218" type="curve" smooth="yes"/>
      <point x="366" y="196"/>
      <point x="359" y="178"/>
      <point x="345" y="164" type="curve"/>
      <point x="318" y="180"/>
      <point x="287" y="192"/>
    </contour>
  </outline>
</glyph>
<glyph name="dieresis" format="1">
  <advance width="370"/>
  <unicode hex="00A8"/>
  <outline>
    <contour>
      <point x="95" y="490" type="curve"/>
      <point x="133" y="490"/>
      <point x="151" y="516"/>
      <point x="151" y="548" type="curve" smooth="yes"/>
      <point x="151" y="574"/>
      <point x="134" y="597"/>
      <point x="103" y="597" type="curve"/>
      <point x="66" y="597"/>
      <point x="50" y="571"/>
      <point x="50" y="540" type="curve" smooth="yes"/>
      <point x="50" y="513"/>
      <point x="67" y="490"/>
    </contour>
    <contour>
      <point x="265" y="490" type="curve"/>
      <point x="304" y="490"/>
      <point x="322" y="516"/>
      <point x="322" y="548" type="curve" smooth="yes"/>
      <point x="322" y="574"/>
      <point x="305" y="597"/>
      <point x="274" y="597" type="curve"/>
      <point x="238" y="597"/>
      <point x="221" y="571"/>
      <point x="221" y="540" type="curve" smooth="yes"/>
      <point x="221" y="514"/>
      <point x="238" y="490"/>
    </contour>
  </outline>
</glyph>
<glyph name="copyright" format="1">
  <advance width="770"/>
  <unicode hex="00A9"/>
  <outline>
    <contour>
      <point x="70" y="363" type="curve" smooth="yes"/>
      <point x="70" y="187"/>
      <point x="210" y="45"/>
      <point x="385" y="45" type="curve" smooth="yes"/>
      <point x="561" y="45"/>
      <point x="700" y="187"/>
      <point x="700" y="363" type="curve" smooth="yes"/>
      <point x="700" y="539"/>
      <point x="561" y="679"/>
      <point x="385" y="679" type="curve" smooth="yes"/>
      <point x="210" y="679"/>
      <point x="70" y="539"/>
    </contour>
    <contour>
      <point x="118" y="363" type="curve" smooth="yes"/>
      <point x="118" y="512"/>
      <point x="234" y="637"/>
      <point x="385" y="637" type="curve" smooth="yes"/>
      <point x="536" y="637"/>
      <point x="651" y="513"/>
      <point x="651" y="363" type="curve" smooth="yes"/>
      <point x="651" y="212"/>
      <point x="536" y="87"/>
      <point x="385" y="87" type="curve" smooth="yes"/>
      <point x="235" y="87"/>
      <point x="118" y="212"/>
    </contour>
    <contour>
      <point x="387" y="186" type="curve" smooth="yes"/>
      <point x="440" y="186"/>
      <point x="485" y="216"/>
      <point x="505" y="241" type="curve"/>
      <point x="488" y="272" type="line"/>
      <point x="469" y="254"/>
      <point x="441" y="241"/>
      <point x="410" y="241" type="curve" smooth="yes"/>
      <point x="342" y="241"/>
      <point x="293" y="294"/>
      <point x="293" y="373" type="curve" smooth="yes"/>
      <point x="293" y="447"/>
      <point x="327" y="497"/>
      <point x="386" y="497" type="curve" smooth="yes"/>
      <point x="422" y="497"/>
      <point x="435" y="492"/>
      <point x="444" y="485" type="curve"/>
      <point x="460" y="437" type="line"/>
      <point x="501" y="437" type="line"/>
      <point x="502" y="520" type="line"/>
      <point x="488" y="534"/>
      <point x="441" y="542"/>
      <point x="409" y="542" type="curve" smooth="yes"/>
      <point x="303" y="542"/>
      <point x="225" y="462"/>
      <point x="225" y="360" type="curve" smooth="yes"/>
      <point x="225" y="259"/>
      <point x="280" y="186"/>
    </contour>
  </outline>
</glyph>
<glyph name="ordfeminine" format="1">
  <advance width="377"/>
  <unicode hex="00AA"/>
  <outline>
    <contour>
      <point x="144" y="242" type="curve" smooth="yes"/>
      <point x="194" y="242"/>
      <point x="230" y="268"/>
      <point x="252" y="290" type="curve"/>
      <point x="252" y="269" type="line" smooth="yes"/>
      <point x="252" y="244"/>
      <point x="269" y="243"/>
      <point x="293" y="243" type="curve" smooth="yes"/>
      <point x="317" y="243"/>
      <point x="346" y="248"/>
      <point x="362" y="252" type="curve"/>
      <point x="362" y="284" type="line"/>
      <point x="323" y="284" type="line"/>
      <point x="323" y="463" type="line" smooth="yes"/>
      <point x="323" y="553"/>
      <point x="277" y="584"/>
      <point x="192" y="584" type="curve" smooth="yes"/>
      <point x="145" y="584"/>
      <point x="77" y="561"/>
      <point x="49" y="543" type="curve"/>
      <point x="70" y="504" type="line"/>
      <point x="95" y="516"/>
      <point x="136" y="530"/>
      <point x="177" y="530" type="curve" smooth="yes"/>
      <point x="231" y="530"/>
      <point x="248" y="515"/>
      <point x="248" y="454" type="curve" smooth="yes"/>
      <point x="248" y="444" type="line"/>
      <point x="120" y="442"/>
      <point x="40" y="411"/>
      <point x="40" y="337" type="curve" smooth="yes"/>
      <point x="40" y="282"/>
      <point x="80" y="242"/>
    </contour>
    <contour>
      <point x="176" y="290" type="curve" smooth="yes"/>
      <point x="141" y="290"/>
      <point x="121" y="312"/>
      <point x="121" y="343" type="curve" smooth="yes"/>
      <point x="121" y="387"/>
      <point x="152" y="407"/>
      <point x="248" y="410" type="curve"/>
      <point x="248" y="321" type="line"/>
      <point x="248" y="322" type="line"/>
      <point x="239" y="309"/>
      <point x="204" y="290"/>
    </contour>
  </outline>
</glyph>
<glyph name="guillemotleft" format="1">
  <advance width="695"/>
  <unicode hex="00AB"/>
  <outline>
    <contour>
      <point x="355" y="194" type="line"/>
      <point x="595" y="37" type="line"/>
      <point x="622" y="79" type="line"/>
      <point x="452" y="222" type="line"/>
      <point x="621" y="368" type="line"/>
      <point x="595" y="409" type="line"/>
      <point x="355" y="248" type="line"/>
    </contour>
    <contour>
      <point x="84" y="194" type="line"/>
      <point x="324" y="37" type="line"/>
      <point x="351" y="79" type="line"/>
      <point x="181" y="222" type="line"/>
      <point x="349" y="368" type="line"/>
      <point x="324" y="409" type="line"/>
      <point x="84" y="248" type="line"/>
    </contour>
  </outline>
</glyph>
<glyph name="logicalnot" format="1">
  <advance width="510"/>
  <unicode hex="00AC"/>
  <outline>
    <contour>
      <point x="76" y="201" type="line"/>
      <point x="370" y="201" type="line"/>
      <point x="370" y="58" type="line"/>
      <point x="434" y="58" type="line"/>
      <point x="434" y="255" type="line"/>
      <point x="76" y="255" type="line"/>
    </contour>
  </outline>
</glyph>
<glyph name="registered" format="1">
  <advance width="770"/>
  <unicode hex="00AE"/>
  <outline>
    <contour>
      <point x="70" y="363" type="curve" smooth="yes"/>
      <point x="70" y="187"/>
      <point x="210" y="45"/>
      <point x="385" y="45" type="curve" smooth="yes"/>
      <point x="561" y="45"/>
      <point x="700" y="187"/>
      <point x="700" y="363" type="curve" smooth="yes"/>
      <point x="700" y="539"/>
      <point x="561" y="679"/>
      <point x="385" y="679" type="curve" smooth="yes"/>
      <point x="210" y="679"/>
      <point x="70" y="539"/>
    </contour>
    <contour>
      <point x="118" y="363" type="curve" smooth="yes"/>
      <point x="118" y="512"/>
      <point x="234" y="637"/>
      <point x="385" y="637" type="curve" smooth="yes"/>
      <point x="536" y="637"/>
      <point x="651" y="513"/>
      <point x="651" y="363" type="curve" smooth="yes"/>
      <point x="651" y="212"/>
      <point x="536" y="87"/>
      <point x="385" y="87" type="curve" smooth="yes"/>
      <point x="235" y="87"/>
      <point x="118" y="212"/>
    </contour>
    <contour>
      <point x="241" y="187" type="line"/>
      <point x="373" y="187" type="line"/>
      <point x="373" y="219" type="line"/>
      <point x="337" y="226" type="line"/>
      <point x="337" y="328" type="line"/>
      <point x="391" y="328" type="line"/>
      <point x="456" y="302"/>
      <point x="428" y="187"/>
      <point x="489" y="187" type="curve" smooth="yes"/>
      <point x="549" y="187" type="line"/>
      <point x="549" y="223" type="line"/>
      <point x="493" y="227"/>
      <point x="517" y="310"/>
      <point x="448" y="342" type="curve"/>
      <point x="499" y="353"/>
      <point x="525" y="393"/>
      <point x="525" y="446" type="curve" smooth="yes"/>
      <point x="525" y="502"/>
      <point x="481" y="538"/>
      <point x="391" y="538" type="curve"/>
      <point x="348" y="537"/>
      <point x="335" y="536"/>
      <point x="301" y="536" type="curve"/>
      <point x="241" y="536" type="line"/>
      <point x="241" y="501" type="line"/>
      <point x="274" y="493" type="line"/>
      <point x="274" y="228" type="line"/>
      <point x="241" y="219" type="line"/>
    </contour>
    <contour>
      <point x="337" y="371" type="curve"/>
      <point x="337" y="496" type="line"/>
      <point x="355" y="500"/>
      <point x="367" y="500"/>
      <point x="381" y="500" type="curve" smooth="yes"/>
      <point x="431" y="500"/>
      <point x="455" y="483"/>
      <point x="455" y="436" type="curve" smooth="yes"/>
      <point x="455" y="399"/>
      <point x="427" y="369"/>
      <point x="391" y="369" type="curve" smooth="yes"/>
      <point x="375" y="369"/>
      <point x="349" y="369"/>
    </contour>
  </outline>
</glyph>
<glyph name="macron" format="1">
  <advance width="247"/>
  <unicode hex="00AF"/>
  <outline>
    <contour>
      <point x="19" y="516" type="line"/>
      <point x="226" y="516" type="line"/>
      <point x="226" y="572" type="line"/>
      <point x="19" y="572" type="line"/>
    </contour>
  </outline>
</glyph>
<glyph name="degree" format="1">
  <advance width="349"/>
  <unicode hex="00B0"/>
  <outline>
    <contour>
      <point x="174" y="340" type="curve" smooth="yes"/>
      <point x="245" y="340"/>
      <point x="303" y="394"/>
      <point x="303" y="467" type="curve" smooth="yes"/>
      <point x="303" y="537"/>
      <point x="249" y="595"/>
      <point x="174" y="595" type="curve" smooth="yes"/>
      <point x="105" y="595"/>
      <point x="46" y="541"/>
      <point x="46" y="467" type="curve" smooth="yes"/>
      <point x="46" y="398"/>
      <point x="105" y="340"/>
    </contour>
    <contour>
      <point x="175" y="392" type="curve" smooth="yes"/>
      <point x="135" y="392"/>
      <point x="102" y="427"/>
      <point x="102" y="467" type="curve" smooth="yes"/>
      <point x="102" y="511"/>
      <point x="132" y="543"/>
      <point x="174" y="543" type="curve" smooth="yes"/>
      <point x="215" y="543"/>
      <point x="247" y="509"/>
      <point x="247" y="467" type="curve" smooth="yes"/>
      <point x="247" y="424"/>
      <point x="217" y="392"/>
    </contour>
  </outline>
</glyph>
<glyph name="plusminus" format="1">
  <advance width="490"/>
  <unicode hex="00B1"/>
  <outline>
    <contour>
      <point x="77" y="221" type="line"/>
      <point x="151" y="221" type="line"/>
      <point x="216" y="224" type="line"/>
      <point x="214" y="164" type="line"/>
      <point x="214" y="84" type="line"/>
      <point x="276" y="84" type="line"/>
      <point x="276" y="164" type="line"/>
      <point x="272" y="224" type="line"/>
      <point x="328" y="221" type="line"/>
      <point x="412" y="221" type="line"/>
      <point x="412" y="282" type="line"/>
      <point x="328" y="282" type="line"/>
      <point x="272" y="278" type="line"/>
      <point x="276" y="338" type="line"/>
      <point x="276" y="420" type="line"/>
      <point x="214" y="420" type="line"/>
      <point x="214" y="338" type="line"/>
      <point x="216" y="278" type="line"/>
      <point x="151" y="282" type="line"/>
      <point x="77" y="282" type="line"/>
    </contour>
    <contour>
      <point x="82" y="0" type="line"/>
      <point x="407" y="0" type="line"/>
      <point x="407" y="58" type="line"/>
      <point x="82" y="58" type="line"/>
    </contour>
  </outline>
</glyph>
<glyph name="twosuperior" format="1">
  <advance width="372"/>
  <unicode hex="00B2"/>
  <outline>
    <contour>
      <point x="58" y="198" type="line"/>
      <point x="322" y="198" type="line"/>
      <point x="341" y="298" type="line"/>
      <point x="302" y="306" type="line"/>
      <point x="274" y="252" type="line"/>
      <point x="114" y="240" type="line"/>
      <point x="210" y="297"/>
      <point x="308" y="390"/>
      <point x="308" y="467" type="curve" smooth="yes"/>
      <point x="308" y="528"/>
      <point x="263" y="575"/>
      <point x="182" y="575" type="curve" smooth="yes"/>
      <point x="112" y="575"/>
      <point x="60" y="536"/>
      <point x="42" y="513" type="curve"/>
      <point x="66" y="483" type="line"/>
      <point x="83" y="500"/>
      <point x="120" y="524"/>
      <point x="165" y="524" type="curve" smooth="yes"/>
      <point x="209" y="524"/>
      <point x="233" y="496"/>
      <point x="233" y="456" type="curve" smooth="yes"/>
      <point x="233" y="369"/>
      <point x="101" y="269"/>
      <point x="44" y="234" type="curve"/>
    </contour>
  </outline>
</glyph>
<glyph name="threesuperior" format="1">
  <advance width="360"/>
  <unicode hex="00B3"/>
  <outline>
    <contour>
      <point x="52" y="212" type="line"/>
      <point x="81" y="199"/>
      <point x="125" y="191"/>
      <point x="158" y="191" type="curve" smooth="yes"/>
      <point x="273" y="191"/>
      <point x="331" y="242"/>
      <point x="331" y="308" type="curve" smooth="yes"/>
      <point x="331" y="350"/>
      <point x="294" y="396"/>
      <point x="214" y="391" type="curve"/>
      <point x="275" y="415"/>
      <point x="297" y="450"/>
      <point x="297" y="490" type="curve" smooth="yes"/>
      <point x="297" y="539"/>
      <point x="251" y="575"/>
      <point x="178" y="575" type="curve" smooth="yes"/>
      <point x="121" y="575"/>
      <point x="68" y="556"/>
      <point x="45" y="533" type="curve"/>
      <point x="67" y="498" type="line"/>
      <point x="87" y="515"/>
      <point x="126" y="526"/>
      <point x="159" y="526" type="curve" smooth="yes"/>
      <point x="203" y="526"/>
      <point x="222" y="508"/>
      <point x="222" y="478" type="curve" smooth="yes"/>
      <point x="222" y="444"/>
      <point x="194" y="423"/>
      <point x="163" y="409" type="curve"/>
      <point x="144" y="400"/>
      <point x="124" y="394"/>
      <point x="112" y="392" type="curve"/>
      <point x="124" y="355" type="line"/>
      <point x="167" y="369" type="line"/>
      <point x="223" y="371"/>
      <point x="251" y="340"/>
      <point x="251" y="309" type="curve" smooth="yes"/>
      <point x="251" y="260"/>
      <point x="213" y="237"/>
      <point x="139" y="237" type="curve" smooth="yes"/>
      <point x="111" y="237"/>
      <point x="76" y="245"/>
      <point x="52" y="255" type="curve"/>
    </contour>
  </outline>
</glyph>
<glyph name="acute" format="1">
  <advance width="247"/>
  <unicode hex="00B4"/>
  <outline>
    <contour>
      <point x="103" y="481" type="line"/>
      <point x="103" y="481" type="line"/>
      <point x="138" y="496"/>
      <point x="229" y="571"/>
      <point x="251" y="606" type="curve"/>
      <point x="194" y="656" type="line"/>
      <point x="193" y="656" type="line"/>
      <point x="72" y="508" type="line"/>
    </contour>
  </outline>
</glyph>
<glyph name="uni00B5" format="1">
  <advance width="506"/>
  <unicode hex="00B5"/>
  <outline>
    <contour>
      <point x="86" y="-135" type="line"/>
      <point x="166" y="-135" type="line"/>
      <point x="166" y="27" type="line"/>
      <point x="185" y="5"/>
      <point x="218" y="-7"/>
      <point x="253" y="-7" type="curve" smooth="yes"/>
      <point x="298" y="-7"/>
      <point x="336" y="21"/>
      <point x="352" y="54" type="curve"/>
      <point x="352" y="25" type="line" smooth="yes"/>
      <point x="352" y="3"/>
      <point x="364" y="-10"/>
      <point x="391" y="-10" type="curve" smooth="yes"/>
      <point x="419" y="-10"/>
      <point x="451" y="-4"/>
      <point x="466" y="3" type="curve"/>
      <point x="466" y="41" type="line"/>
      <point x="423" y="41" type="line"/>
      <point x="423" y="410" type="line"/>
      <point x="412" y="419" type="line"/>
      <point x="290" y="410" type="line"/>
      <point x="290" y="379" type="line"/>
      <point x="338" y="363" type="line"/>
      <point x="338" y="96" type="line"/>
      <point x="329" y="77"/>
      <point x="303" y="48"/>
      <point x="254" y="48" type="curve" smooth="yes"/>
      <point x="198" y="48"/>
      <point x="171" y="96"/>
      <point x="171" y="124" type="curve" smooth="yes"/>
      <point x="171" y="410" type="line"/>
      <point x="157" y="419" type="line"/>
      <point x="43" y="409" type="line"/>
      <point x="43" y="378" type="line"/>
      <point x="86" y="363" type="line"/>
    </contour>
  </outline>
</glyph>
<glyph name="paragraph" format="1">
  <advance width="550"/>
  <unicode hex="00B6"/>
  <outline>
    <contour>
      <point x="122" y="0" type="line"/>
      <point x="269" y="0" type="line"/>
      <point x="269" y="566" type="line"/>
      <point x="273" y="567"/>
      <point x="279" y="568"/>
      <point x="284" y="568" type="curve" smooth="yes"/>
      <point x="314" y="568"/>
      <point x="346" y="564"/>
      <point x="363" y="562" type="curve"/>
      <point x="363" y="0" type="line"/>
      <point x="490" y="0" type="line"/>
      <point x="490" y="38" type="line"/>
      <point x="438" y="46" type="line"/>
      <point x="438" y="564" type="line"/>
      <point x="499" y="571" type="line"/>
      <point x="499" y="612" type="line"/>
      <point x="433" y="612" type="line"/>
      <point x="334" y="612"/>
      <point x="319" y="619"/>
      <point x="236" y="619" type="curve" smooth="yes"/>
      <point x="107" y="619"/>
      <point x="37" y="549"/>
      <point x="37" y="456" type="curve" smooth="yes"/>
      <point x="37" y="352"/>
      <point x="89" y="290"/>
      <point x="195" y="290" type="curve"/>
      <point x="195" y="46" type="line"/>
      <point x="122" y="38" type="line"/>
    </contour>
  </outline>
</glyph>
<glyph name="periodcentered" format="1">
  <advance width="257"/>
  <unicode hex="00B7"/>
  <outline>
    <contour>
      <point x="74" y="247" type="curve" smooth="yes"/>
      <point x="74" y="217"/>
      <point x="97" y="196"/>
      <point x="128" y="196" type="curve" smooth="yes"/>
      <point x="159" y="196"/>
      <point x="183" y="216"/>
      <point x="183" y="247" type="curve" smooth="yes"/>
      <point x="183" y="276"/>
      <point x="161" y="300"/>
      <point x="128" y="300" type="curve" smooth="yes"/>
      <point x="97" y="300"/>
      <point x="74" y="278"/>
    </contour>
  </outline>
</glyph>
<glyph name="cedilla" format="1">
  <advance width="222"/>
  <unicode hex="00B8"/>
  <outline>
    <contour>
      <point x="69" y="1" type="line"/>
      <point x="76" y="-9"/>
      <point x="92" y="-41"/>
      <point x="92" y="-69" type="curve" smooth="yes"/>
      <point x="92" y="-115"/>
      <point x="74" y="-121"/>
      <point x="39" y="-121" type="curve"/>
      <point x="32" y="-121"/>
      <point x="17" y="-119"/>
      <point x="7" y="-116" type="curve"/>
      <point x="6" y="-170" type="line"/>
      <point x="19" y="-176"/>
      <point x="42" y="-180"/>
      <point x="59" y="-180" type="curve" smooth="yes"/>
      <point x="119" y="-180"/>
      <point x="155" y="-162"/>
      <point x="157" y="-106" type="curve" smooth="yes"/>
      <point x="159" y="-59"/>
      <point x="124" y="-13"/>
      <point x="109" y="1" type="curve"/>
      <point x="94" y="4" type="line"/>
    </contour>
  </outline>
</glyph>
<glyph name="onesuperior" format="1">
  <advance width="358"/>
  <unicode hex="00B9"/>
  <outline>
    <contour>
      <point x="63" y="198" type="line"/>
      <point x="312" y="198" type="line"/>
      <point x="312" y="237" type="line"/>
      <point x="228" y="244" type="line"/>
      <point x="228" y="567" type="line"/>
      <point x="185" y="575" type="line"/>
      <point x="184" y="575" type="line"/>
      <point x="142" y="543"/>
      <point x="94" y="527"/>
      <point x="54" y="515" type="curve"/>
      <point x="65" y="473" type="line"/>
      <point x="93" y="478"/>
      <point x="127" y="484"/>
      <point x="157" y="496" type="curve"/>
      <point x="157" y="244" type="line"/>
      <point x="63" y="237" type="line"/>
    </contour>
  </outline>
</glyph>
<glyph name="ordmasculine" format="1">
  <advance width="384"/>
  <unicode hex="00BA"/>
  <outline>
    <contour>
      <point x="192" y="245" type="curve" smooth="yes"/>
      <point x="264" y="245"/>
      <point x="349" y="292"/>
      <point x="350" y="413" type="curve" smooth="yes"/>
      <point x="352" y="523"/>
      <point x="293" y="583"/>
      <point x="196" y="583" type="curve" smooth="yes"/>
      <point x="120" y="583"/>
      <point x="35" y="533"/>
      <point x="34" y="417" type="curve" smooth="yes"/>
      <point x="32" y="299"/>
      <point x="103" y="244"/>
    </contour>
    <contour>
      <point x="191" y="282" type="curve" smooth="yes"/>
      <point x="150" y="282"/>
      <point x="117" y="331"/>
      <point x="117" y="419" type="curve" smooth="yes"/>
      <point x="117" y="509"/>
      <point x="147" y="544"/>
      <point x="193" y="545" type="curve" smooth="yes"/>
      <point x="240" y="546"/>
      <point x="267" y="495"/>
      <point x="267" y="408" type="curve" smooth="yes"/>
      <point x="267" y="303"/>
      <point x="240" y="283"/>
    </contour>
  </outline>
</glyph>
<glyph name="guillemotright" format="1">
  <advance width="693"/>
  <unicode hex="00BB"/>
  <outline>
    <contour>
      <point x="610" y="194" type="line"/>
      <point x="370" y="37" type="line"/>
      <point x="344" y="79" type="line"/>
      <point x="514" y="222" type="line"/>
      <point x="345" y="368" type="line"/>
      <point x="370" y="409" type="line"/>
      <point x="610" y="248" type="line"/>
    </contour>
    <contour>
      <point x="346" y="194" type="line"/>
      <point x="106" y="37" type="line"/>
      <point x="80" y="79" type="line"/>
      <point x="249" y="222" type="line"/>
      <point x="81" y="368" type="line"/>
      <point x="106" y="409" type="line"/>
      <point x="346" y="248" type="line"/>
    </contour>
  </outline>
</glyph>
<glyph name="onequarter" format="1">
  <advance width="874"/>
  <unicode hex="00BC"/>
  <outline>
    <contour>
      <point x="540" y="74" type="line"/>
      <point x="718" y="74" type="line"/>
      <point x="718" y="0" type="line"/>
      <point x="784" y="0" type="line"/>
      <point x="784" y="74" type="line"/>
      <point x="850" y="74" type="line"/>
      <point x="850" y="126" type="line"/>
      <point x="784" y="122" type="line"/>
      <point x="784" y="220" type="line"/>
      <point x="726" y="215" type="line"/>
      <point x="719" y="119" type="line"/>
      <point x="582" y="112" type="line"/>
      <point x="613" y="153" type="line"/>
      <point x="753" y="380" type="line"/>
      <point x="739" y="396" type="line"/>
      <point x="674" y="396" type="line"/>
      <point x="659" y="366"/>
      <point x="524" y="122"/>
      <point x="515" y="106" type="curve"/>
    </contour>
    <contour>
      <point x="63" y="198" type="line"/>
      <point x="312" y="198" type="line"/>
      <point x="312" y="237" type="line"/>
      <point x="228" y="244" type="line"/>
      <point x="228" y="567" type="line"/>
      <point x="185" y="575" type="line"/>
      <point x="184" y="575" type="line"/>
      <point x="142" y="543"/>
      <point x="94" y="527"/>
      <point x="54" y="515" type="curve"/>
      <point x="65" y="473" type="line"/>
      <point x="93" y="478"/>
      <point x="127" y="484"/>
      <point x="157" y="496" type="curve"/>
      <point x="157" y="244" type="line"/>
      <point x="63" y="237" type="line"/>
    </contour>
    <contour>
      <point x="321" y="-60" type="line"/>
      <point x="587" y="597" type="line"/>
      <point x="531" y="603" type="line"/>
      <point x="265" y="-55" type="line"/>
    </contour>
  </outline>
</glyph>
<glyph name="threequarters" format="1">
  <advance width="876"/>
  <unicode hex="00BE"/>
  <outline>
    <contour>
      <point x="542" y="74" type="line"/>
      <point x="720" y="74" type="line"/>
      <point x="720" y="0" type="line"/>
      <point x="786" y="0" type="line"/>
      <point x="786" y="74" type="line"/>
      <point x="852" y="74" type="line"/>
      <point x="852" y="126" type="line"/>
      <point x="786" y="122" type="line"/>
      <point x="786" y="220" type="line"/>
      <point x="727" y="215" type="line"/>
      <point x="721" y="119" type="line"/>
      <point x="584" y="112" type="line"/>
      <point x="615" y="153" type="line"/>
      <point x="754" y="380" type="line"/>
      <point x="741" y="396" type="line"/>
      <point x="676" y="396" type="line"/>
      <point x="662" y="366"/>
      <point x="526" y="122"/>
      <point x="517" y="106" type="curve"/>
    </contour>
    <contour>
      <point x="52" y="212" type="line"/>
      <point x="81" y="199"/>
      <point x="125" y="191"/>
      <point x="158" y="191" type="curve" smooth="yes"/>
      <point x="273" y="191"/>
      <point x="331" y="242"/>
      <point x="331" y="308" type="curve" smooth="yes"/>
      <point x="331" y="350"/>
      <point x="294" y="396"/>
      <point x="214" y="391" type="curve"/>
      <point x="275" y="415"/>
      <point x="297" y="450"/>
      <point x="297" y="490" type="curve" smooth="yes"/>
      <point x="297" y="539"/>
      <point x="251" y="575"/>
      <point x="178" y="575" type="curve" smooth="yes"/>
      <point x="121" y="575"/>
      <point x="68" y="556"/>
      <point x="45" y="533" type="curve"/>
      <point x="67" y="498" type="line"/>
      <point x="87" y="515"/>
      <point x="126" y="526"/>
      <point x="159" y="526" type="curve" smooth="yes"/>
      <point x="203" y="526"/>
      <point x="222" y="508"/>
      <point x="222" y="478" type="curve" smooth="yes"/>
      <point x="222" y="444"/>
      <point x="194" y="423"/>
      <point x="163" y="409" type="curve"/>
      <point x="144" y="400"/>
      <point x="124" y="394"/>
      <point x="112" y="392" type="curve"/>
      <point x="124" y="355" type="line"/>
      <point x="167" y="369" type="line"/>
      <point x="223" y="371"/>
      <point x="251" y="340"/>
      <point x="251" y="309" type="curve" smooth="yes"/>
      <point x="251" y="260"/>
      <point x="213" y="237"/>
      <point x="139" y="237" type="curve" smooth="yes"/>
      <point x="111" y="237"/>
      <point x="76" y="245"/>
      <point x="52" y="255" type="curve"/>
    </contour>
    <contour>
      <point x="323" y="-60" type="line"/>
      <point x="589" y="597" type="line"/>
      <point x="533" y="603" type="line"/>
      <point x="267" y="-55" type="line"/>
    </contour>
  </outline>
</glyph>
<glyph name="questiondown" format="1">
  <advance width="363"/>
  <unicode hex="00BF"/>
  <outline>
    <contour>
      <point x="208" y="362" type="curve"/>
      <point x="157" y="351" type="line"/>
      <point x="164" y="324"/>
      <point x="169" y="298"/>
      <point x="169" y="288" type="curve" smooth="yes"/>
      <point x="169" y="228"/>
      <point x="1" y="232"/>
      <point x="1" y="123" type="curve" smooth="yes"/>
      <point x="1" y="60"/>
      <point x="52" y="-37"/>
      <point x="167" y="-37" type="curve" smooth="yes"/>
      <point x="208" y="-37"/>
      <point x="253" y="-25"/>
      <point x="284" y="-10" type="curve"/>
      <point x="253" y="69" type="line"/>
      <point x="217" y="51"/>
      <point x="175" y="39"/>
      <point x="143" y="39" type="curve" smooth="yes"/>
      <point x="94" y="39"/>
      <point x="62" y="68"/>
      <point x="62" y="100" type="curve" smooth="yes"/>
      <point x="62" y="172"/>
      <point x="241" y="162"/>
      <point x="241" y="256" type="curve" smooth="yes"/>
      <point x="241" y="286"/>
      <point x="225" y="331"/>
    </contour>
    <contour>
      <point x="223" y="469" type="curve" smooth="yes"/>
      <point x="223" y="500"/>
      <point x="200" y="521"/>
      <point x="169" y="521" type="curve" smooth="yes"/>
      <point x="138" y="521"/>
      <point x="114" y="500"/>
      <point x="114" y="470" type="curve" smooth="yes"/>
      <point x="114" y="440"/>
      <point x="136" y="417"/>
      <point x="169" y="417" type="curve" smooth="yes"/>
      <point x="200" y="417"/>
      <point x="223" y="439"/>
    </contour>
  </outline>
</glyph>
<glyph name="Agrave" format="1">
  <advance width="514"/>
  <unicode hex="00C0"/>
  <outline>
    <contour>
      <point x="288" y="591" type="curve"/>
      <point x="289" y="591" type="line"/>
      <point x="319" y="615" type="line"/>
      <point x="201" y="727" type="line"/>
      <point x="144" y="682" type="line"/>
      <point x="170" y="647"/>
      <point x="254" y="602"/>
    </contour>
    <contour>
      <point x="-11" y="0" type="line"/>
      <point x="169" y="0" type="line"/>
      <point x="169" y="39" type="line"/>
      <point x="107" y="47" type="line"/>
      <point x="139" y="152" type="line"/>
      <point x="348" y="152" type="line"/>
      <point x="381" y="48" type="line"/>
      <point x="322" y="39" type="line"/>
      <point x="322" y="0" type="line"/>
      <point x="525" y="0" type="line"/>
      <point x="525" y="39" type="line"/>
      <point x="479" y="48" type="line"/>
      <point x="302" y="555" type="line"/>
      <point x="211" y="555" type="line"/>
      <point x="34" y="48" type="line"/>
      <point x="-12" y="39" type="line"/>
    </contour>
    <contour>
      <point x="226" y="434" type="line"/>
      <point x="242" y="497" type="line"/>
      <point x="258" y="435" type="line"/>
      <point x="334" y="199" type="line"/>
      <point x="153" y="199" type="line"/>
    </contour>
  </outline>
</glyph>
<glyph name="Atilde" format="1">
  <advance width="514"/>
  <unicode hex="00C3"/>
  <outline>
    <contour>
      <point x="318" y="608" type="curve" smooth="yes"/>
      <point x="369" y="608"/>
      <point x="399" y="646"/>
      <point x="414" y="685" type="curve"/>
      <point x="380" y="709" type="line"/>
      <point x="371" y="694"/>
      <point x="359" y="665"/>
      <point x="326" y="665" type="curve" smooth="yes"/>
      <point x="283" y="665"/>
      <point x="267" y="725"/>
      <point x="205" y="725" type="curve" smooth="yes"/>
      <point x="150" y="725"/>
      <point x="112" y="680"/>
      <point x="102" y="650" type="curve"/>
      <point x="136" y="626" type="line"/>
      <point x="144" y="638"/>
      <point x="160" y="669"/>
      <point x="192" y="669" type="curve" smooth="yes"/>
      <point x="238" y="669"/>
      <point x="257" y="608"/>
    </contour>
    <contour>
      <point x="-11" y="0" type="line"/>
      <point x="169" y="0" type="line"/>
      <point x="169" y="39" type="line"/>
      <point x="107" y="47" type="line"/>
      <point x="139" y="152" type="line"/>
      <point x="348" y="152" type="line"/>
      <point x="381" y="48" type="line"/>
      <point x="322" y="39" type="line"/>
      <point x="322" y="0" type="line"/>
      <point x="525" y="0" type="line"/>
      <point x="525" y="39" type="line"/>
      <point x="479" y="48" type="line"/>
      <point x="302" y="555" type="line"/>
      <point x="211" y="555" type="line"/>
      <point x="34" y="48" type="line"/>
      <point x="-12" y="39" type="line"/>
    </contour>
    <contour>
      <point x="226" y="434" type="line"/>
      <point x="242" y="497" type="line"/>
      <point x="258" y="435" type="line"/>
      <point x="334" y="199" type="line"/>
      <point x="153" y="199" type="line"/>
    </contour>
  </outline>
</glyph>
<glyph name="Adieresis" format="1">
  <advance width="514"/>
  <unicode hex="00C4"/>
  <outline>
    <contour>
      <point x="161" y="609" type="curve"/>
      <point x="199" y="609"/>
      <point x="217" y="634"/>
      <point x="217" y="666" type="curve" smooth="yes"/>
      <point x="217" y="691"/>
      <point x="201" y="715"/>
      <point x="169" y="715" type="curve"/>
      <point x="134" y="715"/>
      <point x="116" y="688"/>
      <point x="116" y="658" type="curve" smooth="yes"/>
      <point x="116" y="631"/>
      <point x="134" y="609"/>
    </contour>
    <contour>
      <point x="344" y="609" type="curve"/>
      <point x="383" y="609"/>
      <point x="400" y="634"/>
      <point x="400" y="666" type="curve" smooth="yes"/>
      <point x="400" y="691"/>
      <point x="384" y="715"/>
      <point x="352" y="715" type="curve"/>
      <point x="316" y="715"/>
      <point x="299" y="688"/>
      <point x="299" y="658" type="curve" smooth="yes"/>
      <point x="299" y="633"/>
      <point x="317" y="609"/>
    </contour>
    <contour>
      <point x="-11" y="0" type="line"/>
      <point x="169" y="0" type="line"/>
      <point x="169" y="39" type="line"/>
      <point x="107" y="47" type="line"/>
      <point x="139" y="152" type="line"/>
      <point x="348" y="152" type="line"/>
      <point x="381" y="48" type="line"/>
      <point x="322" y="39" type="line"/>
      <point x="322" y="0" type="line"/>
      <point x="525" y="0" type="line"/>
      <point x="525" y="39" type="line"/>
      <point x="479" y="48" type="line"/>
      <point x="302" y="555" type="line"/>
      <point x="211" y="555" type="line"/>
      <point x="34" y="48" type="line"/>
      <point x="-12" y="39" type="line"/>
    </contour>
    <contour>
      <point x="226" y="434" type="line"/>
      <point x="242" y="497" type="line"/>
      <point x="258" y="435" type="line"/>
      <point x="334" y="199" type="line"/>
      <point x="153" y="199" type="line"/>
    </contour>
  </outline>
</glyph>
<glyph name="Aring" format="1">
  <advance width="514"/>
  <unicode hex="00C5"/>
  <outline>
    <contour>
      <point x="257" y="543" type="curve"/>
      <point x="257" y="543" type="line"/>
      <point x="325" y="543"/>
      <point x="379" y="576"/>
      <point x="379" y="635" type="curve" smooth="yes"/>
      <point x="380" y="689"/>
      <point x="342" y="728"/>
      <point x="263" y="728" type="curve"/>
      <point x="197" y="728"/>
      <point x="137" y="697"/>
      <point x="136" y="637" type="curve" smooth="yes"/>
      <point x="135" y="585"/>
      <point x="170" y="543"/>
    </contour>
    <contour>
      <point x="259" y="578" type="curve"/>
      <point x="212" y="578"/>
      <point x="194" y="607"/>
      <point x="194" y="637" type="curve" smooth="yes"/>
      <point x="194" y="672"/>
      <point x="215" y="693"/>
      <point x="259" y="693" type="curve"/>
      <point x="305" y="693"/>
      <point x="321" y="666"/>
      <point x="321" y="633" type="curve" smooth="yes"/>
      <point x="321" y="598"/>
      <point x="304" y="578"/>
    </contour>
    <contour>
      <point x="-11" y="0" type="line"/>
      <point x="169" y="0" type="line"/>
      <point x="169" y="39" type="line"/>
      <point x="107" y="47" type="line"/>
      <point x="139" y="152" type="line"/>
      <point x="348" y="152" type="line"/>
      <point x="381" y="48" type="line"/>
      <point x="322" y="39" type="line"/>
      <point x="322" y="0" type="line"/>
      <point x="525" y="0" type="line"/>
      <point x="525" y="39" type="line"/>
      <point x="479" y="48" type="line"/>
      <point x="302" y="555" type="line"/>
      <point x="211" y="555" type="line"/>
      <point x="34" y="48" type="line"/>
      <point x="-12" y="39" type="line"/>
    </contour>
    <contour>
      <point x="226" y="434" type="line"/>
      <point x="242" y="497" type="line"/>
      <point x="258" y="435" type="line"/>
      <point x="334" y="199" type="line"/>
      <point x="153" y="199" type="line"/>
    </contour>
  </outline>
</glyph>
<glyph name="AE" format="1">
  <advance width="685"/>
  <unicode hex="00C6"/>
  <outline>
    <contour>
      <point x="234" y="0" type="line"/>
      <point x="651" y="0" type="line"/>
      <point x="678" y="131" type="line"/>
      <point x="628" y="145" type="line"/>
      <point x="583" y="52" type="line"/>
      <point x="384" y="44" type="line"/>
      <point x="384" y="260" type="line"/>
      <point x="500" y="258" type="line"/>
      <point x="510" y="195" type="line"/>
      <point x="555" y="195" type="line"/>
      <point x="555" y="367" type="line"/>
      <point x="510" y="367" type="line"/>
      <point x="499" y="307" type="line"/>
      <point x="384" y="305" type="line"/>
      <point x="384" y="510" type="line"/>
      <point x="558" y="505" type="line"/>
      <point x="581" y="431" type="line"/>
      <point x="628" y="431" type="line"/>
      <point x="616" y="550" type="line"/>
      <point x="91" y="550" type="line"/>
      <point x="91" y="511" type="line"/>
      <point x="188" y="502" type="line"/>
      <point x="-10" y="48" type="line"/>
      <point x="-64" y="38" type="line"/>
      <point x="-64" y="0" type="line"/>
      <point x="121" y="0" type="line"/>
      <point x="121" y="38" type="line"/>
      <point x="65" y="47" type="line"/>
      <point x="109" y="158" type="line"/>
      <point x="296" y="158" type="line"/>
      <point x="296" y="47" type="line"/>
      <point x="234" y="38" type="line"/>
    </contour>
    <contour>
      <point x="209" y="410" type="line"/>
      <point x="249" y="506" type="line"/>
      <point x="296" y="506" type="line"/>
      <point x="296" y="205" type="line"/>
      <point x="128" y="205" type="line"/>
    </contour>
  </outline>
</glyph>
<glyph name="Eacute" format="1">
  <advance width="484"/>
  <unicode hex="00C9"/>
  <outline>
    <contour>
      <point x="228" y="591" type="line"/>
      <point x="229" y="591" type="line"/>
      <point x="260" y="601"/>
      <point x="342" y="644"/>
      <point x="372" y="682" type="curve"/>
      <point x="317" y="727" type="line"/>
      <point x="316" y="727" type="line"/>
      <point x="198" y="615" type="line"/>
    </contour>
    <contour>
      <point x="33" y="0" type="line"/>
      <point x="448" y="0" type="line"/>
      <point x="468" y="131" type="line"/>
      <point x="421" y="145" type="line"/>
      <point x="380" y="52" type="line"/>
      <point x="182" y="45" type="line"/>
      <point x="182" y="260" type="line"/>
      <point x="298" y="258" type="line"/>
      <point x="309" y="195" type="line"/>
      <point x="353" y="195" type="line"/>
      <point x="353" y="367" type="line"/>
      <point x="309" y="367" type="line"/>
      <point x="298" y="307" type="line"/>
      <point x="182" y="305" type="line"/>
      <point x="182" y="509" type="line"/>
      <point x="357" y="504" type="line"/>
      <point x="380" y="433" type="line"/>
      <point x="425" y="433" type="line"/>
      <point x="415" y="550" type="line"/>
      <point x="34" y="550" type="line"/>
      <point x="34" y="510" type="line"/>
      <point x="93" y="501" type="line"/>
      <point x="93" y="48" type="line"/>
      <point x="33" y="39" type="line"/>
    </contour>
  </outline>
</glyph>
<glyph name="Edieresis" format="1">
  <advance width="484"/>
  <unicode hex="00CB"/>
  <outline>
    <contour>
      <point x="156" y="609" type="curve"/>
      <point x="194" y="609"/>
      <point x="212" y="634"/>
      <point x="212" y="666" type="curve" smooth="yes"/>
      <point x="212" y="691"/>
      <point x="196" y="715"/>
      <point x="164" y="715" type="curve"/>
      <point x="128" y="715"/>
      <point x="111" y="688"/>
      <point x="111" y="658" type="curve" smooth="yes"/>
      <point x="111" y="631"/>
      <point x="129" y="609"/>
    </contour>
    <contour>
      <point x="338" y="609" type="curve"/>
      <point x="376" y="609"/>
      <point x="394" y="634"/>
      <point x="394" y="666" type="curve" smooth="yes"/>
      <point x="394" y="691"/>
      <point x="378" y="715"/>
      <point x="346" y="715" type="curve"/>
      <point x="310" y="715"/>
      <point x="294" y="688"/>
      <point x="294" y="658" type="curve" smooth="yes"/>
      <point x="294" y="633"/>
      <point x="311" y="609"/>
    </contour>
    <contour>
      <point x="33" y="0" type="line"/>
      <point x="448" y="0" type="line"/>
      <point x="468" y="131" type="line"/>
      <point x="421" y="145" type="line"/>
      <point x="380" y="52" type="line"/>
      <point x="182" y="45" type="line"/>
      <point x="182" y="260" type="line"/>
      <point x="298" y="258" type="line"/>
      <point x="309" y="195" type="line"/>
      <point x="353" y="195" type="line"/>
      <point x="353" y="367" type="line"/>
      <point x="309" y="367" type="line"/>
      <point x="298" y="307" type="line"/>
      <point x="182" y="305" type="line"/>
      <point x="182" y="509" type="line"/>
      <point x="357" y="504" type="line"/>
      <point x="380" y="433" type="line"/>
      <point x="425" y="433" type="line"/>
      <point x="415" y="550" type="line"/>
      <point x="34" y="550" type="line"/>
      <point x="34" y="510" type="line"/>
      <point x="93" y="501" type="line"/>
      <point x="93" y="48" type="line"/>
      <point x="33" y="39" type="line"/>
    </contour>
  </outline>
</glyph>
<glyph name="Igrave" format="1">
  <advance width="300"/>
  <unicode hex="00CC"/>
  <outline>
    <contour>
      <point x="164" y="591" type="curve"/>
      <point x="165" y="591" type="line"/>
      <point x="194" y="615" type="line"/>
      <point x="76" y="727" type="line"/>
      <point x="20" y="682" type="line"/>
      <point x="45" y="647"/>
      <point x="130" y="602"/>
    </contour>
    <contour>
      <point x="39" y="0" type="line"/>
      <point x="262" y="0" type="line"/>
      <point x="262" y="38" type="line"/>
      <point x="195" y="48" type="line"/>
      <point x="195" y="501" type="line"/>
      <point x="262" y="510" type="line"/>
      <point x="262" y="550" type="line"/>
      <point x="39" y="550" type="line"/>
      <point x="39" y="510" type="line"/>
      <point x="106" y="501" type="line"/>
      <point x="106" y="48" type="line"/>
      <point x="39" y="39" type="line"/>
    </contour>
  </outline>
</glyph>
<glyph name="Iacute" format="1">
  <advance width="300"/>
  <unicode hex="00CD"/>
  <outline>
    <contour>
      <point x="138" y="591" type="line"/>
      <point x="138" y="591" type="line"/>
      <point x="171" y="601"/>
      <point x="252" y="644"/>
      <point x="283" y="682" type="curve"/>
      <point x="227" y="727" type="line"/>
      <point x="226" y="727" type="line"/>
      <point x="108" y="615" type="line"/>
    </contour>
    <contour>
      <point x="39" y="0" type="line"/>
      <point x="262" y="0" type="line"/>
      <point x="262" y="38" type="line"/>
      <point x="195" y="48" type="line"/>
      <point x="195" y="501" type="line"/>
      <point x="262" y="510" type="line"/>
      <point x="262" y="550" type="line"/>
      <point x="39" y="550" type="line"/>
      <point x="39" y="510" type="line"/>
      <point x="106" y="501" type="line"/>
      <point x="106" y="48" type="line"/>
      <point x="39" y="39" type="line"/>
    </contour>
  </outline>
</glyph>
<glyph name="Icircumflex" format="1">
  <advance width="300"/>
  <unicode hex="00CE"/>
  <outline>
    <contour>
      <point x="49" y="597" type="line"/>
      <point x="150" y="671" type="line"/>
      <point x="250" y="597" type="line"/>
      <point x="284" y="620" type="line"/>
      <point x="182" y="727" type="line"/>
      <point x="118" y="727" type="line"/>
      <point x="17" y="620" type="line"/>
    </contour>
    <contour>
      <point x="39" y="0" type="line"/>
      <point x="262" y="0" type="line"/>
      <point x="262" y="38" type="line"/>
      <point x="195" y="48" type="line"/>
      <point x="195" y="501" type="line"/>
      <point x="262" y="510" type="line"/>
      <point x="262" y="550" type="line"/>
      <point x="39" y="550" type="line"/>
      <point x="39" y="510" type="line"/>
      <point x="106" y="501" type="line"/>
      <point x="106" y="48" type="line"/>
      <point x="39" y="39" type="line"/>
    </contour>
  </outline>
</glyph>
<glyph name="Idieresis" format="1">
  <advance width="300"/>
  <unicode hex="00CF"/>
  <outline>
    <contour>
      <point x="54" y="609" type="curve"/>
      <point x="92" y="609"/>
      <point x="110" y="634"/>
      <point x="110" y="666" type="curve" smooth="yes"/>
      <point x="110" y="691"/>
      <point x="94" y="715"/>
      <point x="62" y="715" type="curve"/>
      <point x="26" y="715"/>
      <point x="9" y="688"/>
      <point x="9" y="658" type="curve" smooth="yes"/>
      <point x="9" y="631"/>
      <point x="27" y="609"/>
    </contour>
    <contour>
      <point x="237" y="609" type="curve"/>
      <point x="275" y="609"/>
      <point x="292" y="634"/>
      <point x="292" y="666" type="curve" smooth="yes"/>
      <point x="292" y="691"/>
      <point x="277" y="715"/>
      <point x="245" y="715" type="curve"/>
      <point x="209" y="715"/>
      <point x="192" y="688"/>
      <point x="192" y="658" type="curve" smooth="yes"/>
      <point x="192" y="633"/>
      <point x="210" y="609"/>
    </contour>
    <contour>
      <point x="39" y="0" type="line"/>
      <point x="262" y="0" type="line"/>
      <point x="262" y="38" type="line"/>
      <point x="195" y="48" type="line"/>
      <point x="195" y="501" type="line"/>
      <point x="262" y="510" type="line"/>
      <point x="262" y="550" type="line"/>
      <point x="39" y="550" type="line"/>
      <point x="39" y="510" type="line"/>
      <point x="106" y="501" type="line"/>
      <point x="106" y="48" type="line"/>
      <point x="39" y="39" type="line"/>
    </contour>
  </outline>
</glyph>
<glyph name="Eth" format="1">
  <advance width="563"/>
  <unicode hex="00D0"/>
  <outline>
    <contour>
      <point x="39" y="266" type="line"/>
      <point x="93" y="266" type="line"/>
      <point x="93" y="48" type="line"/>
      <point x="33" y="39" type="line"/>
      <point x="33" y="0" type="line"/>
      <point x="138" y="0" type="line" smooth="yes"/>
      <point x="175" y="0"/>
      <point x="220" y="-5"/>
      <point x="258" y="-6" type="curve" smooth="yes"/>
      <point x="426" y="-10"/>
      <point x="538" y="114"/>
      <point x="538" y="293" type="curve" smooth="yes"/>
      <point x="538" y="454"/>
      <point x="455" y="556"/>
      <point x="267" y="556" type="curve" smooth="yes"/>
      <point x="221" y="556"/>
      <point x="182" y="550"/>
      <point x="136" y="550" type="curve" smooth="yes"/>
      <point x="36" y="550" type="line"/>
      <point x="36" y="510" type="line"/>
      <point x="93" y="501" type="line"/>
      <point x="93" y="307" type="line"/>
      <point x="39" y="307" type="line"/>
    </contour>
    <contour>
      <point x="181" y="508" type="line"/>
      <point x="196" y="509"/>
      <point x="219" y="513"/>
      <point x="248" y="513" type="curve" smooth="yes"/>
      <point x="381" y="513"/>
      <point x="442" y="429"/>
      <point x="442" y="278" type="curve" smooth="yes"/>
      <point x="442" y="118"/>
      <point x="369" y="40"/>
      <point x="264" y="38" type="curve" smooth="yes"/>
      <point x="235" y="38"/>
      <point x="208" y="38"/>
      <point x="181" y="45" type="curve"/>
      <point x="181" y="266" type="line"/>
      <point x="305" y="266" type="line"/>
      <point x="305" y="307" type="line"/>
      <point x="181" y="307" type="line"/>
    </contour>
  </outline>
</glyph>
<glyph name="Ntilde" format="1">
  <advance width="593"/>
  <unicode hex="00D1"/>
  <outline>
    <contour>
      <point x="361" y="608" type="curve" smooth="yes"/>
      <point x="411" y="608"/>
      <point x="442" y="646"/>
      <point x="457" y="685" type="curve"/>
      <point x="423" y="709" type="line"/>
      <point x="414" y="694"/>
      <point x="402" y="665"/>
      <point x="368" y="665" type="curve" smooth="yes"/>
      <point x="326" y="665"/>
      <point x="310" y="725"/>
      <point x="248" y="725" type="curve" smooth="yes"/>
      <point x="193" y="725"/>
      <point x="156" y="680"/>
      <point x="145" y="650" type="curve"/>
      <point x="179" y="626" type="line"/>
      <point x="187" y="638"/>
      <point x="203" y="669"/>
      <point x="235" y="669" type="curve" smooth="yes"/>
      <point x="281" y="669"/>
      <point x="300" y="608"/>
    </contour>
    <contour>
      <point x="35" y="0" type="line"/>
      <point x="220" y="0" type="line"/>
      <point x="220" y="39" type="line"/>
      <point x="149" y="48" type="line"/>
      <point x="149" y="461" type="line"/>
      <point x="204" y="362" type="line"/>
      <point x="450" y="0" type="line"/>
      <point x="516" y="0" type="line"/>
      <point x="516" y="501" type="line"/>
      <point x="576" y="510" type="line"/>
      <point x="576" y="550" type="line"/>
      <point x="397" y="550" type="line"/>
      <point x="397" y="510" type="line"/>
      <point x="461" y="501" type="line"/>
      <point x="461" y="119" type="line"/>
      <point x="420" y="197" type="line"/>
      <point x="182" y="550" type="line"/>
      <point x="35" y="550" type="line"/>
      <point x="35" y="510" type="line"/>
      <point x="94" y="501" type="line"/>
      <point x="94" y="48" type="line"/>
      <point x="35" y="39" type="line"/>
    </contour>
  </outline>
</glyph>
<glyph name="Otilde" format="1">
  <advance width="536"/>
  <unicode hex="00D5"/>
  <outline>
    <contour>
      <point x="330" y="608" type="curve" smooth="yes"/>
      <point x="381" y="608"/>
      <point x="411" y="646"/>
      <point x="427" y="685" type="curve"/>
      <point x="393" y="709" type="line"/>
      <point x="384" y="694"/>
      <point x="372" y="665"/>
      <point x="338" y="665" type="curve" smooth="yes"/>
      <point x="296" y="665"/>
      <point x="279" y="725"/>
      <point x="218" y="725" type="curve" smooth="yes"/>
      <point x="162" y="725"/>
      <point x="125" y="680"/>
      <point x="114" y="650" type="curve"/>
      <point x="148" y="626" type="line"/>
      <point x="157" y="638"/>
      <point x="173" y="669"/>
      <point x="205" y="669" type="curve" smooth="yes"/>
      <point x="251" y="669"/>
      <point x="270" y="608"/>
    </contour>
    <contour>
      <point x="264" y="-8" type="curve" smooth="yes"/>
      <point x="407" y="-6"/>
      <point x="513" y="108"/>
      <point x="513" y="282" type="curve" smooth="yes"/>
      <point x="513" y="448"/>
      <point x="434" y="556"/>
      <point x="274" y="556" type="curve" smooth="yes"/>
      <point x="130" y="557"/>
      <point x="24" y="446"/>
      <point x="24" y="272" type="curve" smooth="yes"/>
      <point x="24" y="104"/>
      <point x="104" y="-11"/>
    </contour>
    <contour>
      <point x="268" y="515" type="curve" smooth="yes"/>
      <point x="361" y="515"/>
      <point x="414" y="431"/>
      <point x="414" y="281" type="curve" smooth="yes"/>
      <point x="414" y="117"/>
      <point x="356" y="34"/>
      <point x="267" y="34" type="curve" smooth="yes"/>
      <point x="175" y="34"/>
      <point x="122" y="124"/>
      <point x="122" y="272" type="curve" smooth="yes"/>
      <point x="122" y="436"/>
      <point x="180" y="515"/>
    </contour>
  </outline>
</glyph>
<glyph name="Odieresis" format="1">
  <advance width="536"/>
  <unicode hex="00D6"/>
  <outline>
    <contour>
      <point x="173" y="609" type="curve"/>
      <point x="212" y="609"/>
      <point x="229" y="634"/>
      <point x="229" y="666" type="curve" smooth="yes"/>
      <point x="229" y="691"/>
      <point x="213" y="715"/>
      <point x="182" y="715" type="curve"/>
      <point x="146" y="715"/>
      <point x="129" y="688"/>
      <point x="129" y="658" type="curve" smooth="yes"/>
      <point x="129" y="631"/>
      <point x="146" y="609"/>
    </contour>
    <contour>
      <point x="356" y="609" type="curve"/>
      <point x="395" y="609"/>
      <point x="412" y="634"/>
      <point x="412" y="666" type="curve" smooth="yes"/>
      <point x="412" y="691"/>
      <point x="397" y="715"/>
      <point x="364" y="715" type="curve"/>
      <point x="329" y="715"/>
      <point x="311" y="688"/>
      <point x="311" y="658" type="curve" smooth="yes"/>
      <point x="311" y="633"/>
      <point x="329" y="609"/>
    </contour>
    <contour>
      <point x="264" y="-8" type="curve" smooth="yes"/>
      <point x="407" y="-6"/>
      <point x="513" y="108"/>
      <point x="513" y="282" type="curve" smooth="yes"/>
      <point x="513" y="448"/>
      <point x="434" y="556"/>
      <point x="274" y="556" type="curve" smooth="yes"/>
      <point x="130" y="557"/>
      <point x="24" y="446"/>
      <point x="24" y="272" type="curve" smooth="yes"/>
      <point x="24" y="104"/>
      <point x="104" y="-11"/>
    </contour>
    <contour>
      <point x="268" y="515" type="curve" smooth="yes"/>
      <point x="361" y="515"/>
      <point x="414" y="431"/>
      <point x="414" y="281" type="curve" smooth="yes"/>
      <point x="414" y="117"/>
      <point x="356" y="34"/>
      <point x="267" y="34" type="curve" smooth="yes"/>
      <point x="175" y="34"/>
      <point x="122" y="124"/>
      <point x="122" y="272" type="curve" smooth="yes"/>
      <point x="122" y="436"/>
      <point x="180" y="515"/>
    </contour>
  </outline>
</glyph>
<glyph name="multiply" format="1">
  <advance width="452"/>
  <unicode hex="00D7"/>
  <outline>
    <contour>
      <point x="108" y="54" type="line"/>
      <point x="226" y="182" type="line"/>
      <point x="344" y="54" type="line"/>
      <point x="391" y="104" type="line"/>
      <point x="268" y="223" type="line"/>
      <point x="391" y="342" type="line"/>
      <point x="344" y="392" type="line"/>
      <point x="226" y="264" type="line"/>
      <point x="108" y="392" type="line"/>
      <point x="59" y="342" type="line"/>
      <point x="184" y="223" type="line"/>
      <point x="60" y="104" type="line"/>
    </contour>
  </outline>
</glyph>
<glyph name="Oslash" format="1">
  <advance width="536"/>
  <unicode hex="00D8"/>
  <outline>
    <contour>
      <point x="154" y="-79" type="line"/>
      <point x="188" y="2" type="line"/>
      <point x="211" y="-5"/>
      <point x="236" y="-9"/>
      <point x="264" y="-8" type="curve"/>
      <point x="408" y="-6"/>
      <point x="513" y="108"/>
      <point x="513" y="282" type="curve" smooth="yes"/>
      <point x="513" y="402"/>
      <point x="471" y="492"/>
      <point x="387" y="533" type="curve"/>
      <point x="419" y="610" type="line"/>
      <point x="380" y="623" type="line"/>
      <point x="350" y="547" type="line"/>
      <point x="327" y="553"/>
      <point x="302" y="556"/>
      <point x="274" y="556" type="curve" smooth="yes"/>
      <point x="130" y="557"/>
      <point x="24" y="446"/>
      <point x="24" y="272" type="curve" smooth="yes"/>
      <point x="24" y="151"/>
      <point x="66" y="58"/>
      <point x="148" y="16" type="curve"/>
      <point x="114" y="-67" type="line"/>
    </contour>
    <contour>
      <point x="269" y="515" type="curve" smooth="yes"/>
      <point x="293" y="515"/>
      <point x="314" y="510"/>
      <point x="332" y="498" type="curve"/>
      <point x="179" y="75" type="line"/>
      <point x="142" y="114"/>
      <point x="122" y="183"/>
      <point x="122" y="272" type="curve" smooth="yes"/>
      <point x="122" y="436"/>
      <point x="180" y="515"/>
    </contour>
    <contour>
      <point x="415" y="281" type="curve" smooth="yes"/>
      <point x="415" y="117"/>
      <point x="356" y="34"/>
      <point x="268" y="34" type="curve" smooth="yes"/>
      <point x="244" y="34"/>
      <point x="224" y="39"/>
      <point x="206" y="51" type="curve"/>
      <point x="359" y="474" type="line"/>
      <point x="395" y="434"/>
      <point x="415" y="369"/>
    </contour>
  </outline>
</glyph>
<glyph name="Uacute" format="1">
  <advance width="548"/>
  <unicode hex="00DA"/>
  <outline>
    <contour>
      <point x="267" y="591" type="line"/>
      <point x="298" y="601"/>
      <point x="379" y="644"/>
      <point x="411" y="682" type="curve"/>
      <point x="355" y="727" type="line"/>
      <point x="354" y="727" type="line"/>
      <point x="236" y="615" type="line"/>
    </contour>
    <contour>
      <point x="282" y="-6" type="curve" smooth="yes"/>
      <point x="398" y="-6"/>
      <point x="484" y="62"/>
      <point x="484" y="223" type="curve" smooth="yes"/>
      <point x="484" y="501" type="line"/>
      <point x="537" y="510" type="line"/>
      <point x="537" y="550" type="line"/>
      <point x="362" y="550" type="line"/>
      <point x="362" y="510" type="line"/>
      <point x="423" y="501" type="line"/>
      <point x="423" y="219" type="line" smooth="yes"/>
      <point x="423" y="103"/>
      <point x="381" y="37"/>
      <point x="293" y="37" type="curve" smooth="yes"/>
      <point x="211" y="37"/>
      <point x="159" y="86"/>
      <point x="159" y="223" type="curve" smooth="yes"/>
      <point x="159" y="501" type="line"/>
      <point x="221" y="510" type="line"/>
      <point x="221" y="550" type="line"/>
      <point x="16" y="550" type="line"/>
      <point x="16" y="510" type="line"/>
      <point x="68" y="501" type="line"/>
      <point x="68" y="232" type="line" smooth="yes"/>
      <point x="68" y="67"/>
      <point x="135" y="-6"/>
    </contour>
  </outline>
</glyph>
<glyph name="Ucircumflex" format="1">
  <advance width="548"/>
  <unicode hex="00DB"/>
  <outline>
    <contour>
      <point x="187" y="597" type="line"/>
      <point x="288" y="671" type="line"/>
      <point x="389" y="597" type="line"/>
      <point x="422" y="620" type="line"/>
      <point x="320" y="727" type="line"/>
      <point x="257" y="727" type="line"/>
      <point x="156" y="620" type="line"/>
    </contour>
    <contour>
      <point x="282" y="-6" type="curve" smooth="yes"/>
      <point x="398" y="-6"/>
      <point x="484" y="62"/>
      <point x="484" y="223" type="curve" smooth="yes"/>
      <point x="484" y="501" type="line"/>
      <point x="537" y="510" type="line"/>
      <point x="537" y="550" type="line"/>
      <point x="362" y="550" type="line"/>
      <point x="362" y="510" type="line"/>
      <point x="423" y="501" type="line"/>
      <point x="423" y="219" type="line" smooth="yes"/>
      <point x="423" y="103"/>
      <point x="381" y="37"/>
      <point x="293" y="37" type="curve" smooth="yes"/>
      <point x="211" y="37"/>
      <point x="159" y="86"/>
      <point x="159" y="223" type="curve" smooth="yes"/>
      <point x="159" y="501" type="line"/>
      <point x="221" y="510" type="line"/>
      <point x="221" y="550" type="line"/>
      <point x="16" y="550" type="line"/>
      <point x="16" y="510" type="line"/>
      <point x="68" y="501" type="line"/>
      <point x="68" y="232" type="line" smooth="yes"/>
      <point x="68" y="67"/>
      <point x="135" y="-6"/>
    </contour>
  </outline>
</glyph>
<glyph name="Udieresis" format="1">
  <advance width="548"/>
  <unicode hex="00DC"/>
  <outline>
    <contour>
      <point x="192" y="609" type="curve"/>
      <point x="230" y="609"/>
      <point x="248" y="634"/>
      <point x="248" y="666" type="curve" smooth="yes"/>
      <point x="248" y="691"/>
      <point x="232" y="715"/>
      <point x="200" y="715" type="curve"/>
      <point x="164" y="715"/>
      <point x="147" y="688"/>
      <point x="147" y="658" type="curve" smooth="yes"/>
      <point x="147" y="631"/>
      <point x="164" y="609"/>
    </contour>
    <contour>
      <point x="375" y="609" type="curve"/>
      <point x="413" y="609"/>
      <point x="431" y="634"/>
      <point x="431" y="666" type="curve" smooth="yes"/>
      <point x="431" y="691"/>
      <point x="415" y="715"/>
      <point x="383" y="715" type="curve"/>
      <point x="347" y="715"/>
      <point x="331" y="688"/>
      <point x="331" y="658" type="curve" smooth="yes"/>
      <point x="331" y="633"/>
      <point x="348" y="609"/>
    </contour>
    <contour>
      <point x="282" y="-6" type="curve" smooth="yes"/>
      <point x="398" y="-6"/>
      <point x="484" y="62"/>
      <point x="484" y="223" type="curve" smooth="yes"/>
      <point x="484" y="501" type="line"/>
      <point x="537" y="510" type="line"/>
      <point x="537" y="550" type="line"/>
      <point x="362" y="550" type="line"/>
      <point x="362" y="510" type="line"/>
      <point x="423" y="501" type="line"/>
      <point x="423" y="219" type="line" smooth="yes"/>
      <point x="423" y="103"/>
      <point x="381" y="37"/>
      <point x="293" y="37" type="curve" smooth="yes"/>
      <point x="211" y="37"/>
      <point x="159" y="86"/>
      <point x="159" y="223" type="curve" smooth="yes"/>
      <point x="159" y="501" type="line"/>
      <point x="221" y="510" type="line"/>
      <point x="221" y="550" type="line"/>
      <point x="16" y="550" type="line"/>
      <point x="16" y="510" type="line"/>
      <point x="68" y="501" type="line"/>
      <point x="68" y="232" type="line" smooth="yes"/>
      <point x="68" y="67"/>
      <point x="135" y="-6"/>
    </contour>
  </outline>
</glyph>
<glyph name="Thorn" format="1">
  <advance width="481"/>
  <unicode hex="00DE"/>
  <outline>
    <contour>
      <point x="33" y="0" type="line"/>
      <point x="259" y="0" type="line"/>
      <point x="259" y="38" type="line"/>
      <point x="181" y="47" type="line"/>
      <point x="181" y="123" type="line"/>
      <point x="202" y="121"/>
      <point x="231" y="120"/>
      <point x="270" y="120" type="curve" smooth="yes"/>
      <point x="388" y="120"/>
      <point x="461" y="172"/>
      <point x="461" y="284" type="curve" smooth="yes"/>
      <point x="461" y="382"/>
      <point x="401" y="430"/>
      <point x="294" y="430" type="curve" smooth="yes"/>
      <point x="252" y="430"/>
      <point x="217" y="425"/>
      <point x="181" y="422" type="curve"/>
      <point x="181" y="502" type="line"/>
      <point x="245" y="511" type="line"/>
      <point x="245" y="551" type="line"/>
      <point x="34" y="551" type="line"/>
      <point x="34" y="511" type="line"/>
      <point x="93" y="502" type="line"/>
      <point x="93" y="47" type="line"/>
      <point x="33" y="38" type="line"/>
    </contour>
    <contour>
      <point x="260" y="160" type="curve" smooth="yes"/>
      <point x="236" y="160"/>
      <point x="209" y="160"/>
      <point x="181" y="163" type="curve"/>
      <point x="181" y="380" type="line"/>
      <point x="199" y="383"/>
      <point x="225" y="387"/>
      <point x="252" y="387" type="curve"/>
      <point x="334" y="389"/>
      <point x="366" y="344"/>
      <point x="366" y="280" type="curve" smooth="yes"/>
      <point x="366" y="195"/>
      <point x="320" y="160"/>
    </contour>
  </outline>
</glyph>
<glyph name="germandbls" format="1">
  <advance width="473"/>
  <unicode hex="00DF"/>
  <outline>
    <contour>
      <point x="18" y="0" type="line"/>
      <point x="153" y="0" type="line"/>
      <point x="153" y="359" type="line"/>
      <point x="153" y="478"/>
      <point x="192" y="536"/>
      <point x="261" y="536" type="curve" smooth="yes"/>
      <point x="305" y="536"/>
      <point x="327" y="513"/>
      <point x="327" y="465" type="curve" smooth="yes"/>
      <point x="327" y="389"/>
      <point x="252" y="363"/>
      <point x="252" y="307" type="curve" smooth="yes"/>
      <point x="252" y="220"/>
      <point x="367" y="196"/>
      <point x="367" y="107" type="curve" smooth="yes"/>
      <point x="367" y="72"/>
      <point x="345" y="44"/>
      <point x="292" y="44" type="curve" smooth="yes"/>
      <point x="267" y="44"/>
      <point x="242" y="49"/>
      <point x="226" y="55" type="curve"/>
      <point x="226" y="0" type="line"/>
      <point x="240" y="-4"/>
      <point x="270" y="-8"/>
      <point x="288" y="-8" type="curve" smooth="yes"/>
      <point x="390" y="-8"/>
      <point x="458" y="38"/>
      <point x="458" y="123" type="curve" smooth="yes"/>
      <point x="458" y="237"/>
      <point x="328" y="268"/>
      <point x="328" y="330" type="curve" smooth="yes"/>
      <point x="328" y="383"/>
      <point x="411" y="398"/>
      <point x="411" y="482" type="curve" smooth="yes"/>
      <point x="411" y="549"/>
      <point x="357" y="581"/>
      <point x="279" y="581" type="curve" smooth="yes"/>
      <point x="160" y="581"/>
      <point x="66" y="494"/>
      <point x="66" y="346" type="curve" smooth="yes"/>
      <point x="66" y="46" type="line"/>
      <point x="18" y="39" type="line"/>
    </contour>
  </outline>
</glyph>
<glyph name="ae" format="1">
  <advance width="644"/>
  <unicode hex="00E6"/>
  <outline>
    <contour>
      <point x="458" y="-8" type="curve" smooth="yes"/>
      <point x="519" y="-8"/>
      <point x="582" y="21"/>
      <point x="608" y="47" type="curve"/>
      <point x="593" y="83" type="line"/>
      <point x="570" y="65"/>
      <point x="523" y="48"/>
      <point x="482" y="48" type="curve" smooth="yes"/>
      <point x="406" y="48"/>
      <point x="362" y="108"/>
      <point x="360" y="204" type="curve"/>
      <point x="611" y="204" type="line"/>
      <point x="614" y="222"/>
      <point x="616" y="243"/>
      <point x="615" y="275" type="curve"/>
      <point x="612" y="370"/>
      <point x="560" y="422"/>
      <point x="465" y="422" type="curve" smooth="yes"/>
      <point x="412" y="422"/>
      <point x="365" y="403"/>
      <point x="332" y="369" type="curve"/>
      <point x="313" y="405"/>
      <point x="277" y="420"/>
      <point x="212" y="420" type="curve" smooth="yes"/>
      <point x="137" y="420"/>
      <point x="57" y="380"/>
      <point x="37" y="362" type="curve"/>
      <point x="57" y="323" type="line"/>
      <point x="87" y="338"/>
      <point x="135" y="359"/>
      <point x="190" y="359" type="curve" smooth="yes"/>
      <point x="256" y="359"/>
      <point x="271" y="334"/>
      <point x="271" y="271" type="curve" smooth="yes"/>
      <point x="271" y="250" type="line"/>
      <point x="142" y="248"/>
      <point x="29" y="209"/>
      <point x="29" y="110" type="curve" smooth="yes"/>
      <point x="29" y="29"/>
      <point x="87" y="-8"/>
      <point x="154" y="-8" type="curve" smooth="yes"/>
      <point x="226" y="-8"/>
      <point x="279" y="35"/>
      <point x="304" y="70" type="curve"/>
      <point x="334" y="21"/>
      <point x="385" y="-8"/>
    </contour>
    <contour>
      <point x="190" y="47" type="curve" smooth="yes"/>
      <point x="151" y="47"/>
      <point x="122" y="66"/>
      <point x="122" y="121" type="curve" smooth="yes"/>
      <point x="122" y="169"/>
      <point x="167" y="210"/>
      <point x="271" y="211" type="curve"/>
      <point x="271" y="206" type="line" smooth="yes"/>
      <point x="271" y="168"/>
      <point x="276" y="133"/>
      <point x="288" y="103" type="curve"/>
      <point x="272" y="77"/>
      <point x="233" y="47"/>
    </contour>
    <contour>
      <point x="451" y="378" type="curve" smooth="yes"/>
      <point x="507" y="378"/>
      <point x="527" y="335"/>
      <point x="527" y="277" type="curve" smooth="yes"/>
      <point x="527" y="267"/>
      <point x="527" y="255"/>
      <point x="526" y="245" type="curve"/>
      <point x="360" y="245" type="line"/>
      <point x="364" y="348"/>
      <point x="401" y="378"/>
    </contour>
  </outline>
</glyph>
<glyph name="eth" format="1">
  <advance width="433"/>
  <unicode hex="00F0"/>
  <outline>
    <contour>
      <point x="126" y="487" type="line"/>
      <point x="176" y="550" type="line"/>
      <point x="230" y="514"/>
      <point x="269" y="460"/>
      <point x="289" y="408" type="curve"/>
      <point x="273" y="416"/>
      <point x="248" y="422"/>
      <point x="219" y="422" type="curve" smooth="yes"/>
      <point x="121" y="422"/>
      <point x="28" y="347"/>
      <point x="28" y="194" type="curve" smooth="yes"/>
      <point x="28" y="77"/>
      <point x="89" y="-8"/>
      <point x="217" y="-8" type="curve" smooth="yes"/>
      <point x="358" y="-8"/>
      <point x="406" y="122"/>
      <point x="406" y="241" type="curve" smooth="yes"/>
      <point x="406" y="398"/>
      <point x="323" y="515"/>
      <point x="211" y="591" type="curve"/>
      <point x="230" y="614"/>
      <point x="255" y="643"/>
      <point x="255" y="643" type="curve"/>
      <point x="219" y="672" type="line"/>
      <point x="219" y="672"/>
      <point x="192" y="639"/>
      <point x="172" y="614" type="curve"/>
      <point x="139" y="631"/>
      <point x="113" y="642"/>
      <point x="77" y="652" type="curve"/>
      <point x="61" y="613" type="line"/>
      <point x="81" y="608"/>
      <point x="113" y="592"/>
      <point x="140" y="575" type="curve"/>
      <point x="88" y="514" type="line"/>
    </contour>
    <contour>
      <point x="221" y="35" type="curve" smooth="yes"/>
      <point x="147" y="35"/>
      <point x="122" y="116"/>
      <point x="122" y="202" type="curve" smooth="yes"/>
      <point x="122" y="319"/>
      <point x="161" y="382"/>
      <point x="223" y="382" type="curve" smooth="yes"/>
      <point x="266" y="382"/>
      <point x="291" y="362"/>
      <point x="300" y="349" type="curve"/>
      <point x="306" y="331"/>
      <point x="315" y="289"/>
      <point x="315" y="232" type="curve" smooth="yes"/>
      <point x="315" y="102"/>
      <point x="285" y="35"/>
    </contour>
  </outline>
</glyph>
<glyph name="divide" format="1">
  <advance width="492"/>
  <unicode hex="00F7"/>
  <outline>
    <contour>
      <point x="192" y="69" type="curve" smooth="yes"/>
      <point x="192" y="39"/>
      <point x="216" y="20"/>
      <point x="242" y="20" type="curve" smooth="yes"/>
      <point x="273" y="20"/>
      <point x="301" y="41"/>
      <point x="301" y="75" type="curve" smooth="yes"/>
      <point x="301" y="101"/>
      <point x="284" y="123"/>
      <point x="251" y="123" type="curve" smooth="yes"/>
      <point x="221" y="123"/>
      <point x="192" y="100"/>
    </contour>
    <contour>
      <point x="77" y="193" type="line"/>
      <point x="415" y="193" type="line"/>
      <point x="415" y="251" type="line"/>
      <point x="77" y="251" type="line"/>
    </contour>
    <contour>
      <point x="247" y="324" type="curve" smooth="yes"/>
      <point x="280" y="324"/>
      <point x="306" y="345"/>
      <point x="306" y="378" type="curve" smooth="yes"/>
      <point x="306" y="404"/>
      <point x="290" y="426"/>
      <point x="256" y="426" type="curve" smooth="yes"/>
      <point x="226" y="426"/>
      <point x="198" y="403"/>
      <point x="198" y="372" type="curve" smooth="yes"/>
      <point x="198" y="343"/>
      <point x="222" y="324"/>
    </contour>
  </outline>
</glyph>
<glyph name="oslash" format="1">
  <advance width="445"/>
  <unicode hex="00F8"/>
  <outline>
    <contour>
      <point x="29" y="206" type="curve" smooth="yes"/>
      <point x="29" y="115"/>
      <point x="61" y="41"/>
      <point x="132" y="9" type="curve"/>
      <point x="103" y="-71" type="line"/>
      <point x="141" y="-81" type="line"/>
      <point x="170" y="-3" type="line"/>
      <point x="185" y="-6"/>
      <point x="200" y="-8"/>
      <point x="217" y="-8" type="curve" smooth="yes"/>
      <point x="319" y="-8"/>
      <point x="416" y="66"/>
      <point x="416" y="208" type="curve" smooth="yes"/>
      <point x="416" y="298"/>
      <point x="384" y="371"/>
      <point x="314" y="404" type="curve"/>
      <point x="339" y="479" type="line"/>
      <point x="303" y="489" type="line"/>
      <point x="278" y="417" type="line"/>
      <point x="262" y="420"/>
      <point x="245" y="422"/>
      <point x="227" y="422" type="curve" smooth="yes"/>
      <point x="125" y="422"/>
      <point x="29" y="346"/>
    </contour>
    <contour>
      <point x="123" y="213" type="curve" smooth="yes"/>
      <point x="123" y="324"/>
      <point x="158" y="378"/>
      <point x="222" y="378" type="curve" smooth="yes"/>
      <point x="239" y="378"/>
      <point x="252" y="374"/>
      <point x="263" y="367" type="curve"/>
      <point x="160" y="68" type="line"/>
      <point x="134" y="98"/>
      <point x="123" y="151"/>
    </contour>
    <contour>
      <point x="223" y="36" type="curve" smooth="yes"/>
      <point x="207" y="36"/>
      <point x="194" y="40"/>
      <point x="182" y="46" type="curve"/>
      <point x="286" y="344" type="line"/>
      <point x="311" y="312"/>
      <point x="321" y="262"/>
      <point x="321" y="201" type="curve" smooth="yes"/>
      <point x="321" y="91"/>
      <point x="286" y="36"/>
    </contour>
  </outline>
</glyph>
<glyph name="thorn" format="1">
  <advance width="453"/>
  <unicode hex="00FE"/>
  <outline>
    <contour>
      <point x="59" y="550" type="line"/>
      <point x="59" y="-134" type="line"/>
      <point x="6" y="-143" type="line"/>
      <point x="6" y="-179" type="line"/>
      <point x="221" y="-179" type="line"/>
      <point x="221" y="-143" type="line"/>
      <point x="144" y="-134" type="line"/>
      <point x="144" y="-52" type="line"/>
      <point x="142" y="-3" type="line"/>
      <point x="161" y="-5"/>
      <point x="184" y="-8"/>
      <point x="208" y="-8" type="curve" smooth="yes"/>
      <point x="341" y="-8"/>
      <point x="423" y="93"/>
      <point x="423" y="220" type="curve" smooth="yes"/>
      <point x="423" y="363"/>
      <point x="347" y="422"/>
      <point x="262" y="422" type="curve" smooth="yes"/>
      <point x="209" y="422"/>
      <point x="169" y="398"/>
      <point x="144" y="374" type="curve"/>
      <point x="144" y="595" type="line"/>
      <point x="126" y="607" type="line"/>
      <point x="124" y="607" type="line"/>
      <point x="1" y="592" type="line"/>
      <point x="1" y="558" type="line"/>
    </contour>
    <contour>
      <point x="228" y="366" type="curve" smooth="yes"/>
      <point x="286" y="366"/>
      <point x="333" y="319"/>
      <point x="331" y="208" type="curve" smooth="yes"/>
      <point x="330" y="90"/>
      <point x="280" y="34"/>
      <point x="212" y="34" type="curve" smooth="yes"/>
      <point x="181" y="34"/>
      <point x="151" y="42"/>
      <point x="144" y="56" type="curve"/>
      <point x="144" y="327" type="line"/>
      <point x="159" y="343"/>
      <point x="190" y="366"/>
    </contour>
  </outline>
</glyph>
<glyph name="Amacron" format="1">
  <advance width="514"/>
  <unicode hex="0100"/>
  <outline>
    <contour>
      <point x="153" y="630" type="line"/>
      <point x="364" y="630" type="line"/>
      <point x="364" y="686" type="line"/>
      <point x="153" y="686" type="line"/>
    </contour>
    <contour>
      <point x="-11" y="0" type="line"/>
      <point x="169" y="0" type="line"/>
      <point x="169" y="39" type="line"/>
      <point x="107" y="47" type="line"/>
      <point x="139" y="152" type="line"/>
      <point x="348" y="152" type="line"/>
      <point x="381" y="48" type="line"/>
      <point x="322" y="39" type="line"/>
      <point x="322" y="0" type="line"/>
      <point x="525" y="0" type="line"/>
      <point x="525" y="39" type="line"/>
      <point x="479" y="48" type="line"/>
      <point x="302" y="555" type="line"/>
      <point x="211" y="555" type="line"/>
      <point x="34" y="48" type="line"/>
      <point x="-12" y="39" type="line"/>
    </contour>
    <contour>
      <point x="226" y="434" type="line"/>
      <point x="242" y="497" type="line"/>
      <point x="258" y="435" type="line"/>
      <point x="334" y="199" type="line"/>
      <point x="153" y="199" type="line"/>
    </contour>
  </outline>
</glyph>
<glyph name="Aogonek" format="1">
  <advance width="511"/>
  <unicode hex="0104"/>
  <outline>
    <contour>
      <point x="-11" y="0" type="line"/>
      <point x="169" y="0" type="line"/>
      <point x="169" y="39" type="line"/>
      <point x="107" y="47" type="line"/>
      <point x="139" y="152" type="line"/>
      <point x="348" y="152" type="line"/>
      <point x="381" y="48" type="line"/>
      <point x="322" y="39" type="line"/>
      <point x="322" y="0" type="line"/>
      <point x="414" y="0" type="line"/>
      <point x="359" y="-21"/>
      <point x="314" y="-73"/>
      <point x="314" y="-114" type="curve" smooth="yes"/>
      <point x="314" y="-164"/>
      <point x="359" y="-184"/>
      <point x="410" y="-184" type="curve" smooth="yes"/>
      <point x="440" y="-184"/>
      <point x="476" y="-175"/>
      <point x="497" y="-160" type="curve"/>
      <point x="497" y="-120" type="line"/>
      <point x="480" y="-128"/>
      <point x="463" y="-132"/>
      <point x="445" y="-132" type="curve" smooth="yes"/>
      <point x="414" y="-132"/>
      <point x="389" y="-120"/>
      <point x="389" y="-89" type="curve" smooth="yes"/>
      <point x="389" y="-60"/>
      <point x="423" y="-20"/>
      <point x="471" y="0" type="curve"/>
      <point x="525" y="0" type="line"/>
      <point x="525" y="39" type="line"/>
      <point x="479" y="48" type="line"/>
      <point x="302" y="555" type="line"/>
      <point x="211" y="555" type="line"/>
      <point x="34" y="48" type="line"/>
      <point x="-12" y="39" type="line"/>
    </contour>
    <contour>
      <point x="226" y="434" type="line"/>
      <point x="242" y="497" type="line"/>
      <point x="258" y="435" type="line"/>
      <point x="334" y="199" type="line"/>
      <point x="153" y="199" type="line"/>
    </contour>
  </outline>
</glyph>
<glyph name="aogonek" format="1">
  <advance width="417"/>
  <unicode hex="0105"/>
  <outline>
    <contour>
      <point x="30" y="112" type="curve" smooth="yes"/>
      <point x="30" y="30"/>
      <point x="88" y="-8"/>
      <point x="155" y="-8" type="curve" smooth="yes"/>
      <point x="216" y="-8"/>
      <point x="261" y="30"/>
      <point x="279" y="48" type="curve"/>
      <point x="279" y="28" type="line" smooth="yes"/>
      <point x="279" y="2"/>
      <point x="287" y="-6"/>
      <point x="308" y="-7" type="curve"/>
      <point x="255" y="-32"/>
      <point x="211" y="-77"/>
      <point x="211" y="-114" type="curve" smooth="yes"/>
      <point x="211" y="-164"/>
      <point x="253" y="-184"/>
      <point x="305" y="-184" type="curve" smooth="yes"/>
      <point x="335" y="-184"/>
      <point x="370" y="-175"/>
      <point x="391" y="-160" type="curve"/>
      <point x="391" y="-120" type="line"/>
      <point x="374" y="-128"/>
      <point x="358" y="-132"/>
      <point x="340" y="-132" type="curve" smooth="yes"/>
      <point x="309" y="-132"/>
      <point x="286" y="-119"/>
      <point x="286" y="-88" type="curve" smooth="yes"/>
      <point x="286" y="-60"/>
      <point x="326" y="-19"/>
      <point x="378" y="-1" type="curve"/>
      <point x="386" y="0"/>
      <point x="394" y="2"/>
      <point x="399" y="4" type="curve"/>
      <point x="399" y="40" type="line"/>
      <point x="356" y="40" type="line"/>
      <point x="356" y="273" type="line" smooth="yes"/>
      <point x="356" y="380"/>
      <point x="320" y="420"/>
      <point x="213" y="420" type="curve" smooth="yes"/>
      <point x="138" y="420"/>
      <point x="60" y="378"/>
      <point x="44" y="364" type="curve"/>
      <point x="64" y="324" type="line"/>
      <point x="90" y="337"/>
      <point x="136" y="359"/>
      <point x="193" y="359" type="curve" smooth="yes"/>
      <point x="258" y="359"/>
      <point x="275" y="332"/>
      <point x="275" y="270" type="curve" smooth="yes"/>
      <point x="275" y="250" type="line"/>
      <point x="142" y="248"/>
      <point x="30" y="211"/>
    </contour>
    <contour>
      <point x="193" y="47" type="curve" smooth="yes"/>
      <point x="153" y="47"/>
      <point x="123" y="69"/>
      <point x="123" y="122" type="curve" smooth="yes"/>
      <point x="123" y="170"/>
      <point x="168" y="208"/>
      <point x="275" y="208" type="curve"/>
      <point x="275" y="82" type="line"/>
      <point x="251" y="63"/>
      <point x="216" y="47"/>
    </contour>
  </outline>
</glyph>
